SplineFontDB: 3.0
FontName: NovaOval
FullName: Nova Oval
FamilyName: Nova Oval
Weight: Book
Copyright: Copyright (c) 2011, wmk69 (wmk69@o2.pl)\nwith Reserved Font Names 'NovaOval' and 'Nova Oval'.\n\nThis Font Software is licensed under the SIL Open Font License, Version 1.1.\nThis license is available with a FAQ at:\nhttp://scripts.sil.org/OFL
Version: 2.000
ItalicAngle: 0
UnderlinePosition: -81
UnderlineWidth: 122
Ascent: 1638
Descent: 410
LayerCount: 2
Layer: 0 1 "Warstwa t+AUIA-a"  1
Layer: 1 1 "Plan pierwszy"  0
XUID: [1021 783 23647091 8360855]
FSType: 0
OS2Version: 3
OS2_WeightWidthSlopeOnly: 0
OS2_UseTypoMetrics: 1
CreationTime: 1260698820
ModificationTime: 1313914482
PfmFamily: 33
TTFWeight: 400
TTFWidth: 5
LineGap: 0
VLineGap: 0
Panose: 2 12 5 4 2 4 4 6 2 4
OS2TypoAscent: 1966
OS2TypoAOffset: 0
OS2TypoDescent: -506
OS2TypoDOffset: 0
OS2TypoLinegap: 0
OS2WinAscent: 1966
OS2WinAOffset: 0
OS2WinDescent: 506
OS2WinDOffset: 0
HheadAscent: 1966
HheadAOffset: 0
HheadDescent: -506
HheadDOffset: 0
OS2SubXSize: 1434
OS2SubYSize: 1331
OS2SubXOff: 0
OS2SubYOff: 287
OS2SupXSize: 1434
OS2SupYSize: 1331
OS2SupXOff: 0
OS2SupYOff: 977
OS2StrikeYSize: 102
OS2StrikeYPos: 512
OS2Vendor: '    '
OS2CodePages: 20000093.00000000
OS2UnicodeRanges: 8000002f.4000204b.00000000.00000000
Lookup: 258 0 0 "'kern' Kerning poziomy w tablicy 0"  {"Podtablica 'kern' Kerning poziomy w tablicy 0"  } ['kern' ('DFLT' <'dflt' > 'grek' <'dflt' > 'latn' <'dflt' > ) ]
DEI: 91125
KernClass2: 29 17 "Podtablica 'kern' Kerning poziomy w tablicy 0" 
 187 A D H M N V W Agrave Aacute Acircumflex Atilde Adieresis Aring Eth Ntilde Dcaron Dcroat Hcircumflex Hbar Nacute Ncommaaccent Ncaron Eng Wcircumflex uni1E0A uni1E40 Wgrave Wacute Wdieresis
 20 B germandbls uni1E02
 195 C G O Q Ccedilla Ograve Oacute Ocircumflex Otilde Odieresis Oslash Cacute Ccircumflex Cdotaccent Ccaron Gcircumflex Gbreve Gdotaccent Gcommaaccent Omacron Obreve Ohungarumlaut uni01E4 Oslashacute

StartChar: .notdef
Encoding: 65536 -1 0
Width: 894
Flags: W
HStem: 0 118<268 626> 1392 118<268 626>
VStem: 150 118<118 1392> 626 118<118 1392>
LayerCount: 2
Fore
SplineSet
150 0 m 1,0,-1
 150 1510 l 1,1,-1
 744 1510 l 1,2,-1
 744 0 l 1,3,-1
 150 0 l 1,0,-1
268 1392 m 1,4,-1
 268 118 l 1,5,-1
 626 118 l 1,6,-1
 626 1392 l 1,7,-1
 268 1392 l 1,4,-1
EndSplineSet
Validated: 3073
EndChar

StartChar: exclam
Encoding: 33 33 4
Width: 600
GlyphClass: 2
Flags: W
HStem: -20 245<216.097 383.903> 1530 20G<347.778 400>
VStem: 180 240<17.1285 187.871> 200 200<510 1460>
LayerCount: 2
Fore
SplineSet
180 102.5 m 128,-1,1
 180 153 180 153 215 189 c 128,-1,2
 250 225 250 225 300 225 c 128,-1,3
 350 225 350 225 385 189 c 128,-1,4
 420 153 420 153 420 102.5 c 128,-1,5
 420 52 420 52 385 16 c 128,-1,6
 350 -20 350 -20 300 -20 c 128,-1,7
 250 -20 250 -20 215 16 c 128,-1,0
 180 52 180 52 180 102.5 c 128,-1,1
390 1550 m 1,8,-1
 400 1550 l 1,9,-1
 400 510 l 1,10,-1
 210 420 l 1,11,-1
 200 420 l 1,12,-1
 200 1460 l 1,13,-1
 390 1550 l 1,8,-1
EndSplineSet
Validated: 1
EndChar

StartChar: quotedbl
Encoding: 34 34 5
Width: 747
GlyphClass: 2
Flags: W
HStem: 992 558
VStem: 150 166<1066 1476> 431 166<1066 1476>
LayerCount: 2
Fore
SplineSet
587 1550 m 1,0,-1
 597 1550 l 1,1,-1
 597 1066 l 1,2,-1
 441 992 l 1,3,-1
 431 992 l 1,4,-1
 431 1476 l 1,5,-1
 587 1550 l 1,0,-1
306 1550 m 1,6,-1
 316 1550 l 1,7,-1
 316 1066 l 1,8,-1
 160 992 l 1,9,-1
 150 992 l 1,10,-1
 150 1476 l 1,11,-1
 306 1550 l 1,6,-1
EndSplineSet
Validated: 3073
EndChar

StartChar: numbersign
Encoding: 35 35 6
Width: 1368
GlyphClass: 2
Flags: W
HStem: 520 182<231 448 630 738 920 1137> 810 182<231 448 630 738 920 1137>
VStem: 448 182<303 520 702 810 992 1209> 738 182<303 520 702 810 992 1209>
LayerCount: 2
Fore
SplineSet
458 222 m 1,0,-1
 448 222 l 1,1,-1
 448 520 l 1,2,-1
 150 520 l 1,3,-1
 150 530 l 1,4,-1
 231 702 l 1,5,-1
 448 702 l 1,6,-1
 448 810 l 1,7,-1
 150 810 l 1,8,-1
 150 820 l 1,9,-1
 231 992 l 1,10,-1
 448 992 l 1,11,-1
 448 1209 l 1,12,-1
 620 1290 l 1,13,-1
 630 1290 l 1,14,-1
 630 992 l 1,15,-1
 738 992 l 1,16,-1
 738 1209 l 1,17,-1
 910 1290 l 1,18,-1
 920 1290 l 1,19,-1
 920 992 l 1,20,-1
 1218 992 l 1,21,-1
 1218 982 l 1,22,-1
 1137 810 l 1,23,-1
 920 810 l 1,24,-1
 920 702 l 1,25,-1
 1218 702 l 1,26,-1
 1218 692 l 1,27,-1
 1137 520 l 1,28,-1
 920 520 l 1,29,-1
 920 303 l 1,30,-1
 748 222 l 1,31,-1
 738 222 l 1,32,-1
 738 520 l 1,33,-1
 630 520 l 1,34,-1
 630 303 l 1,35,-1
 458 222 l 1,0,-1
630 702 m 1,36,-1
 738 702 l 1,37,-1
 738 810 l 1,38,-1
 630 810 l 1,39,-1
 630 702 l 1,36,-1
EndSplineSet
Validated: 3073
EndChar

StartChar: dollar
Encoding: 36 36 7
Width: 1270
GlyphClass: 2
Flags: W
HStem: -19 171<463.94 577> 1354 173<693 766.75>
VStem: 231 200<1029.39 1281.25> 577 116<-190 -14.3894 161 741 967 1350 1520.02 1700> 918 202<302.942 622.24>
LayerCount: 2
Fore
SplineSet
150 288 m 1,0,-1
 312 366 l 1,1,-1
 322 366 l 1,2,3
 418 173 418 173 577 152 c 1,4,-1
 577 770 l 1,5,6
 459 804 459 804 369 868 c 0,7,8
 231 966 231 966 231 1132 c 0,9,10
 231 1311 231 1311 360 1428 c 0,11,12
 449 1509 449 1509 577 1526 c 1,13,-1
 577 1700 l 1,14,-1
 683 1750 l 1,15,-1
 693 1750 l 1,16,-1
 693 1527 l 1,17,18
 883 1505 883 1505 994 1302 c 1,19,-1
 836 1227 l 1,20,-1
 826 1227 l 1,21,22
 774 1331 774 1331 693 1354 c 1,23,-1
 693 935 l 1,24,25
 880 897 880 897 999 779 c 0,26,27
 1120 659 1120 659 1120 472 c 0,28,29
 1120 282 1120 282 976 132 c 1,30,31
 859 8 859 8 693 -15 c 1,32,-1
 693 -190 l 1,33,-1
 587 -240 l 1,34,-1
 577 -240 l 1,35,-1
 577 -19 l 1,36,37
 306 0 306 0 150 288 c 1,0,-1
577 967 m 1,38,-1
 577 1350 l 1,39,40
 527 1336 527 1336 491 1299 c 0,41,42
 431 1237 431 1237 431 1147 c 0,43,44
 431 1067 431 1067 484 1021 c 0,45,46
 520 990 520 990 577 967 c 1,38,-1
693 741 m 1,47,-1
 693 161 l 1,48,49
 775 186 775 186 845 265 c 0,50,51
 918 347 918 347 918 478 c 0,52,53
 918 578 918 578 854 646 c 0,54,55
 796 708 796 708 693 741 c 1,47,-1
EndSplineSet
Validated: 1
EndChar

StartChar: percent
Encoding: 37 37 8
Width: 2052
GlyphClass: 2
Flags: W
HStem: -40 21G<700.529 761.317> -20 147<1426.81 1641.92> 633 147<1426.74 1641.83> 730 147<412.81 627.922> 1383 147<412.738 627.832> 1530 20G<1300.68 1361.47>
VStem: 150 196<948.787 1311.57> 691 197<945.151 1312.17> 1164 196<198.896 561.568> 1705 197<195.736 562.907>
DStem2: 601 28 752 -40 0.422266 0.906472<2.12205 1679.04>
LayerCount: 2
Fore
SplineSet
691 1130 m 0,0,1
 691 1259 691 1259 635 1330 c 0,2,3
 593 1383 593 1383 519 1383 c 0,4,5
 449 1383 449 1383 404 1330 c 0,6,7
 346 1262 346 1262 346 1130 c 0,8,9
 346 996 346 996 404 930 c 0,10,11
 450 877 450 877 519 877 c 0,12,13
 591 877 591 877 635 930 c 0,14,15
 691 997 691 997 691 1130 c 0,0,1
150 1133 m 0,16,17
 150 1304 150 1304 268 1430 c 0,18,19
 362 1530 362 1530 519 1530 c 0,20,21
 675 1530 675 1530 770 1430 c 0,22,23
 888 1304 888 1304 888 1130 c 128,-1,24
 888 956 888 956 770 830 c 0,25,26
 676 730 676 730 519 730 c 128,-1,27
 362 730 362 730 268 830 c 0,28,29
 150 956 150 956 150 1133 c 0,16,17
1705 380 m 0,30,31
 1705 509 1705 509 1649 580 c 0,32,33
 1607 633 1607 633 1533 633 c 0,34,35
 1463 633 1463 633 1418 580 c 0,36,37
 1360 512 1360 512 1360 380 c 0,38,39
 1360 247 1360 247 1418 180 c 0,40,41
 1464 127 1464 127 1533 127 c 0,42,43
 1605 127 1605 127 1649 180 c 0,44,45
 1705 248 1705 248 1705 380 c 0,30,31
1164 383 m 0,46,47
 1164 554 1164 554 1282 680 c 0,48,49
 1376 780 1376 780 1533 780 c 0,50,51
 1689 780 1689 780 1784 680 c 0,52,53
 1902 557 1902 557 1902 380 c 0,54,55
 1902 208 1902 208 1784 80 c 0,56,57
 1690 -20 1690 -20 1533 -20 c 128,-1,58
 1376 -20 1376 -20 1282 80 c 0,59,60
 1164 206 1164 206 1164 383 c 0,46,47
742 -40 m 1,61,-1
 601 28 l 1,62,-1
 1310 1550 l 1,63,-1
 1320 1550 l 1,64,-1
 1461 1482 l 1,65,-1
 752 -40 l 1,66,-1
 742 -40 l 1,61,-1
EndSplineSet
Validated: 1
EndChar

StartChar: ampersand
Encoding: 38 38 9
Width: 1562
GlyphClass: 2
Flags: W
HStem: -40 192<482.5 704> 761 165<516.837 704.688> 1360 170<512.418 768.191>
VStem: 150 198<290.958 625.119> 240 189<1012.3 1276.37> 1212 200<50 319.968>
DStem2: 704 152 796 -40 0.521598 0.853191<-24.7779 386.253 558.552 966.768>
LayerCount: 2
Fore
SplineSet
796 -40 m 1,0,1
 428 -40 428 -40 278 123 c 0,2,3
 150 263 150 263 150 468 c 0,4,5
 150 670 150 670 298 801 c 0,6,7
 344 842 344 842 379 859 c 1,8,9
 240 976 240 976 240 1137 c 0,10,11
 240 1333 240 1333 364 1434 c 0,12,13
 482 1530 482 1530 655 1530 c 0,14,15
 879 1530 879 1530 1003 1302 c 1,16,-1
 845 1227 l 1,17,-1
 835 1227 l 1,18,19
 767 1360 767 1360 653 1360 c 0,20,21
 552 1360 552 1360 490.5 1297.5 c 128,-1,22
 429 1235 429 1235 429 1137 c 0,23,24
 429 1057 429 1057 485 998 c 0,25,26
 547 932 547 932 659.5 926 c 128,-1,27
 772 920 772 920 853 920 c 1,28,29
 853 898 853 898 885 790 c 0,30,31
 920 672 920 672 991 616 c 1,32,-1
 1208 977 l 1,33,-1
 1218 977 l 1,34,-1
 1367 894 l 1,35,-1
 1150 534 l 1,36,37
 1250 490 1250 490 1331 398 c 128,-1,38
 1412 306 1412 306 1412 50 c 1,39,-1
 1222 -40 l 1,40,-1
 1212 -40 l 1,41,42
 1212 188 1212 188 1194 270 c 0,43,44
 1177 340 1177 340 1068 400 c 1,45,-1
 796 -40 l 1,0,1
689 761 m 1,46,47
 517 761 517 761 444 690 c 0,48,49
 348 596 348 596 348 466 c 0,50,51
 348 340 348 340 422 246 c 128,-1,52
 496 152 496 152 704 152 c 1,53,-1
 908 480 l 1,54,55
 770 540 770 540 689 761 c 1,46,47
EndSplineSet
Validated: 1
EndChar

StartChar: quotesingle
Encoding: 39 39 10
Width: 466
GlyphClass: 2
Flags: W
HStem: 992 558
VStem: 150 166<1066 1476>
LayerCount: 2
Fore
SplineSet
306 1550 m 1,0,-1
 316 1550 l 1,1,-1
 316 1066 l 1,2,-1
 160 992 l 1,3,-1
 150 992 l 1,4,-1
 150 1476 l 1,5,-1
 306 1550 l 1,0,-1
EndSplineSet
Validated: 3073
EndChar

StartChar: parenleft
Encoding: 40 40 11
Width: 783
GlyphClass: 2
Flags: W
VStem: 200 200<224.845 1285.16>
LayerCount: 2
Fore
SplineSet
658 -240 m 1,0,-1
 648 -240 l 1,1,2
 431 -166 431 -166 296 88 c 0,3,4
 200 269 200 269 200 555 c 2,5,-1
 200 955 l 2,6,7
 200 1241 200 1241 296 1422 c 0,8,9
 431 1676 431 1676 648 1750 c 1,10,-1
 658 1750 l 1,11,-1
 733 1601 l 1,12,13
 555 1517 555 1517 468 1344 c 0,14,15
 400 1211 400 1211 400 955 c 10,16,-1
 400 555 l 18,17,18
 400 299 400 299 468 166 c 0,19,20
 555 -7 555 -7 733 -91 c 1,21,-1
 658 -240 l 1,0,-1
EndSplineSet
Validated: 1
EndChar

StartChar: parenright
Encoding: 41 41 12
Width: 783
GlyphClass: 2
Flags: W
VStem: 383 200<224.845 1285.16>
LayerCount: 2
Fore
SplineSet
125 -240 m 1,0,-1
 50 -91 l 1,1,2
 228 -7 228 -7 315 166 c 0,3,4
 383 299 383 299 383 555 c 10,5,-1
 383 955 l 18,6,7
 383 1211 383 1211 315 1344 c 0,8,9
 228 1517 228 1517 50 1601 c 1,10,-1
 125 1750 l 1,11,-1
 135 1750 l 1,12,13
 352 1676 352 1676 487 1422 c 0,14,15
 583 1241 583 1241 583 955 c 2,16,-1
 583 555 l 2,17,18
 583 269 583 269 487 88 c 0,19,20
 352 -166 352 -166 135 -240 c 1,21,-1
 125 -240 l 1,0,-1
EndSplineSet
Validated: 1
EndChar

StartChar: asterisk
Encoding: 42 42 13
Width: 1183
GlyphClass: 2
Flags: W
HStem: 1530 20G<629.531 682>
VStem: 500 182<717 955 1231 1469>
LayerCount: 2
Fore
SplineSet
682 1550 m 1,0,-1
 682 1231 l 1,1,-1
 871 1360 l 1,2,-1
 1028 1251 l 1,3,-1
 1033 1243 l 1,4,-1
 753 1093 l 1,5,-1
 1033 943 l 1,6,-1
 1028 935 l 1,7,-1
 871 826 l 1,8,-1
 682 955 l 1,9,-1
 682 717 l 1,10,-1
 510 636 l 1,11,-1
 500 636 l 1,12,-1
 500 955 l 1,13,-1
 311 826 l 1,14,-1
 155 935 l 1,15,-1
 150 943 l 1,16,-1
 429 1093 l 1,17,-1
 150 1243 l 1,18,-1
 155 1251 l 1,19,-1
 311 1360 l 1,20,-1
 500 1231 l 1,21,-1
 500 1469 l 1,22,-1
 672 1550 l 1,23,-1
 682 1550 l 1,0,-1
EndSplineSet
Validated: 1
EndChar

StartChar: plus
Encoding: 43 43 14
Width: 1214
GlyphClass: 2
Flags: W
HStem: 664 182<231 516 698 983>
VStem: 516 182<379 664 846 1131>
LayerCount: 2
Fore
SplineSet
698 1212 m 1,0,-1
 698 846 l 1,1,-1
 1064 846 l 1,2,-1
 1064 836 l 1,3,-1
 983 664 l 1,4,-1
 698 664 l 1,5,-1
 698 379 l 1,6,-1
 526 298 l 1,7,-1
 516 298 l 1,8,-1
 516 664 l 1,9,-1
 150 664 l 1,10,-1
 150 674 l 1,11,-1
 231 846 l 1,12,-1
 516 846 l 1,13,-1
 516 1131 l 1,14,-1
 688 1212 l 1,15,-1
 698 1212 l 1,0,-1
EndSplineSet
Validated: 3073
EndChar

StartChar: comma
Encoding: 44 44 15
Width: 609
GlyphClass: 2
Flags: W
HStem: -286 564
VStem: 284 175<-116.943 108.616>
LayerCount: 2
Fore
SplineSet
340 278 m 1,0,-1
 350 278 l 1,1,2
 459 171 459 171 459 34 c 0,3,4
 459 -157 459 -157 214 -286 c 1,5,-1
 171 -236 l 1,6,7
 284 -121 284 -121 284 -20 c 0,8,9
 284 101 284 101 150 188 c 1,10,-1
 340 278 l 1,0,-1
EndSplineSet
Validated: 1
EndChar

StartChar: hyphen
Encoding: 45 45 16
Width: 1214
GlyphClass: 2
Flags: W
HStem: 664 182<231 983>
LayerCount: 2
Fore
SplineSet
150 664 m 1,0,-1
 150 674 l 1,1,-1
 231 846 l 1,2,-1
 1064 846 l 1,3,-1
 1064 836 l 1,4,-1
 983 664 l 1,5,-1
 150 664 l 1,0,-1
EndSplineSet
Validated: 1
EndChar

StartChar: period
Encoding: 46 46 17
Width: 600
GlyphClass: 2
Flags: W
HStem: -20 245<216.097 383.903>
VStem: 180 240<17.1285 187.871>
LayerCount: 2
Fore
SplineSet
180 102.5 m 128,-1,1
 180 153 180 153 215 189 c 128,-1,2
 250 225 250 225 300 225 c 128,-1,3
 350 225 350 225 385 189 c 128,-1,4
 420 153 420 153 420 102.5 c 128,-1,5
 420 52 420 52 385 16 c 128,-1,6
 350 -20 350 -20 300 -20 c 128,-1,7
 250 -20 250 -20 215 16 c 128,-1,0
 180 52 180 52 180 102.5 c 128,-1,1
EndSplineSet
Validated: 1
EndChar

StartChar: slash
Encoding: 47 47 18
Width: 974
GlyphClass: 2
Flags: W
DStem2: 10 -72 161 -140 0.422626 0.906304<2.18787 1899.6>
LayerCount: 2
Fore
SplineSet
151 -140 m 1,0,-1
 10 -72 l 1,1,-1
 812 1650 l 1,2,-1
 822 1650 l 1,3,-1
 964 1582 l 1,4,-1
 161 -140 l 1,5,-1
 151 -140 l 1,0,-1
EndSplineSet
Validated: 3073
EndChar

StartChar: zero
Encoding: 48 48 19
Width: 1424
GlyphClass: 2
Flags: W
HStem: -20 170<561.9 862.791> 1360 170<561.404 863.039>
VStem: 150 200<421.242 1088.3> 1074 200<421.699 1088.08>
LayerCount: 2
Fore
SplineSet
350 755 m 0,0,1
 350 498 350 498 418 366 c 0,2,3
 529 150 529 150 712 150 c 0,4,5
 897 150 897 150 1006 366 c 0,6,7
 1074 501 1074 501 1074 755 c 128,-1,8
 1074 1009 1074 1009 1006 1144 c 0,9,10
 898 1360 898 1360 712 1360 c 0,11,12
 527 1360 527 1360 418 1144 c 0,13,14
 350 1009 350 1009 350 755 c 0,0,1
150 755 m 128,-1,16
 150 1046 150 1046 246 1222 c 0,17,18
 414 1530 414 1530 712 1530 c 0,19,20
 1011 1530 1011 1530 1178 1222 c 0,21,22
 1274 1045 1274 1045 1274 755 c 0,23,24
 1274 464 1274 464 1178 288 c 0,25,26
 1011 -20 1011 -20 712 -20 c 0,27,28
 414 -20 414 -20 246 288 c 0,29,15
 150 464 150 464 150 755 c 128,-1,16
EndSplineSet
Validated: 1
EndChar

StartChar: one
Encoding: 49 49 20
Width: 714
GlyphClass: 2
Flags: W
HStem: -40 21G<264 316.222> 1138 205<20 225> 1530 20G<240.425 364>
VStem: 264 200<50 1354>
LayerCount: 2
Fore
SplineSet
264 -40 m 1,0,-1
 264 1354 l 1,1,-1
 20 1138 l 1,2,-1
 20 1343 l 1,3,-1
 264 1550 l 9,4,5
 464 1550 464 1550 464 1354 c 2,6,-1
 464 50 l 1,7,-1
 274 -40 l 1,8,-1
 264 -40 l 1,0,-1
EndSplineSet
Validated: 1
EndChar

StartChar: two
Encoding: 50 50 21
Width: 1311
GlyphClass: 2
Flags: W
HStem: 0 170<336.047 964.135> 1360 170<475.9 791.716>
VStem: 150 179<172.957 342.27> 915 203<914.721 1238.51>
LayerCount: 2
Fore
SplineSet
393 0 m 2,0,1
 150 0 150 0 150 198 c 0,2,3
 150 519 150 519 625 732 c 0,4,5
 915 862 915 862 915 1059 c 0,6,7
 915 1192 915 1192 853 1264 c 0,8,9
 770 1360 770 1360 626 1360 c 24,10,11
 443 1360 443 1360 332 1144 c 1,12,-1
 322 1144 l 1,13,-1
 160 1222 l 1,14,15
 328 1530 328 1530 626 1530 c 0,16,17
 868 1530 868 1530 996 1385 c 0,18,19
 1118 1247 1118 1247 1118 1048 c 0,20,21
 1118 768 1118 768 735 586 c 0,22,23
 329 393 329 393 329 234 c 0,24,25
 329 170 329 170 393 170 c 2,26,-1
 853 170 l 2,27,28
 971 170 971 170 1001 287 c 1,29,-1
 1011 287 l 1,30,-1
 1161 216 l 1,31,32
 1101 0 1101 0 853 0 c 2,33,-1
 393 0 l 2,0,1
EndSplineSet
Validated: 1
EndChar

StartChar: three
Encoding: 51 51 22
Width: 1250
GlyphClass: 2
Flags: W
HStem: -20 170<445.9 757.744> 751 158<701 790.277> 1340 170<339 791>
VStem: 900 200<294.024 647.287>
DStem2: 476 864 701 909 0.551867 0.833932<161.697 569.138>
LayerCount: 2
Fore
SplineSet
130 288 m 1,0,1
 292 366 l 1,2,-1
 302 366 l 1,3,4
 413 150 413 150 596 150 c 0,5,6
 737 150 737 150 825 251 c 0,7,8
 900 337 900 337 900 470 c 0,9,10
 900 605 900 605 835 673 c 0,11,12
 760 751 760 751 594 751 c 9,13,-1
 476 864 l 17,14,-1
 791 1340 l 1,15,-1
 264 1340 l 1,16,-1
 264 1350 l 1,17,-1
 339 1510 l 1,18,-1
 804 1510 l 2,19,20
 983 1510 983 1510 983 1372 c 0,21,22
 983 1296 983 1296 893 1170 c 1,23,-1
 701 909 l 1,24,25
 849 905 849 905 964 805 c 0,26,27
 1100 687 1100 687 1100 472 c 0,28,29
 1100 268 1100 268 966 125 c 0,30,31
 829 -20 829 -20 596 -20 c 0,32,33
 298 -20 298 -20 130 288 c 1,0,1
EndSplineSet
Validated: 1
EndChar

StartChar: four
Encoding: 52 52 23
Width: 1187
GlyphClass: 2
Flags: W
HStem: -40 21G<735 787.222> 358 170<231.126 735 935 1032> 1530 20G<721.035 835>
VStem: 735 200<50 358 528 1262>
DStem2: 735 1550 735 1262 0.572492 0.81991<-1126.91 -236.134>
LayerCount: 2
Fore
SplineSet
735 -40 m 1,0,-1
 735 358 l 1,1,-1
 243 358 l 2,2,3
 50 358 50 358 50 494 c 0,4,5
 50 567 50 567 101 642 c 1,6,-1
 735 1550 l 1,7,8
 935 1550 935 1550 935 1354 c 2,9,-1
 935 528 l 1,10,-1
 1107 528 l 1,11,-1
 1107 518 l 1,12,-1
 1032 358 l 1,13,-1
 935 358 l 1,14,-1
 935 50 l 1,15,-1
 745 -40 l 1,16,-1
 735 -40 l 1,0,-1
735 528 m 1,17,-1
 735 1262 l 1,18,-1
 229 528 l 1,19,-1
 735 528 l 1,17,-1
EndSplineSet
Validated: 1
EndChar

StartChar: five
Encoding: 53 53 24
Width: 1270
GlyphClass: 2
Flags: W
HStem: -20 170<465.652 777.744> 770 176<454.054 788.104> 1340 170<544.817 961>
VStem: 920 200<294.024 643.121>
DStem2: 217 808 414 882 0.230267 0.973128<117.374 564.864>
LayerCount: 2
Fore
SplineSet
150 288 m 1,0,-1
 312 366 l 1,1,-1
 322 366 l 1,2,3
 432 150 432 150 616 150 c 0,4,5
 757 150 757 150 845 251 c 0,6,7
 920 337 920 337 920 470 c 0,8,9
 920 619 920 619 832 694 c 16,10,11
 745 770 745 770 615 770 c 0,12,13
 512 770 512 770 426 707 c 1,14,-1
 217 808 l 1,15,-1
 332 1294 l 1,16,17
 384 1510 384 1510 640 1510 c 2,18,-1
 1036 1510 l 17,19,-1
 1036 1500 l 1,20,-1
 961 1340 l 9,21,-1
 655 1340 l 18,22,23
 539 1340 539 1340 507 1223 c 1,24,-1
 414 882 l 1,25,26
 505 946 505 946 617 946 c 0,27,28
 827 946 827 946 967 826 c 0,29,30
 1120 694 1120 694 1120 472 c 0,31,32
 1120 268 1120 268 986 125 c 0,33,34
 849 -20 849 -20 616 -20 c 0,35,36
 318 -20 318 -20 150 288 c 1,0,-1
EndSplineSet
Validated: 1
EndChar

StartChar: six
Encoding: 54 54 25
Width: 1367
GlyphClass: 2
Flags: W
HStem: -20 170<561.391 878.397> 792 172<556.666 873.49> 1360 170<561.209 862.1>
VStem: 150 200<755 1087.41> 1017 200<288.445 654.217>
LayerCount: 2
Fore
SplineSet
1178 1222 m 1,0,-1
 1016 1144 l 1,1,-1
 1006 1144 l 1,2,3
 895 1360 895 1360 712 1360 c 0,4,5
 527 1360 527 1360 418 1144 c 0,6,7
 350 1009 350 1009 350 755 c 1,8,9
 479 963 479 963 711 964 c 0,10,11
 943 964 943 964 1082 817 c 0,12,13
 1217 674 1217 674 1217 472 c 0,14,15
 1217 268 1217 268 1082 125 c 0,16,17
 945 -20 945 -20 712 -20 c 0,18,19
 413 -20 413 -20 246 288 c 0,20,21
 150 465 150 465 150 755 c 0,22,23
 150 1046 150 1046 246 1222 c 0,24,25
 413 1530 413 1530 712 1530 c 0,26,27
 1010 1530 1010 1530 1178 1222 c 1,0,-1
712 792 m 0,28,29
 586 792 586 792 489 694 c 0,30,31
 407 611 407 611 407 470 c 0,32,33
 407 345 407 345 486 258 c 0,34,35
 584 150 584 150 712 150 c 0,36,37
 860 150 860 150 949 256 c 0,38,39
 1017 337 1017 337 1017 470 c 0,40,41
 1017 610 1017 610 950 685 c 0,42,43
 854 792 854 792 712 792 c 0,28,29
EndSplineSet
Validated: 1
EndChar

StartChar: seven
Encoding: 55 55 26
Width: 979
GlyphClass: 2
Flags: W
HStem: -40 21G<359.647 418.981> 1340 170<85 685>
DStem2: 222 45 412 -40 0.336659 0.941627<0 1373.11>
LayerCount: 2
Fore
SplineSet
222 45 m 1,0,-1
 685 1340 l 1,1,-1
 10 1340 l 1,2,-1
 10 1350 l 1,3,-1
 85 1510 l 1,4,-1
 685 1510 l 2,5,6
 879 1510 879 1510 879 1330 c 0,7,8
 879 1287 879 1287 812 1106 c 1,9,-1
 412 -40 l 1,10,-1
 402 -40 l 1,11,-1
 222 45 l 1,0,-1
EndSplineSet
Validated: 1
EndChar

StartChar: eight
Encoding: 56 56 27
Width: 1308
GlyphClass: 2
Flags: W
HStem: -20 170<496.422 817.075> 766 156<521.388 788.876> 1372 158<516.583 791.417>
VStem: 150 200<294.345 633.638> 239 200<999.189 1293.07> 869 200<998.484 1293.32> 958 200<288.318 632.82>
LayerCount: 2
Fore
SplineSet
150 472 m 0,0,1
 150 668 150 668 302 810 c 0,2,3
 334 840 334 840 378 863 c 1,4,5
 239 975 239 975 239 1132 c 0,6,7
 239 1332 239 1332 363 1434 c 0,8,9
 481 1530 481 1530 654 1530 c 128,-1,10
 827 1530 827 1530 945 1434 c 0,11,12
 1069 1333 1069 1333 1069 1132 c 0,13,14
 1069 975 1069 975 930 863 c 1,15,16
 974 840 974 840 1006 810 c 0,17,18
 1158 668 1158 668 1158 472 c 0,19,20
 1158 268 1158 268 1024 125 c 0,21,22
 887 -20 887 -20 654 -20 c 0,23,24
 420 -20 420 -20 284 125 c 0,25,26
 150 268 150 268 150 472 c 0,0,1
654 150 m 0,27,28
 800 150 800 150 892 257 c 0,29,30
 958 334 958 334 958 470 c 0,31,32
 958 590 958 590 887 669 c 0,33,34
 800 766 800 766 654 766 c 0,35,36
 512 766 512 766 422 670 c 0,37,38
 350 593 350 593 350 470 c 0,39,40
 351 337 351 337 421 257 c 0,41,42
 515 150 515 150 654 150 c 0,27,28
654 1372 m 128,-1,44
 557 1372 557 1372 498 1311 c 128,-1,45
 439 1250 439 1250 439 1147 c 0,46,47
 439 1043 439 1043 484 998 c 0,48,49
 562 922 562 922 654 922 c 0,50,51
 755 922 755 922 824 998 c 0,52,53
 869 1048 869 1048 869 1147 c 0,54,55
 869 1250 869 1250 810 1311 c 128,-1,43
 751 1372 751 1372 654 1372 c 128,-1,44
EndSplineSet
Validated: 1
EndChar

StartChar: nine
Encoding: 57 57 28
Width: 1367
GlyphClass: 2
Flags: W
HStem: -20 170<504.9 805.791> 546 172<493.51 810.334> 1360 170<488.603 805.609>
VStem: 150 200<855.783 1221.56> 1017 200<422.589 755>
LayerCount: 2
Fore
SplineSet
189 288 m 1,0,-1
 351 366 l 1,1,-1
 361 366 l 1,2,3
 472 150 472 150 655 150 c 0,4,5
 840 150 840 150 949 366 c 0,6,7
 1017 501 1017 501 1017 755 c 1,8,9
 888 547 888 547 656 546 c 0,10,11
 424 546 424 546 285 693 c 0,12,13
 150 836 150 836 150 1038 c 0,14,15
 150 1242 150 1242 285 1385 c 0,16,17
 422 1530 422 1530 655 1530 c 0,18,19
 954 1530 954 1530 1121 1222 c 0,20,21
 1217 1045 1217 1045 1217 755 c 0,22,23
 1217 464 1217 464 1121 288 c 0,24,25
 954 -20 954 -20 655 -20 c 0,26,27
 357 -20 357 -20 189 288 c 1,0,-1
655 718 m 0,28,29
 781 718 781 718 878 816 c 0,30,31
 960 899 960 899 960 1040 c 0,32,33
 960 1165 960 1165 881 1252 c 0,34,35
 783 1360 783 1360 655 1360 c 0,36,37
 507 1360 507 1360 418 1254 c 0,38,39
 350 1173 350 1173 350 1040 c 0,40,41
 350 900 350 900 417 825 c 0,42,43
 513 718 513 718 655 718 c 0,28,29
EndSplineSet
Validated: 1
EndChar

StartChar: colon
Encoding: 58 58 29
Width: 600
GlyphClass: 2
Flags: W
HStem: -20 245<216.097 383.903> 631 245<216.097 383.903>
VStem: 180 240<17.1285 187.871 668.129 838.871>
LayerCount: 2
Fore
SplineSet
180 753.5 m 128,-1,1
 180 804 180 804 215 840 c 128,-1,2
 250 876 250 876 300 876 c 128,-1,3
 350 876 350 876 385 840 c 128,-1,4
 420 804 420 804 420 753.5 c 128,-1,5
 420 703 420 703 385 667 c 128,-1,6
 350 631 350 631 300 631 c 128,-1,7
 250 631 250 631 215 667 c 128,-1,0
 180 703 180 703 180 753.5 c 128,-1,1
180 102.5 m 128,-1,9
 180 153 180 153 215 189 c 128,-1,10
 250 225 250 225 300 225 c 128,-1,11
 350 225 350 225 385 189 c 128,-1,12
 420 153 420 153 420 102.5 c 128,-1,13
 420 52 420 52 385 16 c 128,-1,14
 350 -20 350 -20 300 -20 c 128,-1,15
 250 -20 250 -20 215 16 c 128,-1,8
 180 52 180 52 180 102.5 c 128,-1,9
EndSplineSet
Validated: 1
EndChar

StartChar: semicolon
Encoding: 59 59 30
Width: 600
GlyphClass: 2
Flags: W
HStem: 631 245<216.097 383.903>
VStem: 180 240<668.129 838.871> 275 175<-116.943 108.616>
LayerCount: 2
Fore
SplineSet
205 -286 m 1,0,1
 162 -236 l 1,2,3
 275 -121 275 -121 275 -20 c 0,4,5
 275 101 275 101 141 188 c 1,6,7
 331 278 l 1,8,-1
 341 278 l 1,9,10
 450 171 450 171 450 34 c 0,11,12
 450 -157 450 -157 205 -286 c 1,0,1
180 753.5 m 128,-1,14
 180 804 180 804 215 840 c 128,-1,15
 250 876 250 876 300 876 c 128,-1,16
 350 876 350 876 385 840 c 128,-1,17
 420 804 420 804 420 753.5 c 128,-1,18
 420 703 420 703 385 667 c 128,-1,19
 350 631 350 631 300 631 c 128,-1,20
 250 631 250 631 215 667 c 128,-1,13
 180 703 180 703 180 753.5 c 128,-1,14
EndSplineSet
Validated: 1
EndChar

StartChar: less
Encoding: 60 60 31
Width: 1338
GlyphClass: 2
Flags: W
DStem2: 454 738 150 664 0.919983 -0.391958<0 734.13> 232 847 454 738 0.920009 0.391897<161.525 895.643>
LayerCount: 2
Fore
SplineSet
150 664 m 1,0,-1
 150 674 l 1,1,-1
 232 847 l 1,2,-1
 1056 1198 l 1,3,-1
 1138 1025 l 1,4,-1
 1138 1015 l 1,5,-1
 454 738 l 1,6,-1
 1138 461 l 1,7,-1
 1138 451 l 1,8,-1
 1056 278 l 1,9,-1
 150 664 l 1,0,-1
EndSplineSet
Validated: 1
EndChar

StartChar: equal
Encoding: 61 61 32
Width: 1214
GlyphClass: 2
Flags: W
HStem: 482 182<231 983> 846 182<231 983>
LayerCount: 2
Fore
SplineSet
150 846 m 1,0,-1
 150 856 l 1,1,-1
 231 1028 l 1,2,-1
 1064 1028 l 1,3,-1
 1064 1018 l 1,4,-1
 983 846 l 1,5,-1
 150 846 l 1,0,-1
150 482 m 1,6,-1
 150 492 l 1,7,-1
 231 664 l 1,8,-1
 1064 664 l 1,9,-1
 1064 654 l 1,10,-1
 983 482 l 1,11,-1
 150 482 l 1,6,-1
EndSplineSet
Validated: 3073
EndChar

StartChar: greater
Encoding: 62 62 33
Width: 1338
GlyphClass: 2
Flags: W
DStem2: 282 1198 200 1015 0.919983 -0.391958<0 734.13> 200 461 282 278 0.920009 0.391897<3.72358 737.842>
LayerCount: 2
Fore
SplineSet
1188 812 m 1,0,-1
 1188 802 l 1,1,-1
 1106 629 l 1,2,-1
 282 278 l 1,3,-1
 200 451 l 1,4,-1
 200 461 l 1,5,-1
 884 738 l 1,6,-1
 200 1015 l 1,7,-1
 200 1025 l 1,8,-1
 282 1198 l 1,9,-1
 1188 812 l 1,0,-1
EndSplineSet
Validated: 1
EndChar

StartChar: question
Encoding: 63 63 34
Width: 1228
GlyphClass: 2
Flags: W
HStem: -20 245<489.097 656.903> 1360 170<435.9 750.793>
VStem: 453 240<17.1285 187.871> 456 203<454 573.521> 880 198<897.317 1232.87>
LayerCount: 2
Fore
SplineSet
120 1222 m 1,0,1
 288 1530 288 1530 586 1530 c 0,2,3
 825 1530 825 1530 956 1385 c 0,4,5
 1078 1249 1078 1249 1078 1048 c 0,6,7
 1078 752 1078 752 733 593 c 0,8,9
 659 560 659 560 659 454 c 1,10,-1
 466 361 l 1,11,-1
 456 361 l 1,12,13
 456 631 456 631 631 722 c 0,14,15
 880 851 880 851 880 1049 c 0,16,17
 880 1187 880 1187 813 1264 c 0,18,19
 729 1360 729 1360 586 1360 c 24,20,21
 403 1360 403 1360 292 1144 c 1,22,-1
 282 1144 l 1,23,-1
 120 1222 l 1,0,1
453 102.5 m 128,-1,25
 453 153 453 153 488 189 c 128,-1,26
 523 225 523 225 573 225 c 128,-1,27
 623 225 623 225 658 189 c 128,-1,28
 693 153 693 153 693 102.5 c 128,-1,29
 693 52 693 52 658 16 c 128,-1,30
 623 -20 623 -20 573 -20 c 128,-1,31
 523 -20 523 -20 488 16 c 128,-1,24
 453 52 453 52 453 102.5 c 128,-1,25
EndSplineSet
Validated: 1
EndChar

StartChar: at
Encoding: 64 64 35
Width: 1397
GlyphClass: 2
Flags: W
HStem: -430 170<562.86 712> -40 158<787.606 1017> 514 155<783.754 1014> 950 170<561.847 865.611>
VStem: 150 200<11.2417 678.301> 516 184<201.628 435.253> 1017 200<118 514>
LayerCount: 2
Fore
SplineSet
1027 -40 m 1,0,-1
 931 -40 l 1,1,2
 734 -27 734 -27 638 50 c 0,3,4
 516 148 516 148 516 300 c 0,5,6
 516 475 516 475 640 573 c 0,7,8
 745 656 745 656 931 669 c 1,9,-1
 1014 669 l 1,10,11
 1006 750 1006 750 944 831 c 0,12,13
 854 950 854 950 712 950 c 0,14,15
 528 950 528 950 418 734 c 0,16,17
 350 599 350 599 350 345 c 0,18,19
 350 88 350 88 418 -44 c 0,20,21
 529 -260 529 -260 712 -260 c 1,22,-1
 712 -430 l 17,23,24
 414 -430 414 -430 246 -122 c 0,25,26
 150 54 150 54 150 345 c 128,-1,27
 150 636 150 636 246 812 c 0,28,29
 415 1120 415 1120 712 1120 c 0,30,31
 929 1120 929 1120 1080 953 c 0,32,33
 1217 800 1217 800 1217 605 c 2,34,-1
 1217 50 l 1,35,-1
 1027 -40 l 1,0,-1
1017 514 m 1,36,37
 835 513 835 513 767 458 c 0,38,39
 700 404 700 404 700 316 c 0,40,41
 700 236 700 236 772 173 c 0,42,43
 834 118 834 118 1017 118 c 1,44,-1
 1017 514 l 1,36,37
EndSplineSet
Validated: 1
EndChar

StartChar: A
Encoding: 65 65 36
Width: 1454
GlyphClass: 2
Flags: W
HStem: -40 21G<180 232.222 835.933 964.5> 670 170<382 1102> 1360 170<591.404 893.039>
VStem: 180 200<50 670 840 1087.11> 1102 202<418.486 670 840 1091.17>
LayerCount: 2
Fore
SplineSet
180 -40 m 1,0,-1
 180 755 l 2,1,2
 180 1046 180 1046 276 1222 c 0,3,4
 444 1530 444 1530 742 1530 c 0,5,6
 1041 1530 1041 1530 1208 1222 c 0,7,8
 1304 1045 1304 1045 1304 755 c 0,9,10
 1304 469 1304 469 1208 288 c 0,11,12
 1073 34 1073 34 856 -40 c 1,13,-1
 846 -40 l 1,14,-1
 771 109 l 1,15,16
 949 193 949 193 1036 366 c 0,17,18
 1092 477 1092 477 1102 670 c 1,19,-1
 380 670 l 1,20,-1
 380 50 l 1,21,-1
 190 -40 l 1,22,-1
 180 -40 l 1,0,-1
382 840 m 1,23,-1
 1102 840 l 1,24,25
 1092 1032 1092 1032 1036 1144 c 0,26,27
 928 1360 928 1360 742 1360 c 0,28,29
 557 1360 557 1360 448 1144 c 0,30,31
 392 1032 392 1032 382 840 c 1,23,-1
EndSplineSet
Validated: 1
EndChar

StartChar: B
Encoding: 66 66 37
Width: 1397
GlyphClass: 2
Flags: W
HStem: 0 170<385.322 913.307> 756 170<389 878> 1360 170<591.404 882.722>
VStem: 180 200<175.756 756 926 1087.41> 957 199<1001.99 1285.32> 1047 200<296.691 627.096>
LayerCount: 2
Fore
SplineSet
430 0 m 2,0,1
 180 0 180 0 180 214 c 2,2,-1
 180 755 l 2,3,4
 180 1046 180 1046 276 1222 c 0,5,6
 444 1530 444 1530 742 1530 c 0,7,8
 910 1530 910 1530 1023 1438 c 0,9,10
 1156 1329 1156 1329 1156 1141 c 0,11,12
 1156 969 1156 969 1004 855 c 1,13,14
 1053 834 1053 834 1101 792 c 0,15,16
 1247 659 1247 659 1247 462 c 0,17,18
 1247 264 1247 264 1119 137 c 0,19,20
 981 0 981 0 742 0 c 2,21,-1
 430 0 l 2,0,1
742 756 m 2,22,-1
 380 756 l 1,23,-1
 380 755 l 1,24,-1
 380 214 l 2,25,26
 380 170 380 170 430 170 c 2,27,-1
 742 170 l 2,28,29
 888 170 888 170 980 268 c 0,30,31
 1047 339 1047 339 1047 456 c 0,32,33
 1047 579 1047 579 982 654 c 0,34,35
 894 756 894 756 742 756 c 2,22,-1
389 926 m 1,36,-1
 742 926 l 2,37,38
 842 926 842 926 903 991 c 0,39,40
 957 1050 957 1050 957 1146 c 0,41,42
 957 1241 957 1241 899.5 1300.5 c 128,-1,43
 842 1360 842 1360 742 1360 c 0,44,45
 557 1360 557 1360 448 1144 c 0,46,47
 405 1059 405 1059 389 926 c 1,36,-1
EndSplineSet
Validated: 1
EndChar

StartChar: C
Encoding: 67 67 38
Width: 1366
GlyphClass: 2
Flags: W
HStem: -20 170<561.9 862.596> 1360 170<561.404 863.039>
VStem: 150 200<421.242 1088.3>
LayerCount: 2
Fore
SplineSet
1246 474 m 1,0,1
 1227 378 1227 378 1178 288 c 0,2,3
 1010 -20 1010 -20 712 -20 c 128,-1,4
 414 -20 414 -20 246 288 c 0,5,6
 150 464 150 464 150 755 c 128,-1,7
 150 1046 150 1046 246 1222 c 0,8,9
 414 1530 414 1530 712 1530 c 0,10,11
 1011 1530 1011 1530 1178 1222 c 1,12,-1
 1016 1144 l 1,13,-1
 1006 1144 l 1,14,15
 898 1360 898 1360 712 1360 c 0,16,17
 527 1360 527 1360 418 1144 c 0,18,19
 350 1009 350 1009 350 755 c 0,20,21
 350 498 350 498 418 366 c 0,22,23
 529 150 529 150 712 150 c 0,24,25
 897 150 897 150 1006 366 c 1,26,-1
 1236 474 l 1,27,-1
 1246 474 l 1,0,1
EndSplineSet
Validated: 1
EndChar

StartChar: D
Encoding: 68 68 39
Width: 1454
GlyphClass: 2
Flags: W
HStem: 0 170<385.322 889.93> 1360 170<591.404 893.039>
VStem: 180 200<175.756 1087.41> 1104 200<456.665 1088.15>
LayerCount: 2
Fore
SplineSet
430 0 m 2,0,1
 180 0 180 0 180 214 c 2,2,-1
 180 755 l 2,3,4
 180 1046 180 1046 276 1222 c 0,5,6
 444 1530 444 1530 742 1530 c 0,7,8
 1041 1530 1041 1530 1208 1222 c 0,9,10
 1304 1046 1304 1046 1304 755 c 0,11,12
 1304 504 1304 504 1206 314 c 0,13,14
 1044 0 1044 0 742 0 c 10,15,-1
 430 0 l 2,0,1
742 170 m 18,16,17
 929 170 929 170 1034 392 c 0,18,19
 1104 540 1104 540 1104 755 c 0,20,21
 1104 1008 1104 1008 1036 1144 c 0,22,23
 928 1360 928 1360 742 1360 c 0,24,25
 557 1360 557 1360 448 1144 c 0,26,27
 380 1010 380 1010 380 755 c 2,28,-1
 380 214 l 2,29,30
 380 170 380 170 430 170 c 10,31,-1
 742 170 l 18,16,17
EndSplineSet
Validated: 1
EndChar

StartChar: E
Encoding: 69 69 40
Width: 1182
GlyphClass: 2
Flags: W
HStem: 0 170<385.322 935.135> 670 170<382 875> 1360 170<592.86 935>
VStem: 180 200<175.756 670 840 1087.11>
LayerCount: 2
Fore
SplineSet
430 0 m 2,0,1
 180 0 180 0 180 214 c 2,2,-1
 180 755 l 2,3,4
 180 1046 180 1046 276 1222 c 0,5,6
 444 1530 444 1530 742 1530 c 2,7,-1
 1010 1530 l 1,8,-1
 1010 1520 l 1,9,-1
 935 1360 l 1,10,-1
 742 1360 l 2,11,12
 556 1360 556 1360 448 1144 c 0,13,14
 392 1032 392 1032 382 840 c 1,15,-1
 950 840 l 1,16,-1
 950 830 l 1,17,-1
 875 670 l 1,18,-1
 380 670 l 1,19,-1
 380 214 l 2,20,21
 380 170 380 170 430 170 c 2,22,-1
 824 170 l 2,23,24
 942 170 942 170 972 287 c 1,25,-1
 982 287 l 1,26,-1
 1132 216 l 1,27,28
 1072 0 1072 0 824 0 c 2,29,-1
 430 0 l 2,0,1
EndSplineSet
Validated: 1
EndChar

StartChar: F
Encoding: 70 70 41
Width: 1130
GlyphClass: 2
Flags: W
HStem: -40 21G<180 232.222> 670 170<382 875> 1360 170<592.86 935>
VStem: 180 200<50 670 840 1087.11>
LayerCount: 2
Fore
SplineSet
180 -40 m 9,0,-1
 180 755 l 2,1,2
 180 1047 180 1047 276 1222 c 0,3,4
 444 1530 444 1530 742 1530 c 2,5,-1
 1010 1530 l 1,6,-1
 1010 1520 l 1,7,-1
 935 1360 l 1,8,-1
 742 1360 l 2,9,10
 556 1360 556 1360 448 1144 c 0,11,12
 392 1032 392 1032 382 840 c 1,13,-1
 950 840 l 1,14,-1
 950 830 l 1,15,-1
 875 670 l 1,16,-1
 380 670 l 1,17,-1
 380 50 l 17,18,19
 190 -40 l 1,20,-1
 180 -40 l 9,0,-1
EndSplineSet
Validated: 1
EndChar

StartChar: G
Encoding: 71 71 42
Width: 1424
GlyphClass: 2
Flags: W
HStem: -20 170<561.9 862.791> 670 170<770 1072> 1360 170<561.652 863.039>
VStem: 150 200<421.242 1088.3>
CounterMasks: 1 e0
LayerCount: 2
Fore
SplineSet
1274 840 m 1,0,-1
 1274 755 l 2,1,2
 1274 464 1274 464 1178 288 c 0,3,4
 1011 -20 1011 -20 712 -20 c 0,5,6
 414 -20 414 -20 246 288 c 0,7,8
 150 464 150 464 150 755 c 128,-1,9
 150 1046 150 1046 246 1222 c 0,10,11
 414 1530 414 1530 712 1530 c 0,12,13
 1011 1530 1011 1530 1178 1222 c 1,14,-1
 1016 1144 l 1,15,-1
 1006 1144 l 1,16,17
 898 1360 898 1360 712 1360 c 0,18,19
 528 1360 528 1360 418 1144 c 0,20,21
 350 1009 350 1009 350 755 c 0,22,23
 350 498 350 498 418 366 c 0,24,25
 529 150 529 150 712 150 c 0,26,27
 897 150 897 150 1006 366 c 0,28,29
 1062 478 1062 478 1072 670 c 1,30,-1
 695 670 l 1,31,-1
 695 680 l 1,32,-1
 770 840 l 1,33,-1
 1274 840 l 1,0,-1
EndSplineSet
Validated: 1
EndChar

StartChar: H
Encoding: 72 72 43
Width: 1454
GlyphClass: 2
Flags: W
HStem: -40 21G<200 252.222 835.933 964.5> 670 170<400 1102> 1530 20G<347.778 400 835.933 964.5>
VStem: 200 200<50 670 840 1460> 1102 202<418.486 670 840 1091.51>
LayerCount: 2
Fore
SplineSet
200 -40 m 1,0,-1
 200 1460 l 1,1,-1
 390 1550 l 1,2,-1
 400 1550 l 1,3,-1
 400 840 l 1,4,-1
 1102 840 l 1,5,6
 1092 1033 1092 1033 1036 1144 c 0,7,8
 949 1317 949 1317 771 1401 c 1,9,-1
 846 1550 l 1,10,-1
 856 1550 l 1,11,12
 1073 1476 1073 1476 1208 1222 c 0,13,14
 1304 1041 1304 1041 1304 755 c 128,-1,15
 1304 469 1304 469 1208 288 c 0,16,17
 1073 34 1073 34 856 -40 c 1,18,-1
 846 -40 l 1,19,-1
 771 109 l 1,20,21
 949 193 949 193 1036 366 c 0,22,23
 1092 477 1092 477 1102 670 c 1,24,-1
 400 670 l 1,25,-1
 400 50 l 1,26,-1
 210 -40 l 1,27,-1
 200 -40 l 1,0,-1
EndSplineSet
Validated: 1
EndChar

StartChar: I
Encoding: 73 73 44
Width: 600
GlyphClass: 2
Flags: W
HStem: -40 21G<200 252.222> 1530 20G<347.778 400>
VStem: 200 200<50 1460>
LayerCount: 2
Fore
SplineSet
200 -40 m 1,0,-1
 200 1460 l 1,1,-1
 390 1550 l 1,2,-1
 400 1550 l 1,3,-1
 400 50 l 1,4,-1
 210 -40 l 1,5,-1
 200 -40 l 1,0,-1
EndSplineSet
Validated: 3073
EndChar

StartChar: J
Encoding: 74 74 45
Width: 1308
GlyphClass: 2
Flags: W
HStem: -20 170<394.961 697.339> 1340 170<401 902.678>
VStem: 908 200<422.589 1334.24>
LayerCount: 2
Fore
SplineSet
80 288 m 1,0,-1
 242 366 l 1,1,-1
 252 366 l 1,2,3
 360 150 360 150 546 150 c 0,4,5
 734 150 734 150 840 366 c 0,6,7
 908 505 908 505 908 755 c 2,8,-1
 908 1296 l 2,9,10
 908 1340 908 1340 858 1340 c 2,11,-1
 326 1340 l 1,12,-1
 326 1350 l 1,13,-1
 401 1510 l 1,14,-1
 858 1510 l 2,15,16
 1108 1510 1108 1510 1108 1296 c 2,17,-1
 1108 755 l 2,18,19
 1108 464 1108 464 1012 288 c 0,20,21
 844 -20 844 -20 546 -20 c 0,22,23
 247 -20 247 -20 80 288 c 1,0,-1
EndSplineSet
Validated: 1
EndChar

StartChar: K
Encoding: 75 75 46
Width: 1352
GlyphClass: 2
Flags: W
HStem: -40 21G<200 252.222 835.933 921> 704 170<690 862.874> 1530 20G<347.778 400 928.578 995.41>
VStem: 200 200<50 561.563 797 1460> 1002 200<235.197 574.187>
DStem2: 400 797 690 874 0.5849 0.811105<232.076 928.363>
LayerCount: 2
Fore
SplineSet
200 -40 m 1,0,-1
 200 1460 l 1,1,-1
 390 1550 l 1,2,-1
 400 1550 l 1,3,-1
 400 797 l 1,4,-1
 943 1550 l 1,5,-1
 953 1550 l 1,6,-1
 1129 1467 l 1,7,-1
 690 874 l 1,8,9
 965 874 965 874 1103 693 c 0,10,11
 1202 563 1202 563 1202 399 c 0,12,13
 1202 229 1202 229 1087 104 c 0,14,15
 986 -8 986 -8 856 -40 c 1,16,-1
 846 -40 l 1,17,-1
 771 109 l 1,18,19
 862 128 862 128 915 182 c 0,20,21
 1002 270 1002 270 1002 399 c 0,22,23
 1002 540 1002 540 926 614 c 0,24,25
 834 704 834 704 690 704 c 0,26,27
 559 704 559 704 472 601 c 0,28,29
 400 516 400 516 400 384 c 2,30,-1
 400 50 l 1,31,-1
 210 -40 l 1,32,-1
 200 -40 l 1,0,-1
EndSplineSet
Validated: 1
EndChar

StartChar: L
Encoding: 76 76 47
Width: 1108
GlyphClass: 2
Flags: W
HStem: 0 170<405.322 906.135> 1530 20G<347.778 400>
VStem: 200 200<175.756 1460>
LayerCount: 2
Fore
SplineSet
450 0 m 2,0,1
 200 0 200 0 200 214 c 2,2,-1
 200 1460 l 1,3,-1
 390 1550 l 1,4,-1
 400 1550 l 1,5,-1
 400 214 l 2,6,7
 400 170 400 170 450 170 c 10,8,-1
 795 170 l 18,9,10
 913 170 913 170 943 287 c 1,11,-1
 953 287 l 1,12,-1
 1103 216 l 1,13,14
 1043 0 1043 0 795 0 c 2,15,-1
 450 0 l 2,0,1
EndSplineSet
Validated: 1
EndChar

StartChar: M
Encoding: 77 77 48
Width: 2348
GlyphClass: 2
Flags: W
HStem: -40 21G<489.5 618.067 1074 1126.22 1729.93 1858.5> 1360 170<560.961 861.427 1486.33 1786.79>
VStem: 150 200<422.522 1088.08> 1074 200<50 1089.19> 1998 200<422.674 1088.08>
CounterMasks: 1 38
LayerCount: 2
Fore
SplineSet
1074 -40 m 1,0,-1
 1074 755 l 2,1,2
 1074 1009 1074 1009 1006 1144 c 0,3,4
 896 1360 896 1360 712 1360 c 0,5,6
 526 1360 526 1360 418 1144 c 0,7,8
 350 1009 350 1009 350 755 c 0,9,10
 350 499 350 499 418 366 c 0,11,12
 507 192 507 192 683 109 c 1,13,-1
 608 -40 l 1,14,-1
 598 -40 l 1,15,16
 381 34 381 34 246 288 c 0,17,18
 150 469 150 469 150 755 c 0,19,20
 150 1045 150 1045 246 1222 c 0,21,22
 413 1530 413 1530 712 1530 c 0,23,24
 1006 1530 1006 1530 1174 1229 c 1,25,26
 1342 1530 1342 1530 1636 1530 c 0,27,28
 1935 1530 1935 1530 2102 1222 c 0,29,30
 2198 1045 2198 1045 2198 755 c 0,31,32
 2198 469 2198 469 2102 288 c 0,33,34
 1967 34 1967 34 1750 -40 c 1,35,-1
 1740 -40 l 1,36,-1
 1665 109 l 1,37,38
 1842 193 1842 193 1930 366 c 0,39,40
 1998 500 1998 500 1998 755 c 0,41,42
 1998 1009 1998 1009 1930 1144 c 0,43,44
 1821 1360 1821 1360 1636 1360 c 128,-1,45
 1451 1360 1451 1360 1342 1144 c 0,46,47
 1274 1009 1274 1009 1274 755 c 2,48,-1
 1274 50 l 1,49,-1
 1084 -40 l 1,50,-1
 1074 -40 l 1,0,-1
EndSplineSet
Validated: 1
EndChar

StartChar: N
Encoding: 78 78 49
Width: 1454
GlyphClass: 2
Flags: W
HStem: -40 21G<180 232.222 835.933 964.5> 1360 170<591.156 893.039>
VStem: 180 200<50 1087.41> 1104 200<422.522 1088.3>
LayerCount: 2
Fore
SplineSet
180 -40 m 9,0,-1
 180 755 l 2,1,2
 180 1046 180 1046 276 1222 c 0,3,4
 444 1530 444 1530 742 1530 c 0,5,6
 1041 1530 1041 1530 1208 1222 c 0,7,8
 1304 1046 1304 1046 1304 755 c 0,9,10
 1304 469 1304 469 1208 288 c 0,11,12
 1073 34 1073 34 856 -40 c 1,13,-1
 846 -40 l 1,14,-1
 771 109 l 1,15,16
 949 193 949 193 1036 366 c 0,17,18
 1104 499 1104 499 1104 755 c 0,19,20
 1104 1009 1104 1009 1036 1144 c 0,21,22
 928 1360 928 1360 742 1360 c 128,-1,23
 556 1360 556 1360 448 1144 c 0,24,25
 380 1009 380 1009 380 755 c 2,26,-1
 380 50 l 17,27,-1
 190 -40 l 1,28,-1
 180 -40 l 9,0,-1
EndSplineSet
Validated: 1
EndChar

StartChar: O
Encoding: 79 79 50
Width: 1424
GlyphClass: 2
Flags: W
HStem: -20 170<561.9 862.791> 1360 170<561.404 863.039>
VStem: 150 200<421.242 1088.3> 1074 200<421.699 1088.08>
LayerCount: 2
Fore
SplineSet
350 755 m 0,0,1
 350 498 350 498 418 366 c 0,2,3
 529 150 529 150 712 150 c 0,4,5
 897 150 897 150 1006 366 c 0,6,7
 1074 501 1074 501 1074 755 c 128,-1,8
 1074 1009 1074 1009 1006 1144 c 0,9,10
 898 1360 898 1360 712 1360 c 0,11,12
 527 1360 527 1360 418 1144 c 0,13,14
 350 1009 350 1009 350 755 c 0,0,1
150 755 m 128,-1,16
 150 1046 150 1046 246 1222 c 0,17,18
 414 1530 414 1530 712 1530 c 0,19,20
 1011 1530 1011 1530 1178 1222 c 0,21,22
 1274 1045 1274 1045 1274 755 c 0,23,24
 1274 464 1274 464 1178 288 c 0,25,26
 1011 -20 1011 -20 712 -20 c 0,27,28
 414 -20 414 -20 246 288 c 0,29,15
 150 464 150 464 150 755 c 128,-1,16
EndSplineSet
Validated: 1
EndChar

StartChar: P
Encoding: 80 80 51
Width: 1374
GlyphClass: 2
Flags: W
HStem: -40 21G<180 232.222> 500 170<380 897.829> 1360 170<591.652 896.168>
VStem: 180 200<50 500 670 1087.41> 1054 200<832.509 1195.03>
LayerCount: 2
Fore
SplineSet
180 -40 m 1,0,-1
 180 755 l 2,1,2
 180 1046 180 1046 276 1222 c 0,3,4
 444 1530 444 1530 742 1530 c 0,5,6
 991 1530 991 1530 1135 1346 c 24,7,8
 1254 1194 1254 1194 1254 1005 c 0,9,10
 1254 833 1254 833 1133 684 c 0,11,12
 983 500 983 500 692 500 c 2,13,-1
 380 500 l 1,14,-1
 380 50 l 1,15,-1
 190 -40 l 1,16,-1
 180 -40 l 1,0,-1
380 670 m 1,17,-1
 692 670 l 2,18,19
 880 670 880 670 961 762 c 0,20,21
 1054 868 1054 868 1054 1005 c 0,22,23
 1054 1167 1054 1167 958 1267 c 0,24,25
 868 1360 868 1360 742 1360 c 0,26,27
 558 1360 558 1360 448 1144 c 0,28,29
 380 1010 380 1010 380 755 c 2,30,-1
 380 670 l 1,17,-1
EndSplineSet
Validated: 1
EndChar

StartChar: Q
Encoding: 81 81 52
Width: 1424
GlyphClass: 2
Flags: W
HStem: -40 21G<963.087 1029.41> -20 170<561.9 825.546> 1360 170<560.908 863.039>
VStem: 150 200<421.699 1088.3> 1074 200<421.089 1088.08>
DStem2: 817 538 631 455 0.572907 -0.819621<0 275.754 472.706 565.406> 1006 366 1178 288 0.478852 0.877896<-62.2508 197.004>
LayerCount: 2
Fore
SplineSet
987 -40 m 1,0,-1
 977 -40 l 1,1,-1
 929 29 l 1,2,3
 831 -20 831 -20 712 -20 c 0,4,5
 414 -20 414 -20 246 288 c 0,6,7
 150 464 150 464 150 755 c 128,-1,8
 150 1046 150 1046 246 1222 c 0,9,10
 414 1530 414 1530 712 1530 c 0,11,12
 1011 1530 1011 1530 1178 1222 c 0,13,14
 1274 1045 1274 1045 1274 755 c 0,15,16
 1274 464 1274 464 1178 288 c 0,17,18
 1136 211 1136 211 1086 153 c 1,19,-1
 1163 43 l 1,20,-1
 987 -40 l 1,0,-1
350 755 m 128,-1,22
 350 501 350 501 418 366 c 1,23,24
 529 150 529 150 712 150 c 0,25,26
 774 150 774 150 827 174 c 1,27,-1
 631 455 l 1,28,-1
 807 538 l 1,29,-1
 817 538 l 1,30,-1
 975 312 l 1,31,32
 991 337 991 337 1006 366 c 0,33,34
 1074 497 1074 497 1074 755 c 0,35,36
 1074 1009 1074 1009 1006 1144 c 0,37,38
 898 1360 898 1360 712 1360 c 0,39,40
 525 1360 525 1360 418 1144 c 0,41,21
 350 1009 350 1009 350 755 c 128,-1,22
EndSplineSet
Validated: 1
EndChar

StartChar: R
Encoding: 82 82 53
Width: 1438
GlyphClass: 2
Flags: W
HStem: -40 21G<180 232.222 1088.04 1154.41> 500 170<380 725> 1360 170<591.652 896.168>
VStem: 180 200<50 500 670 1087.41> 1054 200<832.509 1195.03>
DStem2: 939 542 725 500 0.572443 -0.819945<0 570.516>
LayerCount: 2
Fore
SplineSet
380 670 m 1,0,-1
 692 670 l 2,1,2
 880 670 880 670 961 762 c 0,3,4
 1054 868 1054 868 1054 1005 c 0,5,6
 1054 1167 1054 1167 958 1267 c 0,7,8
 868 1360 868 1360 742 1360 c 0,9,10
 558 1360 558 1360 448 1144 c 0,11,12
 380 1010 380 1010 380 755 c 2,13,-1
 380 670 l 1,0,-1
180 -40 m 1,14,-1
 180 755 l 2,15,16
 180 1046 180 1046 276 1222 c 0,17,18
 444 1530 444 1530 742 1530 c 0,19,20
 991 1530 991 1530 1135 1346 c 0,21,22
 1254 1194 1254 1194 1254 1005 c 0,23,24
 1254 833 1254 833 1133 684 c 0,25,26
 1055 588 1055 588 939 542 c 1,27,-1
 1288 43 l 1,28,-1
 1112 -40 l 1,29,-1
 1102 -40 l 1,30,-1
 725 500 l 9,31,-1
 380 500 l 1,32,-1
 380 50 l 1,33,-1
 190 -40 l 1,34,-1
 180 -40 l 1,14,-1
EndSplineSet
Validated: 1
EndChar

StartChar: S
Encoding: 83 83 54
Width: 1210
GlyphClass: 2
Flags: W
HStem: -20 170<434.961 733.932> 1360 170<480.281 729.613>
VStem: 201 200<1029.83 1281.62> 888 202<305.964 621.994>
LayerCount: 2
Fore
SplineSet
120 288 m 1,0,1
 282 366 l 1,2,-1
 292 366 l 1,3,4
 400 150 400 150 586 150 c 0,5,6
 714 150 714 150 815 265 c 0,7,8
 888 349 888 349 888 478 c 0,9,10
 888 578 888 578 824 646 c 0,11,12
 750 725 750 725 604 756 c 0,13,14
 452 787 452 787 339 868 c 0,15,16
 201 968 201 968 201 1132 c 0,17,18
 201 1312 201 1312 330 1428 c 0,19,20
 442 1530 442 1530 616 1530 c 16,21,22
 840 1530 840 1530 964 1302 c 1,23,-1
 806 1227 l 1,24,-1
 796 1227 l 1,25,26
 729 1360 729 1360 616 1360 c 16,27,28
 520 1359 520 1359 461 1299 c 0,29,30
 401 1238 401 1238 401 1147 c 0,31,32
 401 1067 401 1067 454 1021 c 0,33,34
 521 963 521 963 661 935 c 0,35,36
 848 899 848 899 969 779 c 0,37,38
 1090 658 1090 658 1090 472 c 0,39,40
 1090 282 1090 282 946 132 c 0,41,42
 803 -20 803 -20 586 -20 c 0,43,44
 287 -20 287 -20 120 288 c 1,0,1
EndSplineSet
Validated: 1
EndChar

StartChar: T
Encoding: 84 84 55
Width: 1066
GlyphClass: 2
Flags: W
HStem: -40 21G<433 485.222> 1340 170<201.389 434 634 986>
VStem: 433 200<50 1340>
LayerCount: 2
Fore
SplineSet
433 -40 m 1,0,-1
 434 1340 l 25,1,-1
 313 1340 l 18,2,3
 194 1340 194 1340 165 1223 c 1,4,-1
 155 1223 l 1,5,-1
 5 1294 l 1,6,7
 64 1510 64 1510 313 1510 c 2,8,-1
 1061 1510 l 17,9,-1
 1061 1500 l 1,10,-1
 986 1340 l 1,11,-1
 634 1340 l 1,12,-1
 633 50 l 1,13,-1
 443 -40 l 1,14,-1
 433 -40 l 1,0,-1
EndSplineSet
Validated: 1
EndChar

StartChar: U
Encoding: 85 85 56
Width: 1474
GlyphClass: 2
Flags: W
HStem: -20 170<560.961 862.596> 1530 20G<489.5 618.067 1221.78 1274>
VStem: 150 200<421.699 1087.48> 1074 200<422.589 1460>
LayerCount: 2
Fore
SplineSet
1274 1550 m 9,0,-1
 1274 755 l 2,1,2
 1274 464 1274 464 1178 288 c 0,3,4
 1010 -20 1010 -20 712 -20 c 0,5,6
 413 -20 413 -20 246 288 c 0,7,8
 150 464 150 464 150 755 c 0,9,10
 150 1041 150 1041 246 1222 c 0,11,12
 381 1476 381 1476 598 1550 c 1,13,-1
 608 1550 l 1,14,-1
 683 1401 l 1,15,16
 505 1317 505 1317 418 1144 c 0,17,18
 350 1011 350 1011 350 755 c 0,19,20
 350 501 350 501 418 366 c 0,21,22
 526 150 526 150 712 150 c 0,23,24
 897 150 897 150 1006 366 c 0,25,26
 1074 501 1074 501 1074 755 c 2,27,-1
 1074 1460 l 17,28,-1
 1264 1550 l 1,29,-1
 1274 1550 l 9,0,-1
EndSplineSet
Validated: 1
EndChar

StartChar: V
Encoding: 86 86 57
Width: 1474
GlyphClass: 2
Flags: W
HStem: -20 170<620.988 912.543> 1530 20G<347.778 400 855.933 984.5>
VStem: 200 200<415.882 1460> 1124 200<421.699 1087.48>
LayerCount: 2
Fore
SplineSet
200 1460 m 17,0,-1
 390 1550 l 1,1,-1
 400 1550 l 9,2,-1
 400 755 l 2,3,4
 400 478 400 478 468 366 c 0,5,6
 599 150 599 150 762 150 c 0,7,8
 946 150 946 150 1056 366 c 0,9,10
 1124 501 1124 501 1124 755 c 0,11,12
 1124 1011 1124 1011 1056 1144 c 0,13,14
 967 1318 967 1318 791 1401 c 1,15,16
 866 1550 l 1,17,-1
 876 1550 l 1,18,19
 1093 1476 1093 1476 1228 1222 c 0,20,21
 1324 1041 1324 1041 1324 755 c 0,22,23
 1324 464 1324 464 1228 288 c 0,24,25
 1061 -20 1061 -20 762 -20 c 0,26,27
 464 -20 464 -20 296 288 c 0,28,29
 200 464 200 464 200 755 c 2,30,-1
 200 1460 l 17,0,-1
EndSplineSet
Validated: 1
EndChar

StartChar: W
Encoding: 87 87 58
Width: 2348
GlyphClass: 2
Flags: W
HStem: -20 170<560.961 861.675 1486.33 1786.79> 1530 20G<489.5 618.067 1221.78 1274 1729.93 1858.5>
VStem: 150 200<421.924 1087.33> 1074 200<420.809 1460> 1998 200<421.924 1087.48>
CounterMasks: 1 38
LayerCount: 2
Fore
SplineSet
1274 1550 m 1,0,-1
 1274 755 l 2,1,2
 1274 501 1274 501 1342 366 c 0,3,4
 1451 150 1451 150 1636 150 c 128,-1,5
 1821 150 1821 150 1930 366 c 0,6,7
 1998 501 1998 501 1998 755 c 0,8,9
 1998 1011 1998 1011 1930 1144 c 0,10,11
 1841 1318 1841 1318 1665 1401 c 1,12,-1
 1740 1550 l 1,13,-1
 1750 1550 l 1,14,15
 1967 1476 1967 1476 2102 1222 c 0,16,17
 2198 1041 2198 1041 2198 755 c 0,18,19
 2198 465 2198 465 2102 288 c 0,20,21
 1935 -20 1935 -20 1636 -20 c 0,22,23
 1342 -20 1342 -20 1174 281 c 1,24,25
 1006 -20 1006 -20 712 -20 c 0,26,27
 413 -20 413 -20 246 288 c 0,28,29
 150 465 150 465 150 755 c 0,30,31
 150 1041 150 1041 246 1222 c 0,32,33
 381 1476 381 1476 598 1550 c 1,34,-1
 608 1550 l 1,35,-1
 683 1401 l 1,36,37
 506 1317 506 1317 418 1144 c 0,38,39
 350 1010 350 1010 350 755 c 0,40,41
 350 501 350 501 418 366 c 0,42,43
 526 150 526 150 712 150 c 0,44,45
 897 150 897 150 1006 366 c 0,46,47
 1074 501 1074 501 1074 755 c 2,48,-1
 1074 1460 l 1,49,-1
 1264 1550 l 1,50,-1
 1274 1550 l 1,0,-1
EndSplineSet
Validated: 1
EndChar

StartChar: X
Encoding: 88 88 59
Width: 1278
GlyphClass: 2
Flags: W
HStem: -40 21G<231.561 295.854 978 1030.22> 1530 20G<247.778 300 981.163 1045.17>
VStem: 100 200<1241.01 1460> 978 200<50 271.323>
DStem2: 100 42 284 -40 0.509537 0.860449<23.1979 788.093 980.987 1752.57>
LayerCount: 2
Fore
SplineSet
274 -40 m 1,0,-1
 100 42 l 1,1,-1
 507 730 l 1,2,3
 331 841 331 841 237 996 c 0,4,5
 100 1225 100 1225 100 1460 c 1,6,-1
 290 1550 l 1,7,-1
 300 1550 l 1,8,9
 300 1261 300 1261 421 1076 c 0,10,11
 495 963 495 963 600 886 c 1,12,-1
 993 1550 l 1,13,-1
 1003 1550 l 1,14,-1
 1178 1467 l 1,15,-1
 767 774 l 1,16,17
 946 656 946 656 1039 511 c 0,18,19
 1178 291 1178 291 1178 50 c 1,20,-1
 988 -40 l 1,21,-1
 978 -40 l 1,22,23
 978 241 978 241 863 432 c 0,24,25
 806 530 806 530 674 618 c 1,26,-1
 284 -40 l 1,27,-1
 274 -40 l 1,0,-1
EndSplineSet
Validated: 1
EndChar

StartChar: Y
Encoding: 89 89 60
Width: 1372
GlyphClass: 2
Flags: W
HStem: -40 21G<972 1024.22> 384 170<498.225 815.292> 1530 20G<405 488.067 1119.78 1172>
VStem: 120 200<744.59 1173.45> 972 200<50 530 721.383 1460>
LayerCount: 2
Fore
SplineSet
972 -40 m 1,0,-1
 972 530 l 1,1,2
 846 384 846 384 657 384 c 0,3,4
 399 384 399 384 239 588 c 24,5,6
 120 740 120 740 120 954 c 0,7,8
 120 1184 120 1184 241 1342 c 0,9,10
 342 1474 342 1474 468 1550 c 1,11,-1
 478 1550 l 1,12,-1
 553 1401 l 1,13,14
 466 1342 466 1342 413 1264 c 0,15,16
 320 1127 320 1127 320 954 c 0,17,18
 320 776 320 776 418.5 665 c 128,-1,19
 517 554 517 554 657 554 c 0,20,21
 792 554 792 554 883 658 c 0,22,23
 972 760 972 760 972 894 c 2,24,-1
 972 1460 l 1,25,-1
 1162 1550 l 1,26,-1
 1172 1550 l 1,27,-1
 1172 50 l 1,28,-1
 982 -40 l 1,29,-1
 972 -40 l 1,0,-1
EndSplineSet
Validated: 1
EndChar

StartChar: Z
Encoding: 90 90 61
Width: 1208
GlyphClass: 2
Flags: W
HStem: 0 170<313 891.135> 1340 170<262 822>
DStem2: 216 391 313 170 0.538197 0.842819<-132.151 1124.8>
LayerCount: 2
Fore
SplineSet
313 0 m 2,0,1
 120 0 120 0 120 134 c 0,2,3
 120 247 120 247 216 391 c 1,4,-1
 822 1340 l 1,5,-1
 187 1340 l 1,6,-1
 187 1350 l 1,7,-1
 262 1510 l 1,8,-1
 822 1510 l 2,9,10
 1020 1510 1020 1510 1020 1374 c 0,11,12
 1020 1272 1020 1272 919 1119 c 1,13,-1
 313 170 l 9,14,-1
 780 170 l 2,15,16
 898 170 898 170 928 287 c 1,17,-1
 938 287 l 1,18,-1
 1088 216 l 1,19,20
 1028 0 1028 0 780 0 c 2,21,-1
 313 0 l 2,0,1
EndSplineSet
Validated: 1
EndChar

StartChar: bracketleft
Encoding: 91 91 62
Width: 864
GlyphClass: 2
Flags: W
HStem: -240 170<405.322 739> 1580 170<405.322 739>
VStem: 200 200<-64.2441 1574.24>
LayerCount: 2
Fore
SplineSet
739 -240 m 1,0,-1
 450 -240 l 2,1,2
 200 -240 200 -240 200 -26 c 2,3,-1
 200 1536 l 2,4,5
 200 1750 200 1750 450 1750 c 2,6,-1
 814 1750 l 1,7,-1
 814 1740 l 1,8,-1
 739 1580 l 1,9,-1
 450 1580 l 2,10,11
 400 1580 400 1580 400 1536 c 2,12,-1
 400 -26 l 2,13,14
 400 -70 400 -70 450 -70 c 2,15,-1
 814 -70 l 1,16,-1
 814 -80 l 1,17,-1
 739 -240 l 1,0,-1
EndSplineSet
Validated: 1
EndChar

StartChar: backslash
Encoding: 92 92 63
Width: 974
GlyphClass: 2
Flags: W
DStem2: 161 1650 10 1582 0.422626 -0.906304<0 1897.41>
LayerCount: 2
Fore
SplineSet
812 -140 m 1,0,-1
 10 1582 l 1,1,-1
 151 1650 l 1,2,-1
 161 1650 l 1,3,-1
 964 -72 l 1,4,-1
 822 -140 l 1,5,-1
 812 -140 l 1,0,-1
EndSplineSet
Validated: 3073
EndChar

StartChar: bracketright
Encoding: 93 93 64
Width: 864
GlyphClass: 2
Flags: W
HStem: -240 170<125 458.678> 1580 170<125 458.678>
VStem: 464 200<-64.2441 1574.24>
LayerCount: 2
Fore
SplineSet
50 -240 m 1,0,-1
 50 -230 l 1,1,-1
 125 -70 l 1,2,-1
 414 -70 l 2,3,4
 464 -70 464 -70 464 -26 c 2,5,-1
 464 1536 l 2,6,7
 464 1580 464 1580 414 1580 c 2,8,-1
 50 1580 l 1,9,-1
 50 1590 l 1,10,-1
 125 1750 l 1,11,-1
 414 1750 l 2,12,13
 664 1750 664 1750 664 1536 c 2,14,-1
 664 -26 l 2,15,16
 664 -240 664 -240 414 -240 c 2,17,-1
 50 -240 l 1,0,-1
EndSplineSet
Validated: 1
EndChar

StartChar: asciicircum
Encoding: 94 94 65
Width: 1321
GlyphClass: 2
Flags: W
HStem: 1006 544
DStem2: 150 1088 333 1006 0.705239 0.70897<70.9231 529.119> 711 1550 659 1328 0.705571 -0.708639<120.628 580.943>
LayerCount: 2
Fore
SplineSet
150 1088 m 1,0,-1
 528 1468 l 1,1,-1
 701 1550 l 1,2,-1
 711 1550 l 1,3,-1
 1171 1088 l 1,4,-1
 998 1006 l 1,5,-1
 988 1006 l 1,6,-1
 659 1328 l 1,7,-1
 333 1006 l 1,8,-1
 323 1006 l 1,9,-1
 150 1088 l 1,0,-1
EndSplineSet
Validated: 1
EndChar

StartChar: underscore
Encoding: 95 95 66
Width: 1214
GlyphClass: 2
Flags: W
HStem: -410 182<231 983>
LayerCount: 2
Fore
SplineSet
150 -410 m 1,0,-1
 150 -400 l 1,1,-1
 231 -228 l 1,2,-1
 1064 -228 l 1,3,-1
 1064 -238 l 1,4,-1
 983 -410 l 1,5,-1
 150 -410 l 1,0,-1
EndSplineSet
Validated: 3073
EndChar

StartChar: grave
Encoding: 96 96 67
Width: 648
GlyphClass: 2
Flags: W
HStem: 1150 400
VStem: 150 348
LayerCount: 2
Fore
SplineSet
326 1550 m 1,0,-1
 336 1550 l 1,1,-1
 498 1205 l 1,2,-1
 381 1150 l 1,3,-1
 371 1150 l 1,4,-1
 150 1466 l 1,5,-1
 326 1550 l 1,0,-1
EndSplineSet
Validated: 3073
EndChar

StartChar: a
Encoding: 97 97 68
Width: 1060
GlyphClass: 2
Flags: W
HStem: -40 21G<710 762.222> -20 170<365.506 629.839> 570 170<368.006 626.794> 950 170<332 601.015>
VStem: 100 194<223.663 495.748> 710 200<50 100 230.128 487.175>
LayerCount: 2
Fore
SplineSet
710 -40 m 1,0,-1
 710 100 l 1,1,2
 624 -19 624 -19 495 -20 c 0,3,4
 308 -20 308 -20 204 93 c 128,-1,5
 100 206 100 206 100 360 c 0,6,7
 100 520 100 520 213 632 c 0,8,9
 322 740 322 740 495 740 c 0,10,11
 618 740 618 740 706 630 c 1,12,13
 688 781 688 781 669 818 c 0,14,15
 602 950 602 950 489 950 c 2,16,-1
 256 950 l 1,17,-1
 256 960 l 1,18,-1
 332 1120 l 1,19,-1
 489 1120 l 2,20,21
 713 1120 713 1120 838 889 c 0,22,23
 910 757 910 757 910 550 c 2,24,-1
 910 50 l 1,25,-1
 720 -40 l 1,26,-1
 710 -40 l 1,0,-1
294 362 m 0,27,28
 294 272 294 272 348.5 211 c 128,-1,29
 403 150 403 150 496 150 c 0,30,31
 588 150 588 150 650 213 c 0,32,33
 708 272 708 272 708 358 c 0,34,35
 708 448 708 448 646 509 c 128,-1,36
 584 570 584 570 497 570 c 0,37,38
 404 570 404 570 348 508 c 0,39,40
 294 447 294 447 294 362 c 0,27,28
EndSplineSet
Validated: 1
EndChar

StartChar: b
Encoding: 98 98 69
Width: 1173
GlyphClass: 2
Flags: W
HStem: -20 170<488.376 714.489> 949 171<484.579 714.892> 1530 20G<327.778 380>
VStem: 180 200<277.907 824.183 1016 1460> 823 200<277.272 822.354>
LayerCount: 2
Fore
SplineSet
380 550 m 0,0,1
 380 362 380 362 421 282 c 0,2,3
 489 150 489 150 601 150 c 0,4,5
 714 150 714 150 781 282 c 0,6,7
 823 365 823 365 823 550 c 128,-1,8
 823 735 823 735 781 818 c 0,9,10
 715 949 715 949 601 949 c 0,11,12
 486 949 486 949 420 816 c 0,13,14
 380 735 380 735 380 550 c 0,0,1
380 1016 m 1,15,16
 479 1120 479 1120 601 1120 c 0,17,18
 825 1120 825 1120 950 889 c 0,19,20
 1023 756 1023 756 1023 550 c 0,21,22
 1023 342 1023 342 951 211 c 0,23,24
 824 -20 824 -20 601 -20 c 0,25,26
 381 -20 381 -20 252 211 c 0,27,28
 180 340 180 340 180 550 c 2,29,-1
 180 1460 l 1,30,-1
 370 1550 l 1,31,-1
 380 1550 l 1,32,-1
 380 1016 l 1,15,16
EndSplineSet
Validated: 1
EndChar

StartChar: c
Encoding: 99 99 70
Width: 1098
GlyphClass: 2
Flags: W
HStem: -20 170<458.376 684.732> 950 170<457.108 684.857>
VStem: 150 200<276.913 822.37>
LayerCount: 2
Fore
SplineSet
978 377 m 1,0,1
 960 282 960 282 921 211 c 0,2,3
 794 -20 794 -20 571 -20 c 0,4,5
 351 -20 351 -20 222 211 c 0,6,7
 150 340 150 340 150 550 c 0,8,9
 150 756 150 756 222 889 c 0,10,11
 347 1120 347 1120 571 1120 c 128,-1,12
 795 1120 795 1120 919 892 c 1,13,-1
 761 818 l 1,14,-1
 751 818 l 1,15,16
 685 950 685 950 571 950 c 128,-1,17
 457 950 457 950 391 818 c 0,18,19
 350 735 350 735 350 550 c 0,20,21
 350 364 350 364 391 282 c 0,22,23
 459 150 459 150 571 150 c 0,24,25
 685 150 685 150 751 282 c 1,26,-1
 968 377 l 1,27,-1
 978 377 l 1,0,1
EndSplineSet
Validated: 1
EndChar

StartChar: d
Encoding: 100 100 71
Width: 1173
GlyphClass: 2
Flags: W
HStem: -20 170<458.376 684.489> 949 171<457.108 687.396> 1530 20G<940.778 993>
VStem: 150 200<276.913 821.744> 793 200<277.907 822.062 1015 1460>
LayerCount: 2
Fore
SplineSet
150 550 m 0,0,1
 150 758 150 758 222 889 c 0,2,3
 347 1120 347 1120 571 1120 c 0,4,5
 701 1120 701 1120 793 1015 c 1,6,-1
 793 1460 l 1,7,-1
 983 1550 l 1,8,-1
 993 1550 l 1,9,-1
 993 550 l 2,10,11
 993 342 993 342 921 211 c 0,12,13
 794 -20 794 -20 571 -20 c 0,14,15
 351 -20 351 -20 222 211 c 0,16,17
 150 340 150 340 150 550 c 0,0,1
350 550 m 0,18,19
 350 362 350 362 391 282 c 0,20,21
 459 150 459 150 571 150 c 0,22,23
 684 150 684 150 751 282 c 0,24,25
 793 365 793 365 793 550 c 128,-1,26
 793 735 793 735 751 818 c 0,27,28
 685 949 685 949 571 949 c 128,-1,29
 457 949 457 949 391 816 c 0,30,31
 350 733 350 733 350 550 c 0,18,19
EndSplineSet
Validated: 1
EndChar

StartChar: e
Encoding: 101 101 72
Width: 1128
GlyphClass: 2
Flags: W
HStem: -20 170<459.275 685.154> 950 170<457.352 684.941>
VStem: 150 200<474.098 822.093>
DStem2: 352 473 390 285 0.775623 0.631197<0 532.332>
LayerCount: 2
Fore
SplineSet
978 377 m 1,0,1
 960 282 960 282 921 211 c 0,2,3
 794 -20 794 -20 571 -20 c 0,4,5
 351 -20 351 -20 222 211 c 0,6,7
 150 340 150 340 150 550 c 0,8,9
 150 757 150 757 222 889 c 0,10,11
 347 1120 347 1120 571 1120 c 0,12,13
 794 1120 794 1120 920 890 c 0,14,15
 951 833 951 833 970 757 c 1,16,-1
 390 285 l 1,17,18
 457 150 457 150 573 150 c 0,19,20
 686 150 686 150 751 282 c 1,21,-1
 968 377 l 1,22,-1
 978 377 l 1,0,1
352 473 m 1,23,-1
 751 818 l 1,24,25
 686 950 686 950 571 950 c 0,26,27
 458 950 458 950 391 818 c 0,28,29
 350 736 350 736 350 550 c 0,30,31
 350 509 350 509 352 473 c 1,23,-1
EndSplineSet
Validated: 1
EndChar

StartChar: f
Encoding: 102 102 73
Width: 836
GlyphClass: 2
Flags: W
HStem: -40 21G<180 232.222> 830 170<380 661> 1360 170<489.375 660>
VStem: 180 200<50 830 1000 1232.09>
LayerCount: 2
Fore
SplineSet
180 -40 m 1,0,-1
 180 960 l 2,1,2
 180 1168 180 1168 252 1299 c 0,3,4
 378 1530 378 1530 601 1530 c 2,5,-1
 736 1530 l 1,6,-1
 736 1520 l 1,7,-1
 660 1360 l 1,8,-1
 601 1360 l 2,9,10
 488 1360 488 1360 421 1228 c 0,11,12
 385 1157 385 1157 380 1000 c 1,13,-1
 736 1000 l 1,14,-1
 736 990 l 1,15,-1
 661 830 l 1,16,-1
 380 830 l 1,17,-1
 380 50 l 1,18,-1
 190 -40 l 1,19,-1
 180 -40 l 1,0,-1
EndSplineSet
Validated: 1
EndChar

StartChar: g
Encoding: 103 103 74
Width: 1163
GlyphClass: 2
Flags: W
HStem: -430 170<407 691.057> -20 170<454.839 686.135> 950 170<456.697 685.136>
VStem: 150 200<276.913 824.273> 793 200<-136.121 80 277.907 822.093>
LayerCount: 2
Fore
SplineSet
350 550 m 128,-1,1
 350 364 350 364 391 282 c 0,2,3
 457 150 457 150 571 150 c 128,-1,4
 685 150 685 150 751 282 c 0,5,6
 793 365 793 365 793 550 c 128,-1,7
 793 735 793 735 751 818 c 0,8,9
 686 950 686 950 571 950 c 128,-1,10
 456 950 456 950 390 817 c 0,11,0
 350 736 350 736 350 550 c 128,-1,1
150 550 m 0,12,13
 150 758 150 758 222 889 c 0,14,15
 347 1120 347 1120 571 1120 c 128,-1,16
 795 1120 795 1120 920 889 c 0,17,18
 993 756 993 756 993 550 c 2,19,-1
 993 140 l 2,20,21
 993 -65 993 -65 922 -199 c 0,22,23
 798 -430 798 -430 572 -430 c 2,24,-1
 331 -430 l 1,25,-1
 331 -420 l 1,26,-1
 407 -260 l 1,27,-1
 572 -260 l 2,28,29
 698 -260 698 -260 752 -128 c 0,30,31
 789 -37 789 -37 789 80 c 1,32,33
 691 -20 691 -20 571 -20 c 0,34,35
 351 -20 351 -20 222 211 c 0,36,37
 150 340 150 340 150 550 c 0,12,13
EndSplineSet
Validated: 1
EndChar

StartChar: h
Encoding: 104 104 75
Width: 1193
GlyphClass: 2
Flags: W
HStem: -40 21G<200 252.222 691.933 798> 950 170<504.927 734.604> 1530 20G<347.778 400>
VStem: 200 200<50 822.093 1016 1460> 843 200<277.712 822.37>
LayerCount: 2
Fore
SplineSet
200 -40 m 1,0,-1
 200 1460 l 1,1,-1
 390 1550 l 1,2,-1
 400 1550 l 1,3,-1
 400 1016 l 1,4,5
 492 1120 492 1120 621 1120 c 0,6,7
 845 1120 845 1120 970 889 c 0,8,9
 1043 756 1043 756 1043 550 c 0,10,11
 1043 358 1043 358 971 211 c 1,12,13
 884 28 884 28 712 -40 c 1,14,-1
 702 -40 l 1,15,-1
 627 109 l 1,16,17
 748 152 748 152 801 282 c 0,18,19
 843 386 843 386 843 550 c 0,20,21
 843 735 843 735 801 818 c 0,22,23
 734 950 734 950 620.5 950 c 128,-1,24
 507 950 507 950 441 818 c 0,25,26
 400 735 400 735 400 550 c 2,27,-1
 400 50 l 1,28,-1
 210 -40 l 1,29,-1
 200 -40 l 1,0,-1
EndSplineSet
Validated: 1
EndChar

StartChar: i
Encoding: 105 105 76
Width: 600
GlyphClass: 2
Flags: W
HStem: -40 21G<200 252.222> 1120 20G<347.778 400> 1285 245<216.097 383.903>
VStem: 180 240<1322.13 1492.87> 200 200<50 1050>
LayerCount: 2
Fore
SplineSet
180 1407.5 m 128,-1,1
 180 1458 180 1458 215 1494 c 128,-1,2
 250 1530 250 1530 300 1530 c 128,-1,3
 350 1530 350 1530 385 1494 c 128,-1,4
 420 1458 420 1458 420 1407.5 c 128,-1,5
 420 1357 420 1357 385 1321 c 128,-1,6
 350 1285 350 1285 300 1285 c 128,-1,7
 250 1285 250 1285 215 1321 c 128,-1,0
 180 1357 180 1357 180 1407.5 c 128,-1,1
200 -40 m 1,8,-1
 200 1050 l 1,9,-1
 390 1140 l 1,10,-1
 400 1140 l 1,11,-1
 400 50 l 1,12,-1
 210 -40 l 1,13,-1
 200 -40 l 1,8,-1
EndSplineSet
Validated: 1
EndChar

StartChar: j
Encoding: 106 106 77
Width: 600
GlyphClass: 2
Flags: W
HStem: -440 21G<-21 91> 1120 20G<347.778 400> 1285 245<216.097 383.903>
VStem: 180 240<1322.13 1492.87> 200 200<-143.364 1050>
LayerCount: 2
Fore
SplineSet
-21 -430 m 1,0,-1
 61 -250 l 1,1,2
 119 -217 119 -217 159 -138 c 0,3,4
 200 -55 200 -55 200 130 c 2,5,-1
 200 1050 l 17,6,-1
 390 1140 l 1,7,-1
 400 1140 l 9,8,-1
 400 130 l 2,9,10
 400 -78 400 -78 328 -209 c 0,11,12
 203 -440 203 -440 -21 -440 c 1,13,-1
 -21 -430 l 1,0,-1
180 1407.5 m 128,-1,15
 180 1458 180 1458 215 1494 c 128,-1,16
 250 1530 250 1530 300 1530 c 128,-1,17
 350 1530 350 1530 385 1494 c 128,-1,18
 420 1458 420 1458 420 1407.5 c 128,-1,19
 420 1357 420 1357 385 1321 c 128,-1,20
 350 1285 350 1285 300 1285 c 128,-1,21
 250 1285 250 1285 215 1321 c 128,-1,14
 180 1357 180 1357 180 1407.5 c 128,-1,15
EndSplineSet
Validated: 1
EndChar

StartChar: k
Encoding: 107 107 78
Width: 1180
GlyphClass: 2
Flags: W
HStem: -40 21G<200 252.222 678.933 780> 1120 20G<765.844 836.41> 1530 20G<347.778 400>
VStem: 200 200<50 521.66 717 1460> 830 200<202.686 522.447>
DStem2: 400 717 672 752 0.67215 0.740415<208.739 571.301>
LayerCount: 2
Fore
SplineSet
200 -40 m 1,0,-1
 200 1460 l 1,1,-1
 390 1550 l 1,2,-1
 400 1550 l 1,3,-1
 400 717 l 1,4,-1
 784 1140 l 1,5,-1
 794 1140 l 1,6,-1
 970 1057 l 1,7,-1
 672 752 l 1,8,9
 816 733 816 733 906 659 c 0,10,11
 1030 557 1030 557 1030 372 c 0,12,13
 1030 229 1030 229 958 132 c 0,14,15
 861 0 861 0 699 -40 c 1,16,-1
 689 -40 l 1,17,-1
 614 109 l 1,18,19
 747 149 747 149 788 203 c 0,20,21
 830 259 830 259 830 372 c 0,22,23
 830 487 830 487 767.5 540.5 c 128,-1,24
 705 594 705 594 615 594 c 128,-1,25
 525 594 525 594 462 540 c 0,26,27
 400 486 400 486 400 372 c 2,28,-1
 400 50 l 1,29,-1
 210 -40 l 1,30,-1
 200 -40 l 1,0,-1
EndSplineSet
Validated: 1
EndChar

StartChar: l
Encoding: 108 108 79
Width: 600
GlyphClass: 2
Flags: W
HStem: -40 21G<200 252.222> 1530 20G<347.778 400>
VStem: 200 200<50 1460>
LayerCount: 2
Fore
SplineSet
200 -40 m 1,0,-1
 200 1460 l 1,1,-1
 390 1550 l 1,2,-1
 400 1550 l 1,3,-1
 400 50 l 1,4,-1
 210 -40 l 1,5,-1
 200 -40 l 1,0,-1
EndSplineSet
Validated: 3073
EndChar

StartChar: m
Encoding: 109 109 80
Width: 1786
GlyphClass: 2
Flags: W
HStem: -40 21G<395 501.067 793 845.222 1284.93 1391> 950 170<458.316 688.8 1100.43 1327.93>
VStem: 150 200<278.396 822.37> 793 200<50 822.093> 1436 200<277.712 822.37>
CounterMasks: 1 38
LayerCount: 2
Fore
SplineSet
793 -40 m 1,0,-1
 793 550 l 2,1,2
 793 733 793 733 752 818 c 0,3,4
 688 950 688 950 572 950 c 0,5,6
 459 950 459 950 392 818 c 0,7,8
 350 733 350 733 350 550 c 0,9,10
 350 386 350 386 392 282 c 0,11,12
 445 152 445 152 566 109 c 1,13,-1
 491 -40 l 1,14,-1
 481 -40 l 1,15,16
 309 28 309 28 222 211 c 0,17,18
 150 362 150 362 150 550 c 0,19,20
 150 756 150 756 222 889 c 0,21,22
 348 1120 348 1120 572 1120 c 0,23,24
 771 1120 771 1120 893 936 c 1,25,26
 1015 1120 1015 1120 1214 1120 c 0,27,28
 1438 1120 1438 1120 1564 889 c 0,29,30
 1636 756 1636 756 1636 550 c 0,31,32
 1636 358 1636 358 1564 211 c 1,33,34
 1477 28 1477 28 1305 -40 c 1,35,-1
 1295 -40 l 1,36,-1
 1220 109 l 1,37,38
 1341 152 1341 152 1394 282 c 0,39,40
 1436 386 1436 386 1436 550 c 0,41,42
 1436 733 1436 733 1394 818 c 0,43,44
 1328 950 1328 950 1214 950 c 128,-1,45
 1100 950 1100 950 1034 818 c 0,46,47
 993 735 993 735 993 550 c 2,48,-1
 993 50 l 1,49,-1
 803 -40 l 1,50,-1
 793 -40 l 1,0,-1
EndSplineSet
Validated: 1
EndChar

StartChar: n
Encoding: 110 110 81
Width: 1143
GlyphClass: 2
Flags: W
HStem: -40 21G<150 202.222 641.933 748> 950 170<457.108 684.892>
VStem: 150 200<50 822.093> 793 200<277.712 822.37>
LayerCount: 2
Fore
SplineSet
150 -40 m 9,0,-1
 150 550 l 2,1,2
 150 758 150 758 222 889 c 0,3,4
 347 1120 347 1120 571 1120 c 128,-1,5
 795 1120 795 1120 920 889 c 0,6,7
 993 756 993 756 993 550 c 0,8,9
 993 358 993 358 921 211 c 0,10,11
 834 28 834 28 662 -40 c 1,12,-1
 652 -40 l 1,13,-1
 577 109 l 1,14,15
 698 152 698 152 751 282 c 0,16,17
 793 386 793 386 793 550 c 0,18,19
 793 735 793 735 751 818 c 0,20,21
 685 950 685 950 571 950 c 128,-1,22
 457 950 457 950 391 818 c 0,23,24
 350 735 350 735 350 550 c 2,25,-1
 350 50 l 17,26,-1
 160 -40 l 1,27,-1
 150 -40 l 9,0,-1
EndSplineSet
Validated: 1
EndChar

StartChar: o
Encoding: 111 111 82
Width: 1143
GlyphClass: 2
Flags: W
HStem: -20 170<454.839 684.732> 950 170<456.697 685.136>
VStem: 150 200<276.913 824.273> 793 200<277.092 822.37>
LayerCount: 2
Fore
SplineSet
350 550 m 128,-1,1
 350 364 350 364 391 282 c 0,2,3
 457 150 457 150 571 150 c 128,-1,4
 685 150 685 150 751 282 c 0,5,6
 793 365 793 365 793 550 c 128,-1,7
 793 735 793 735 751 818 c 0,8,9
 686 950 686 950 571 950 c 128,-1,10
 456 950 456 950 390 817 c 0,11,0
 350 736 350 736 350 550 c 128,-1,1
150 550 m 0,12,13
 150 758 150 758 222 889 c 0,14,15
 347 1120 347 1120 571 1120 c 128,-1,16
 795 1120 795 1120 920 889 c 0,17,18
 993 756 993 756 993 550 c 0,19,20
 993 341 993 341 921 211 c 0,21,22
 794 -20 794 -20 571 -20 c 0,23,24
 351 -20 351 -20 222 211 c 0,25,26
 150 340 150 340 150 550 c 0,12,13
EndSplineSet
Validated: 1
EndChar

StartChar: p
Encoding: 112 112 83
Width: 1163
GlyphClass: 2
Flags: W
HStem: -450 21G<170 222.222> -20 170<477.353 705.927> 950 170<477.857 708.405>
VStem: 170 200<-360 85 277.907 821.124> 814 199<277.272 820.765>
LayerCount: 2
Fore
SplineSet
371 550 m 128,-1,1
 371 364 371 364 412 282 c 0,2,3
 478 150 478 150 592 150 c 128,-1,4
 706 150 706 150 772 282 c 0,5,6
 814 365 814 365 814 550 c 128,-1,7
 814 735 814 735 772 818 c 0,8,9
 707 950 707 950 592 950 c 128,-1,10
 477 950 477 950 411 817 c 0,11,0
 371 736 371 736 371 550 c 128,-1,1
170 -450 m 1,12,-1
 170 550 l 2,13,14
 170 758 170 758 242 889 c 0,15,16
 369 1120 369 1120 592 1120 c 0,17,18
 812 1120 812 1120 941 889 c 0,19,20
 1013 760 1013 760 1013 550 c 0,21,22
 1013 342 1013 342 942 211 c 0,23,24
 816 -20 816 -20 592 -20 c 0,25,26
 462 -20 462 -20 370 85 c 1,27,-1
 370 -360 l 1,28,-1
 180 -450 l 1,29,-1
 170 -450 l 1,12,-1
EndSplineSet
Validated: 1
EndChar

StartChar: q
Encoding: 113 113 84
Width: 1163
GlyphClass: 2
Flags: W
HStem: -450 21G<793 845.222> -20 170<457.182 687.26> 950 170<454.282 684.856>
VStem: 150 200<277.81 824.273> 793 200<-360 84 277.907 819.438>
LayerCount: 2
Fore
SplineSet
350 550 m 128,-1,1
 350 364 350 364 391 282 c 0,2,3
 457 150 457 150 571 150 c 128,-1,4
 685 150 685 150 751 282 c 0,5,6
 793 365 793 365 793 550 c 128,-1,7
 793 735 793 735 751 818 c 0,8,9
 686 950 686 950 571 950 c 128,-1,10
 456 950 456 950 390 817 c 0,11,0
 350 736 350 736 350 550 c 128,-1,1
150 550 m 0,12,13
 150 758 150 758 222 889 c 0,14,15
 349 1120 349 1120 572 1120 c 0,16,17
 792 1120 792 1120 921 889 c 0,18,19
 993 760 993 760 993 550 c 2,20,-1
 993 -360 l 1,21,-1
 803 -450 l 1,22,-1
 793 -450 l 1,23,-1
 793 84 l 1,24,25
 693 -20 693 -20 572 -20 c 0,26,27
 346 -20 346 -20 222 211 c 0,28,29
 150 345 150 345 150 550 c 0,12,13
EndSplineSet
Validated: 1
EndChar

StartChar: r
Encoding: 114 114 85
Width: 726
GlyphClass: 2
Flags: W
HStem: -40 21G<150 202.222> 950 170<458.985 630>
VStem: 150 200<50 822.093>
LayerCount: 2
Fore
SplineSet
150 -40 m 9,0,-1
 150 550 l 2,1,2
 150 758 150 758 222 889 c 0,3,4
 347 1120 347 1120 571 1120 c 2,5,-1
 706 1120 l 1,6,-1
 706 1110 l 1,7,-1
 630 950 l 1,8,-1
 571 950 l 10,9,10
 457 950 457 950 391 818 c 0,11,12
 350 735 350 735 350 550 c 2,13,-1
 350 50 l 17,14,-1
 160 -40 l 1,15,-1
 150 -40 l 9,0,-1
EndSplineSet
Validated: 1
EndChar

StartChar: s
Encoding: 115 115 86
Width: 1003
GlyphClass: 2
Flags: W
HStem: -20 170<354.143 609.506> 950 170<393.857 584.776>
VStem: 164 191<736.836 918.788> 687 196<227.805 459.732>
LayerCount: 2
Fore
SplineSet
120 208 m 1,0,1
 278 282 l 1,2,-1
 288 282 l 1,3,4
 354 150 354 150 468 150 c 0,5,6
 578 150 578 150 638 222 c 0,7,8
 687 281 687 281 687 351 c 0,9,10
 687 424 687 424 635 467 c 0,11,12
 581 511 581 511 479 527 c 0,13,14
 349 548 349 548 272 603 c 0,15,16
 164 680 164 680 164 825 c 0,17,18
 164 964 164 964 291 1055 c 0,19,20
 383 1120 383 1120 498 1120 c 0,21,22
 695 1120 695 1120 784 930 c 1,23,-1
 626 856 l 1,24,-1
 616 856 l 1,25,26
 571 950 571 950 498 950 c 0,27,28
 439 950 439 950 401 920 c 0,29,30
 355 884 355 884 355 821 c 0,31,32
 355 760 355 760 405 733 c 0,33,34
 456 705 456 705 561 684 c 0,35,36
 691 658 691 658 772 595 c 0,37,38
 883 509 883 509 883 340 c 0,39,40
 883 209 883 209 768 92 c 0,41,42
 659 -20 659 -20 468 -20 c 0,43,44
 244 -20 244 -20 120 208 c 1,0,1
EndSplineSet
Validated: 1
EndChar

StartChar: t
Encoding: 116 116 87
Width: 754
GlyphClass: 2
Flags: W
HStem: -40 21G<277 329.222> 930 170<95 277 477 659> 1530 20G<424.778 477>
VStem: 277 200<50 930 1100 1460>
LayerCount: 2
Fore
SplineSet
277 -40 m 1,0,-1
 277 930 l 1,1,-1
 20 930 l 1,2,-1
 20 940 l 1,3,-1
 95 1100 l 1,4,-1
 277 1100 l 1,5,-1
 277 1460 l 1,6,-1
 467 1550 l 1,7,-1
 477 1550 l 1,8,-1
 477 1100 l 1,9,-1
 734 1100 l 1,10,-1
 734 1090 l 1,11,-1
 659 930 l 1,12,-1
 477 930 l 1,13,-1
 477 50 l 1,14,-1
 287 -40 l 1,15,-1
 277 -40 l 1,0,-1
EndSplineSet
Validated: 1
EndChar

StartChar: u
Encoding: 117 117 88
Width: 1173
GlyphClass: 2
Flags: W
HStem: -20 170<458.073 685.927> 1120 20G<395 501.067 940.778 993>
VStem: 150 200<277.63 822.288> 793 200<277.907 1050>
LayerCount: 2
Fore
SplineSet
993 1140 m 9,0,-1
 993 550 l 2,1,2
 993 342 993 342 922 211 c 0,3,4
 796 -20 796 -20 572 -20 c 128,-1,5
 348 -20 348 -20 222 211 c 0,6,7
 150 344 150 344 150 550 c 0,8,9
 150 742 150 742 222 889 c 0,10,11
 309 1072 309 1072 481 1140 c 1,12,-1
 491 1140 l 1,13,-1
 566 991 l 1,14,15
 445 948 445 948 392 818 c 0,16,17
 350 714 350 714 350 550 c 0,18,19
 350 365 350 365 392 282 c 0,20,21
 458 150 458 150 572 150 c 128,-1,22
 686 150 686 150 752 282 c 0,23,24
 793 365 793 365 793 550 c 2,25,-1
 793 1050 l 17,26,-1
 983 1140 l 1,27,-1
 993 1140 l 9,0,-1
EndSplineSet
Validated: 1
EndChar

StartChar: v
Encoding: 118 118 89
Width: 1173
GlyphClass: 2
Flags: W
HStem: -20 170<487.108 714.648> 1120 20G<327.778 380 671.933 778>
VStem: 180 200<277.907 1050> 823 200<277.63 821.604>
LayerCount: 2
Fore
SplineSet
180 1050 m 17,0,-1
 370 1140 l 1,1,-1
 380 1140 l 9,2,-1
 380 550 l 2,3,4
 380 364 380 364 421 282 c 0,5,6
 487 150 487 150 601 150 c 24,7,8
 714 150 714 150 781 282 c 0,9,10
 823 365 823 365 823 550 c 0,11,12
 823 714 823 714 781 818 c 0,13,14
 728 948 728 948 607 991 c 1,15,-1
 682 1140 l 1,16,-1
 692 1140 l 1,17,18
 864 1072 864 1072 951 889 c 0,19,20
 1023 738 1023 738 1023 550 c 0,21,22
 1023 344 1023 344 950 211 c 0,23,24
 825 -20 825 -20 601 -20 c 128,-1,25
 377 -20 377 -20 252 211 c 0,26,27
 180 342 180 342 180 550 c 2,28,-1
 180 1050 l 17,0,-1
EndSplineSet
Validated: 1
EndChar

StartChar: w
Encoding: 119 119 90
Width: 1786
GlyphClass: 2
Flags: W
HStem: -20 170<457.877 685.57 1097.2 1327.93> 1120 20G<395 501.067 940.778 993 1284.93 1391>
VStem: 150 200<277.63 821.604> 793 200<277.907 1050> 1436 200<277.63 821.604>
CounterMasks: 1 38
LayerCount: 2
Fore
SplineSet
993 1140 m 1,0,-1
 993 550 l 2,1,2
 993 367 993 367 1034 282 c 0,3,4
 1098 150 1098 150 1214 150 c 0,5,6
 1328 150 1328 150 1394 282 c 0,7,8
 1436 367 1436 367 1436 550 c 0,9,10
 1436 714 1436 714 1394 818 c 0,11,12
 1341 948 1341 948 1220 991 c 1,13,-1
 1295 1140 l 1,14,-1
 1305 1140 l 1,15,16
 1477 1072 1477 1072 1564 889 c 0,17,18
 1636 738 1636 738 1636 550 c 0,19,20
 1636 344 1636 344 1564 211 c 0,21,22
 1438 -20 1438 -20 1214 -20 c 0,23,24
 1015 -20 1015 -20 893 164 c 1,25,26
 771 -20 771 -20 572 -20 c 0,27,28
 347 -20 347 -20 222 211 c 0,29,30
 150 344 150 344 150 550 c 0,31,32
 150 738 150 738 222 889 c 24,33,34
 309 1072 309 1072 481 1140 c 1,35,-1
 491 1140 l 1,36,-1
 566 991 l 1,37,38
 445 948 445 948 392 818 c 0,39,40
 350 714 350 714 350 550 c 0,41,42
 350 367 350 367 392 282 c 0,43,44
 458 150 458 150 572 150 c 128,-1,45
 686 150 686 150 752 282 c 0,46,47
 793 365 793 365 793 550 c 2,48,-1
 793 1050 l 1,49,-1
 983 1140 l 1,50,-1
 993 1140 l 1,0,-1
EndSplineSet
Validated: 1
EndChar

StartChar: x
Encoding: 120 120 91
Width: 1055
GlyphClass: 2
Flags: W
HStem: -40 21G<231.561 296.225 755 807.222> 1120 20G<252.778 305 757.785 822.169>
VStem: 105 200<787.199 1050> 755 200<50 312.78>
DStem2: 100 42 284 -40 0.520884 0.853628<25.8452 560.986 746.678 1286.28>
LayerCount: 2
Fore
SplineSet
284 -40 m 1,0,-1
 274 -40 l 1,1,-1
 100 42 l 1,2,-1
 392 521 l 1,3,4
 255 597 255 597 178 719 c 0,5,6
 105 833 105 833 105 1050 c 1,7,-1
 295 1140 l 1,8,-1
 305 1140 l 1,9,10
 305 855 305 855 347 790 c 0,11,12
 405 700 405 700 475 657 c 1,13,-1
 770 1140 l 1,14,-1
 780 1140 l 1,15,-1
 955 1057 l 1,16,-1
 660 575 l 1,17,18
 810 496 810 496 882.5 381 c 128,-1,19
 955 266 955 266 955 50 c 1,20,-1
 765 -40 l 1,21,-1
 755 -40 l 1,22,23
 755 213 755 213 713 310 c 0,24,25
 677 393 677 393 578 441 c 1,26,-1
 284 -40 l 1,0,-1
EndSplineSet
Validated: 1
EndChar

StartChar: y
Encoding: 121 121 92
Width: 1193
GlyphClass: 2
Flags: W
HStem: -430 170<407 691.057> -20 170<457.608 686.635> 1120 20G<395 501.067 940.778 993>
VStem: 150 200<277.63 821.604> 793 200<-136.121 80 277.907 1050>
LayerCount: 2
Fore
SplineSet
993 1140 m 1,0,-1
 993 140 l 2,1,2
 993 -65 993 -65 922 -199 c 0,3,4
 798 -430 798 -430 572 -430 c 2,5,-1
 331 -430 l 1,6,-1
 331 -420 l 1,7,-1
 407 -260 l 1,8,-1
 572 -260 l 2,9,10
 698 -260 698 -260 752 -128 c 0,11,12
 789 -37 789 -37 789 80 c 1,13,14
 691 -20 691 -20 571 -20 c 0,15,16
 347 -20 347 -20 222 211 c 0,17,18
 150 344 150 344 150 550 c 0,19,20
 150 738 150 738 222 889 c 24,21,22
 309 1072 309 1072 481 1140 c 1,23,-1
 491 1140 l 1,24,-1
 566 991 l 1,25,26
 445 948 445 948 392 818 c 0,27,28
 350 714 350 714 350 550 c 0,29,30
 350 365 350 365 392 282 c 0,31,32
 458 150 458 150 572 150 c 128,-1,33
 686 150 686 150 752 282 c 0,34,35
 793 365 793 365 793 550 c 2,36,-1
 793 1050 l 1,37,-1
 983 1140 l 1,38,-1
 993 1140 l 1,0,-1
EndSplineSet
Validated: 1
EndChar

StartChar: z
Encoding: 122 122 93
Width: 1053
GlyphClass: 2
Flags: W
HStem: 0 170<293 756.135> 930 170<242 687>
DStem2: 226 380 293 170 0.639638 0.768676<-114.394 717.572>
LayerCount: 2
Fore
SplineSet
293 0 m 2,0,1
 100 0 100 0 100 134 c 0,2,3
 100 233 100 233 226 380 c 1,4,-1
 687 930 l 1,5,-1
 167 930 l 1,6,-1
 167 940 l 1,7,-1
 242 1100 l 1,8,-1
 687 1100 l 2,9,10
 880 1100 880 1100 880 966 c 0,11,12
 880 875 880 875 754 724 c 1,13,-1
 293 170 l 9,14,-1
 645 170 l 2,15,16
 763 170 763 170 793 287 c 1,17,-1
 803 287 l 1,18,-1
 953 216 l 1,19,20
 893 0 893 0 645 0 c 2,21,-1
 293 0 l 2,0,1
EndSplineSet
Validated: 1
EndChar

StartChar: braceleft
Encoding: 123 123 94
Width: 901
GlyphClass: 2
Flags: W
HStem: -240 170<609.998 775> 664 182<131 270> 1580 170<610.097 775>
VStem: 270 200<69.0332 664 846 1436.08>
CounterMasks: 1 e0
LayerCount: 2
Fore
SplineSet
775 -240 m 1,0,1
 547 -240 547 -240 405 -95 c 0,2,3
 270 43 270 43 270 260 c 2,4,-1
 270 664 l 1,5,-1
 50 664 l 1,6,-1
 50 674 l 1,7,-1
 131 846 l 1,8,-1
 270 846 l 1,9,-1
 270 1250 l 2,10,11
 270 1467 270 1467 405 1605 c 0,12,13
 547 1750 547 1750 775 1750 c 1,14,-1
 851 1750 l 1,15,-1
 851 1740 l 1,16,-1
 775 1580 l 1,17,18
 630 1580 630 1580 544 1480 c 0,19,20
 470 1395 470 1395 470 1250 c 2,21,-1
 470 260 l 2,22,23
 470 112 470 112 542 30 c 0,24,25
 628 -70 628 -70 775 -70 c 1,26,-1
 851 -70 l 1,27,-1
 851 -80 l 1,28,-1
 775 -240 l 1,0,1
EndSplineSet
Validated: 1
EndChar

StartChar: bar
Encoding: 124 124 95
Width: 666
GlyphClass: 2
Flags: W
VStem: 250 166<-166 1676>
LayerCount: 2
Fore
SplineSet
250 -240 m 1,0,-1
 250 1676 l 1,1,-1
 406 1750 l 1,2,-1
 416 1750 l 1,3,-1
 416 -166 l 1,4,-1
 260 -240 l 1,5,-1
 250 -240 l 1,0,-1
EndSplineSet
Validated: 3073
EndChar

StartChar: braceright
Encoding: 125 125 96
Width: 901
GlyphClass: 2
Flags: W
HStem: -240 170<126 290.903> 664 182<631 770> 1580 170<126 291.002>
VStem: 431 200<73.9209 664 846 1440.97>
CounterMasks: 1 e0
LayerCount: 2
Fore
SplineSet
50 -240 m 1,0,-1
 50 -230 l 1,1,-1
 126 -70 l 1,2,3
 271 -70 271 -70 357 30 c 0,4,5
 431 115 431 115 431 260 c 2,6,-1
 431 1250 l 2,7,8
 431 1398 431 1398 359 1480 c 0,9,10
 273 1580 273 1580 126 1580 c 1,11,-1
 50 1580 l 1,12,-1
 50 1590 l 1,13,-1
 126 1750 l 1,14,15
 354 1750 354 1750 496 1605 c 0,16,17
 631 1467 631 1467 631 1250 c 2,18,-1
 631 846 l 1,19,-1
 851 846 l 1,20,-1
 851 836 l 1,21,-1
 770 664 l 1,22,-1
 631 664 l 1,23,-1
 631 260 l 2,24,25
 631 43 631 43 496 -95 c 0,26,27
 354 -240 354 -240 126 -240 c 1,28,-1
 50 -240 l 1,0,-1
EndSplineSet
Validated: 1
EndChar

StartChar: asciitilde
Encoding: 126 126 97
Width: 1138
GlyphClass: 2
Flags: W
HStem: 583 177<648.531 800.75> 767 177<337.25 489.469>
VStem: 150 178<664 757.507> 810 178<769.493 863>
LayerCount: 2
Fore
SplineSet
150 583 m 1,0,1
 150 944 150 944 387 944 c 0,2,3
 521 944 521 944 610 843 c 0,4,5
 683 760 683 760 738 760 c 0,6,7
 810 760 810 760 810 863 c 1,8,-1
 978 944 l 1,9,-1
 988 944 l 1,10,11
 988 583 988 583 751 583 c 0,12,13
 617 583 617 583 528 684 c 0,14,15
 455 767 455 767 400 767 c 0,16,17
 328 767 328 767 328 664 c 1,18,-1
 160 583 l 1,19,-1
 150 583 l 1,0,1
EndSplineSet
Validated: 1
EndChar

StartChar: exclamdown
Encoding: 161 161 99
Width: 600
GlyphClass: 2
Flags: W
HStem: -40 21G<200 252.222> 1285 245<216.097 383.903>
VStem: 180 240<1322.13 1492.87> 200 200<50 1000>
LayerCount: 2
Fore
SplineSet
420 1407.5 m 128,-1,1
 420 1357 420 1357 385 1321 c 128,-1,2
 350 1285 350 1285 300 1285 c 128,-1,3
 250 1285 250 1285 215 1321 c 128,-1,4
 180 1357 180 1357 180 1407.5 c 128,-1,5
 180 1458 180 1458 215 1494 c 128,-1,6
 250 1530 250 1530 300 1530 c 128,-1,7
 350 1530 350 1530 385 1494 c 128,-1,0
 420 1458 420 1458 420 1407.5 c 128,-1,1
210 -40 m 1,8,-1
 200 -40 l 1,9,-1
 200 1000 l 1,10,-1
 390 1090 l 1,11,-1
 400 1090 l 1,12,-1
 400 50 l 1,13,-1
 210 -40 l 1,8,-1
EndSplineSet
Validated: 1
EndChar

StartChar: cent
Encoding: 162 162 100
Width: 1098
GlyphClass: 2
Flags: W
HStem: -17 175<623 695.509> 942 175<623 695.75>
VStem: 150 200<275.936 823.167> 507 116<-190 -9.40186 162 938 1109.63 1290>
LayerCount: 2
Fore
SplineSet
507 -240 m 1,0,-1
 507 -15 l 1,1,2
 332 15 332 15 222 211 c 0,3,4
 150 339 150 339 150 550 c 0,5,6
 150 756 150 756 222 889 c 0,7,8
 329 1086 329 1086 507 1115 c 1,9,-1
 507 1290 l 1,10,-1
 613 1340 l 1,11,-1
 623 1340 l 1,12,-1
 623 1117 l 1,13,14
 810 1093 810 1093 919 892 c 1,15,-1
 761 818 l 1,16,-1
 751 818 l 1,17,18
 701 918 701 918 623 942 c 1,19,-1
 623 158 l 1,20,21
 701 182 701 182 751 282 c 1,22,-1
 968 377 l 1,23,-1
 978 377 l 1,24,25
 960 282 960 282 921 211 c 0,26,27
 809 8 809 8 623 -17 c 1,28,-1
 623 -190 l 1,29,-1
 517 -240 l 1,30,-1
 507 -240 l 1,0,-1
507 162 m 1,31,-1
 507 938 l 1,32,33
 437 910 437 910 391 818 c 0,34,35
 350 736 350 736 350 550 c 128,-1,36
 350 364 350 364 391 282 c 1,37,38
 438 190 438 190 507 162 c 1,31,-1
EndSplineSet
Validated: 1
EndChar

StartChar: sterling
Encoding: 163 163 101
Width: 1279
GlyphClass: 2
Flags: W
HStem: 0 170<225 300 500 1054> 598 170<225 300 500 834> 1360 170<580.463 828.857>
VStem: 300 200<170 598 768 1267.49>
LayerCount: 2
Fore
SplineSet
150 0 m 1,0,-1
 150 10 l 1,1,-1
 225 170 l 1,2,-1
 300 170 l 1,3,-1
 300 598 l 1,4,-1
 150 598 l 1,5,-1
 150 608 l 1,6,-1
 225 768 l 1,7,-1
 300 768 l 1,8,-1
 300 1024 l 2,9,10
 300 1284 300 1284 436 1416 c 0,11,12
 553 1530 553 1530 715 1530 c 0,13,14
 939 1530 939 1530 1063 1302 c 1,15,-1
 905 1228 l 1,16,-1
 895 1228 l 1,17,18
 829 1360 829 1360 715 1360 c 24,19,20
 603 1359 603 1359 555 1287 c 0,21,22
 500 1203 500 1203 500 1024 c 2,23,-1
 500 768 l 1,24,-1
 909 768 l 1,25,-1
 909 758 l 1,26,-1
 834 598 l 1,27,-1
 500 598 l 1,28,-1
 500 170 l 1,29,-1
 1129 170 l 1,30,-1
 1129 160 l 1,31,-1
 1054 0 l 1,32,-1
 150 0 l 1,0,-1
EndSplineSet
Validated: 1
EndChar

StartChar: currency
Encoding: 164 164 102
Width: 1395
GlyphClass: 2
Flags: W
HStem: 246 180<533.895 858.821> 1068 180<534.443 863.7>
VStem: 192 200<566.6 926.3> 1002 200<567.577 924.229>
LayerCount: 2
Fore
SplineSet
1202 746 m 0,0,1
 1202 576 1202 576 1115 450 c 1,2,-1
 1245 320 l 1,3,-1
 1238 313 l 1,4,-1
 1059 249 l 1,5,-1
 985 322 l 1,6,7
 867 246 867 246 697 246 c 0,8,9
 521 246 521 246 400 329 c 1,10,-1
 336 265 l 1,11,-1
 157 329 l 1,12,-1
 150 336 l 1,13,-1
 273 459 l 1,14,15
 192 582 192 582 192 748 c 0,16,17
 192 918 192 918 279 1044 c 1,18,-1
 150 1174 l 1,19,-1
 157 1181 l 1,20,-1
 335 1245 l 1,21,-1
 409 1172 l 1,22,23
 527 1248 527 1248 697 1248 c 128,-1,24
 867 1248 867 1248 985 1172 c 1,25,-1
 1059 1245 l 1,26,-1
 1238 1181 l 1,27,-1
 1245 1174 l 1,28,-1
 1115 1044 l 1,29,30
 1202 918 1202 918 1202 746 c 0,0,1
697 426 m 0,31,32
 834 426 834 426 930 529 c 0,33,34
 1002 608 1002 608 1002 748 c 0,35,36
 1002 874 1002 874 930 965 c 0,37,38
 846 1068 846 1068 696 1068 c 0,39,40
 557 1068 557 1068 464 965 c 0,41,42
 392 885 392 885 392 748 c 0,43,44
 392 610 392 610 464 529 c 0,45,46
 556 426 556 426 697 426 c 0,31,32
EndSplineSet
Validated: 1
EndChar

StartChar: yen
Encoding: 165 165 103
Width: 1278
GlyphClass: 2
Flags: W
HStem: -40 21G<516 568.222> 430 182<262 484 753 1014> 760 182<262 336 633 696 911 1014> 1530 20G<232.831 293.816 1053.72 1115>
VStem: 516 200<50 430>
DStem2: 285 1550 100 1467 0.403273 -0.91508<1.34602 576.935 863.252 938.596> 664 690 753 612 0.431707 0.902014<0 76.9556 333.939 947.983>
LayerCount: 2
Fore
SplineSet
516 -40 m 1,0,-1
 516 430 l 1,1,-1
 181 430 l 1,2,-1
 181 440 l 1,3,-1
 262 612 l 1,4,-1
 484 612 l 1,5,-1
 417 760 l 1,6,-1
 181 760 l 1,7,-1
 181 770 l 1,8,-1
 262 942 l 1,9,-1
 336 942 l 1,10,-1
 100 1467 l 1,11,-1
 275 1550 l 1,12,-1
 285 1550 l 1,13,-1
 553 942 l 1,14,-1
 781 942 l 1,15,-1
 1063 1550 l 1,16,-1
 1073 1550 l 1,17,-1
 1178 1500 l 1,18,-1
 911 942 l 1,19,-1
 1095 942 l 1,20,-1
 1095 932 l 1,21,-1
 1014 760 l 1,22,-1
 824 760 l 1,23,-1
 753 612 l 1,24,-1
 1095 612 l 1,25,-1
 1095 602 l 1,26,-1
 1014 430 l 1,27,-1
 716 430 l 1,28,-1
 716 50 l 1,29,-1
 526 -40 l 1,30,-1
 516 -40 l 1,0,-1
696 760 m 1,31,-1
 633 760 l 1,32,-1
 664 690 l 1,33,-1
 696 760 l 1,31,-1
EndSplineSet
Validated: 3073
EndChar

StartChar: brokenbar
Encoding: 166 166 104
Width: 666
GlyphClass: 2
Flags: W
VStem: 250 166<-166 587 923 1676>
LayerCount: 2
Fore
SplineSet
250 -240 m 1,0,-1
 250 587 l 1,1,-1
 406 661 l 1,2,-1
 416 661 l 1,3,-1
 416 -166 l 1,4,-1
 260 -240 l 1,5,-1
 250 -240 l 1,0,-1
406 1750 m 1,6,-1
 416 1750 l 1,7,-1
 416 923 l 1,8,-1
 260 849 l 1,9,-1
 250 849 l 1,10,-1
 250 1676 l 1,11,-1
 406 1750 l 1,6,-1
EndSplineSet
Validated: 3073
EndChar

StartChar: section
Encoding: 167 167 105
Width: 1130
GlyphClass: 2
Flags: W
HStem: -20 170<448.224 639.143> 1360 170<490.857 681.776>
VStem: 150 196<640.268 895.363> 261 191<1146.84 1328.79> 678 191<181.212 363.164> 784 196<614.637 869.732>
LayerCount: 2
Fore
SplineSet
249 170 m 1,0,-1
 407 244 l 1,1,-1
 417 244 l 1,2,3
 462 150 462 150 535 150 c 0,4,5
 594 150 594 150 632 180 c 0,6,7
 678 216 678 216 678 279 c 0,8,9
 678 340 678 340 628 367 c 0,10,11
 577 395 577 395 472 416 c 0,12,13
 342 442 342 442 261 505 c 0,14,15
 150 591 150 591 150 760 c 0,16,17
 150 891 150 891 265 1008 c 9,18,-1
 395 878 l 17,19,20
 346 819 346 819 346 749 c 0,21,22
 346 676 346 676 398 633 c 0,23,24
 452 589 452 589 554 573 c 0,25,26
 684 552 684 552 761 497 c 0,27,28
 869 420 869 420 869 275 c 0,29,30
 869 136 869 136 742 45 c 0,31,32
 650 -20 650 -20 535 -20 c 0,33,34
 338 -20 338 -20 249 170 c 1,0,-1
881 1340 m 1,35,-1
 723 1266 l 1,36,-1
 713 1266 l 1,37,38
 668 1360 668 1360 595 1360 c 0,39,40
 536 1360 536 1360 498 1330 c 0,41,42
 452 1294 452 1294 452 1231 c 0,43,44
 452 1170 452 1170 502 1143 c 0,45,46
 553 1115 553 1115 658 1094 c 0,47,48
 788 1068 788 1068 869 1005 c 0,49,50
 980 919 980 919 980 750 c 0,51,52
 980 619 980 619 865 502 c 9,53,-1
 735 632 l 17,54,55
 784 691 784 691 784 761 c 0,56,57
 784 834 784 834 732 877 c 0,58,59
 678 921 678 921 576 937 c 0,60,61
 446 958 446 958 369 1013 c 0,62,63
 261 1090 261 1090 261 1235 c 0,64,65
 261 1374 261 1374 388 1465 c 0,66,67
 480 1530 480 1530 595 1530 c 0,68,69
 792 1530 792 1530 881 1340 c 1,35,-1
EndSplineSet
Validated: 1
EndChar

StartChar: dieresis
Encoding: 168 168 106
Width: 840
GlyphClass: 2
Flags: W
HStem: 1285 245<186.097 353.903 486.097 653.903>
VStem: 150 240<1322.13 1492.87> 450 240<1322.13 1492.87>
LayerCount: 2
Fore
SplineSet
450 1407.5 m 128,-1,1
 450 1458 450 1458 485 1494 c 128,-1,2
 520 1530 520 1530 570 1530 c 128,-1,3
 620 1530 620 1530 655 1494 c 128,-1,4
 690 1458 690 1458 690 1407.5 c 128,-1,5
 690 1357 690 1357 655 1321 c 128,-1,6
 620 1285 620 1285 570 1285 c 128,-1,7
 520 1285 520 1285 485 1321 c 128,-1,0
 450 1357 450 1357 450 1407.5 c 128,-1,1
150 1407.5 m 128,-1,9
 150 1458 150 1458 185 1494 c 128,-1,10
 220 1530 220 1530 270 1530 c 128,-1,11
 320 1530 320 1530 355 1494 c 128,-1,12
 390 1458 390 1458 390 1407.5 c 128,-1,13
 390 1357 390 1357 355 1321 c 128,-1,14
 320 1285 320 1285 270 1285 c 128,-1,15
 220 1285 220 1285 185 1321 c 128,-1,8
 150 1357 150 1357 150 1407.5 c 128,-1,9
EndSplineSet
Validated: 1
EndChar

StartChar: copyright
Encoding: 169 169 107
Width: 1401
GlyphClass: 2
Flags: W
HStem: 180 79<514.499 887.229> 342 136<613.543 796.226> 1032 134<613.432 797.85> 1251 80<511.931 889.969>
VStem: 150 74<566.018 943.982> 399 150<548.764 959.908> 1176 75<560.265 949.908>
LayerCount: 2
Fore
SplineSet
999 632 m 1,0,1
 988 563 988 563 960 506 c 0,2,3
 879 342 879 342 705 342 c 0,4,5
 541 342 541 342 450 510 c 0,6,7
 399 605 399 605 399 755 c 0,8,9
 399 907 399 907 450 1000 c 0,10,11
 540 1166 540 1166 705 1166 c 0,12,13
 880 1166 880 1166 972 977 c 1,14,15
 863 924 l 1,16,-1
 837 924 l 1,17,18
 790 1032 790 1032 709 1032 c 128,-1,19
 628 1032 628 1032 580 938 c 0,20,21
 549 876 549 876 549 755 c 0,22,23
 549 633 549 633 580 572 c 0,24,25
 628 478 628 478 707 478 c 0,26,27
 781 478 781 478 830 572 c 1,28,-1
 958 632 l 1,29,-1
 999 632 l 1,0,1
701 1331 m 0,30,31
 811 1331 811 1331 911 1288 c 0,32,33
 1007 1247 1007 1247 1090 1161 c 0,34,35
 1170 1078 1170 1078 1211 975 c 0,36,37
 1251 874 1251 874 1251 754 c 0,38,39
 1251 638 1251 638 1211 535 c 0,40,41
 1173 437 1173 437 1090 350 c 0,42,43
 1011 267 1011 267 911 223 c 0,44,45
 813 180 813 180 701 180 c 0,46,47
 590 180 590 180 490 223 c 0,48,49
 394 264 394 264 311 350 c 0,50,51
 230 434 230 434 190 535 c 128,-1,52
 150 636 150 636 150 754 c 0,53,54
 150 873 150 873 190 975 c 128,-1,55
 230 1077 230 1077 311 1161 c 0,56,57
 392 1246 392 1246 490 1288.5 c 128,-1,58
 588 1331 588 1331 701 1331 c 0,30,31
701 1251 m 0,59,60
 603 1251 603 1251 520 1215 c 128,-1,61
 437 1179 437 1179 366 1105 c 0,62,63
 296 1032 296 1032 260 944 c 128,-1,64
 224 856 224 856 224 759 c 2,65,-1
 224 754 l 2,66,67
 224 655 224 655 260 566 c 0,68,69
 294 483 294 483 366 406 c 0,70,71
 436 332 436 332 519 296 c 0,72,73
 604 259 604 259 701 259 c 128,-1,74
 798 259 798 259 883 296 c 0,75,76
 966 332 966 332 1037 406 c 0,77,78
 1106 478 1106 478 1141 565 c 128,-1,79
 1176 652 1176 652 1176 754 c 0,80,81
 1176 857 1176 857 1141 945 c 0,82,83
 1107 1031 1107 1031 1037 1105 c 0,84,85
 968 1178 968 1178 883 1215 c 0,86,87
 798 1251 798 1251 701 1251 c 0,59,60
EndSplineSet
Validated: 1
EndChar

StartChar: ordfeminine
Encoding: 170 170 108
Width: 955
GlyphClass: 2
Flags: W
HStem: 664 182<231 724> 920 125<409.455 543.509> 1215 125<409.382 541.98> 1405 125<380 535.916>
VStem: 256 138<1062.04 1198.26> 560 142<1071.69 1189.19>
LayerCount: 2
Fore
SplineSet
562 910 m 1,0,-1
 562 950 l 1,1,2
 523 920 523 920 474 920 c 0,3,4
 371 920 371 920 314 982 c 0,5,6
 256 1046 256 1046 256 1130 c 0,7,8
 256 1218 256 1218 319 1280 c 0,9,10
 379 1340 379 1340 474 1340 c 0,11,12
 516 1340 516 1340 552 1317 c 1,13,14
 547 1342 547 1342 543 1350 c 0,15,16
 517 1405 517 1405 471 1405 c 2,17,-1
 334 1405 l 1,18,-1
 334 1435 l 1,19,-1
 380 1530 l 1,20,-1
 471 1530 l 2,21,22
 594 1530 594 1530 663 1404 c 0,23,24
 702 1333 702 1333 702 1225 c 2,25,-1
 702 962 l 1,26,-1
 591 910 l 1,27,-1
 562 910 l 1,0,-1
394 1131 m 0,28,29
 394 1094 394 1094 415 1070 c 0,30,31
 437 1045 437 1045 475 1045 c 0,32,33
 511 1045 511 1045 537 1071 c 0,34,35
 560 1093 560 1093 560 1129 c 0,36,37
 560 1164 560 1164 535 1190 c 0,38,39
 510 1215 510 1215 475 1215 c 0,40,41
 437 1215 437 1215 415.5 1190.5 c 128,-1,42
 394 1166 394 1166 394 1131 c 0,28,29
150 664 m 1,43,-1
 150 674 l 1,44,-1
 231 846 l 1,45,-1
 805 846 l 1,46,-1
 805 836 l 1,47,-1
 724 664 l 1,48,-1
 150 664 l 1,43,-1
EndSplineSet
Validated: 1
EndChar

StartChar: guillemotleft
Encoding: 171 171 109
Width: 1208
GlyphClass: 2
Flags: W
DStem2: 150 792 381 795 0.506484 0.862249<119.585 570.601> 381 795 150 792 0.509561 -0.860435<0 452.028> 535 792 766 795 0.506484 0.862249<119.585 570.601> 766 795 535 792 0.509561 -0.860435<0 452.028>
LayerCount: 2
Fore
SplineSet
824 304 m 1,0,-1
 535 792 l 1,1,-1
 824 1284 l 1,2,-1
 834 1284 l 1,3,-1
 1008 1202 l 1,4,-1
 766 795 l 1,5,-1
 1008 386 l 1,6,-1
 834 304 l 1,7,-1
 824 304 l 1,0,-1
439 304 m 1,8,-1
 150 792 l 1,9,-1
 439 1284 l 1,10,-1
 449 1284 l 1,11,-1
 623 1202 l 1,12,-1
 381 795 l 1,13,-1
 623 386 l 1,14,-1
 449 304 l 1,15,-1
 439 304 l 1,8,-1
EndSplineSet
Validated: 1
EndChar

StartChar: logicalnot
Encoding: 172 172 110
Width: 1214
GlyphClass: 2
Flags: W
HStem: 664 182<231 784>
LayerCount: 2
Fore
SplineSet
642 402 m 1,0,-1
 784 664 l 1,1,-1
 150 664 l 1,2,-1
 150 674 l 1,3,-1
 231 846 l 1,4,-1
 1064 846 l 1,5,-1
 1064 836 l 1,6,-1
 857 402 l 1,7,-1
 642 402 l 1,0,-1
EndSplineSet
Validated: 1
EndChar

StartChar: uni00AD
Encoding: 173 173 111
Width: 1214
GlyphClass: 2
Flags: W
HStem: 664 182<231 983>
LayerCount: 2
Fore
SplineSet
150 664 m 1,0,-1
 150 674 l 1,1,-1
 231 846 l 1,2,-1
 1064 846 l 1,3,-1
 1064 836 l 1,4,-1
 983 664 l 1,5,-1
 150 664 l 1,0,-1
EndSplineSet
Validated: 3073
EndChar

StartChar: registered
Encoding: 174 174 112
Width: 1401
GlyphClass: 2
Flags: W
HStem: 180 79<514.592 887.353> 596 135<564 698> 1026 135<633.132 811.467> 1251 80<511.834 889.969>
VStem: 150 74<566.018 943.982> 414 150<380 596 731 946.751> 851 150<767.608 987.054> 1176 75<560.265 949.908>
DStem2: 856 632 698 596 0.573462 -0.819232<0 268.462>
LayerCount: 2
Fore
SplineSet
701 1331 m 0,0,1
 811 1331 811 1331 911 1288 c 0,2,3
 1007 1247 1007 1247 1090 1161 c 0,4,5
 1170 1078 1170 1078 1211 975 c 0,6,7
 1251 874 1251 874 1251 754 c 0,8,9
 1251 638 1251 638 1211 535 c 0,10,11
 1173 437 1173 437 1090 350 c 0,12,13
 1011 267 1011 267 911 223 c 0,14,15
 813 180 813 180 701 180 c 0,16,17
 590 180 590 180 490 223 c 0,18,19
 394 264 394 264 311 350 c 0,20,21
 230 434 230 434 190 535 c 128,-1,22
 150 636 150 636 150 754 c 0,23,24
 150 874 150 874 190 975 c 128,-1,25
 230 1076 230 1076 311 1161 c 0,26,27
 391 1245 391 1245 490 1288 c 0,28,29
 587 1331 587 1331 701 1331 c 0,0,1
701 1251 m 0,30,31
 603 1251 603 1251 520 1215 c 128,-1,32
 437 1179 437 1179 366 1105 c 0,33,34
 296 1032 296 1032 260 944 c 128,-1,35
 224 856 224 856 224 759 c 2,36,-1
 224 754 l 2,37,38
 224 654 224 654 260 566 c 0,39,40
 293 485 293 485 366 406 c 0,41,42
 389 381 389 381 414 361 c 1,43,-1
 414 748 l 2,44,45
 414 900 414 900 465 994 c 0,46,47
 556 1161 556 1161 720 1161 c 0,48,49
 856 1161 856 1161 936 1059 c 0,50,51
 1001 976 1001 976 1001 874 c 0,52,53
 1001 777 1001 777 935 697 c 0,54,55
 902 657 902 657 856 632 c 1,56,-1
 1024 392 l 1,57,-1
 1037 406 l 1,58,59
 1106 478 1106 478 1141 565 c 128,-1,60
 1176 652 1176 652 1176 754 c 0,61,62
 1176 857 1176 857 1141 945 c 0,63,64
 1107 1031 1107 1031 1037 1105 c 0,65,66
 968 1178 968 1178 883 1215 c 0,67,68
 798 1251 798 1251 701 1251 c 0,30,31
564 748 m 2,69,-1
 564 731 l 1,70,-1
 695 731 l 2,71,72
 777 731 777 731 811 769 c 0,73,74
 851 814 851 814 851 874 c 0,75,76
 851 945 851 945 810 987 c 0,77,78
 772 1026 772 1026 720 1026 c 0,79,80
 647 1026 647 1026 598 930 c 0,81,82
 564 863 564 863 564 748 c 2,69,-1
457 329 m 1,83,84
 487 310 487 310 519 296 c 0,85,86
 604 259 604 259 701 259 c 0,87,88
 797 259 797 259 883 296 c 0,89,90
 941 321 941 321 993 365 c 1,91,-1
 911 326 l 1,92,-1
 887 326 l 1,93,-1
 698 596 l 1,94,-1
 564 596 l 1,95,-1
 564 380 l 1,96,-1
 457 329 l 1,83,84
EndSplineSet
Validated: 1
EndChar

StartChar: macron
Encoding: 175 175 113
Width: 1214
GlyphClass: 2
Flags: W
HStem: 1328 182<231 983>
LayerCount: 2
Fore
SplineSet
150 1328 m 1,0,-1
 150 1338 l 1,1,-1
 231 1510 l 1,2,-1
 1064 1510 l 1,3,-1
 1064 1500 l 1,4,-1
 983 1328 l 1,5,-1
 150 1328 l 1,0,-1
EndSplineSet
Validated: 3073
EndChar

StartChar: degree
Encoding: 176 176 114
Width: 1038
GlyphClass: 2
Flags: W
HStem: 730 147<412.81 627.922> 1383 147<412.738 627.832>
VStem: 150 196<948.787 1311.57> 691 197<945.151 1312.17>
LayerCount: 2
Fore
SplineSet
691 1130 m 0,0,1
 691 1259 691 1259 635 1330 c 0,2,3
 593 1383 593 1383 519 1383 c 0,4,5
 449 1383 449 1383 404 1330 c 0,6,7
 346 1262 346 1262 346 1130 c 0,8,9
 346 996 346 996 404 930 c 0,10,11
 450 877 450 877 519 877 c 0,12,13
 591 877 591 877 635 930 c 0,14,15
 691 997 691 997 691 1130 c 0,0,1
150 1133 m 0,16,17
 150 1304 150 1304 268 1430 c 0,18,19
 362 1530 362 1530 519 1530 c 0,20,21
 675 1530 675 1530 770 1430 c 0,22,23
 888 1304 888 1304 888 1130 c 128,-1,24
 888 956 888 956 770 830 c 0,25,26
 676 730 676 730 519 730 c 128,-1,27
 362 730 362 730 268 830 c 0,28,29
 150 956 150 956 150 1133 c 0,16,17
EndSplineSet
Validated: 1
EndChar

StartChar: plusminus
Encoding: 177 177 115
Width: 1214
GlyphClass: 2
Flags: W
HStem: 243 182<231 983> 835 182<231 516 698 983>
VStem: 516 182<550 835 1017 1302>
LayerCount: 2
Fore
SplineSet
150 243 m 1,0,-1
 150 253 l 1,1,-1
 231 425 l 1,2,-1
 1064 425 l 1,3,-1
 1064 415 l 1,4,-1
 983 243 l 1,5,-1
 150 243 l 1,0,-1
698 1383 m 1,6,-1
 698 1017 l 1,7,-1
 1064 1017 l 1,8,-1
 1064 1007 l 1,9,-1
 983 835 l 1,10,-1
 698 835 l 1,11,-1
 698 550 l 1,12,-1
 526 469 l 1,13,-1
 516 469 l 1,14,-1
 516 835 l 1,15,-1
 150 835 l 1,16,-1
 150 845 l 1,17,-1
 231 1017 l 1,18,-1
 516 1017 l 1,19,-1
 516 1302 l 1,20,-1
 688 1383 l 1,21,-1
 698 1383 l 1,6,-1
EndSplineSet
Validated: 3073
EndChar

StartChar: uni00B2
Encoding: 178 178 116
Width: 860
GlyphClass: 2
Flags: W
HStem: 730 135<290.235 576.548> 1395 135<321.813 508.396>
VStem: 150 140<824 940.163> 532 152<1194.78 1364.17>
LayerCount: 2
Fore
SplineSet
297 730 m 2,0,1
 224 730 224 730 187 762 c 128,-1,2
 150 794 150 794 150 854 c 0,3,4
 150 1035 150 1035 402 1144 c 0,5,6
 532 1200 532 1200 532 1270 c 0,7,8
 532 1324 532 1324 507 1356 c 0,9,10
 474 1395 474 1395 413 1395 c 0,11,12
 337 1395 337 1395 288 1301 c 1,13,-1
 262 1301 l 1,14,-1
 152 1353 l 1,15,16
 251 1530 251 1530 413 1530 c 0,17,18
 546 1530 546 1530 617 1449 c 0,19,20
 684 1373 684 1373 684 1264 c 0,21,22
 684 1122 684 1122 478 1025 c 0,23,24
 372 975 372 975 332 938 c 0,25,26
 290 899 290 899 290 874 c 0,27,28
 290 865 290 865 297 865 c 2,29,-1
 527 865 l 2,30,31
 567 865 567 865 581 924 c 1,32,-1
 611 924 l 1,33,-1
 710 877 l 1,34,35
 673 730 673 730 527 730 c 2,36,-1
 297 730 l 2,0,1
EndSplineSet
Validated: 1
EndChar

StartChar: uni00B3
Encoding: 179 179 117
Width: 845
GlyphClass: 2
Flags: W
HStem: 712 133<324.308 512.803> 1375 135<273 468>
VStem: 545 150<881.455 1054.55>
LayerCount: 2
Fore
SplineSet
150 900 m 1,0,-1
 260 953 l 1,1,-1
 286 953 l 1,2,3
 332 845 332 845 418 845 c 0,4,5
 476 845 476 845 513 887 c 0,6,7
 545 924 545 924 545 980 c 0,8,9
 545 1020 545 1020 518 1049 c 0,10,11
 489 1080 489 1080 406 1080 c 1,12,-1
 325 1158 l 1,13,-1
 468 1375 l 1,14,-1
 226 1375 l 1,15,-1
 226 1411 l 1,16,-1
 273 1510 l 1,17,-1
 521 1510 l 2,18,19
 635 1510 635 1510 635 1416 c 0,20,21
 635 1369 635 1369 586 1300 c 1,22,-1
 515 1204 l 1,23,24
 570 1192 570 1192 617 1151 c 0,25,26
 695 1083 695 1083 695 981 c 0,27,28
 695 864 695 864 621 790 c 0,29,30
 543 712 543 712 414 712 c 0,31,32
 244 712 244 712 150 900 c 1,0,-1
EndSplineSet
Validated: 1
EndChar

StartChar: acute
Encoding: 180 180 118
Width: 648
GlyphClass: 2
Flags: W
HStem: 1150 400
VStem: 150 348
LayerCount: 2
Fore
SplineSet
312 1550 m 1,0,-1
 322 1550 l 1,1,-1
 498 1466 l 1,2,-1
 277 1150 l 1,3,-1
 267 1150 l 1,4,-1
 150 1205 l 1,5,-1
 312 1550 l 1,0,-1
EndSplineSet
Validated: 3073
EndChar

StartChar: uni00B5
Encoding: 181 181 119
Width: 1203
GlyphClass: 2
Flags: W
HStem: -450 21G<180 232.222> -20 170<486.354 715.927> 1120 20G<425 531.067 970.778 1023>
VStem: 180 200<-360 54 277.907 821.167> 823 200<277.907 1050>
LayerCount: 2
Fore
SplineSet
180 -450 m 1,0,-1
 180 550 l 2,1,2
 180 738 180 738 252 889 c 24,3,4
 339 1072 339 1072 511 1140 c 1,5,-1
 521 1140 l 1,6,-1
 596 991 l 1,7,8
 475 948 475 948 422 818 c 0,9,10
 380 714 380 714 380 550 c 0,11,12
 380 365 380 365 422 282 c 0,13,14
 488 150 488 150 602 150 c 128,-1,15
 716 150 716 150 782 282 c 0,16,17
 823 365 823 365 823 550 c 2,18,-1
 823 1050 l 1,19,-1
 1013 1140 l 1,20,-1
 1023 1140 l 1,21,-1
 1023 550 l 2,22,23
 1023 341 1023 341 952 211 c 0,24,25
 826 -20 826 -20 602 -20 c 0,26,27
 475 -20 475 -20 380 54 c 1,28,-1
 380 -360 l 1,29,-1
 190 -450 l 1,30,-1
 180 -450 l 1,0,-1
EndSplineSet
Validated: 1
EndChar

StartChar: paragraph
Encoding: 182 182 120
Width: 1180
GlyphClass: 2
Flags: W
HStem: -40 21G<780 832.857>
VStem: 150 700<810.367 1135.9> 780 70<-12 604> 914 66<50 1130.89>
LayerCount: 2
Fore
SplineSet
780 -40 m 1,0,-1
 780 604 l 1,1,2
 680 554 680 554 565 554 c 0,3,4
 407 554 407 554 292 669 c 0,5,6
 150 810 150 810 150 1045 c 0,7,8
 150 1278 150 1278 293 1420 c 0,9,10
 405 1530 405 1530 565 1530 c 0,11,12
 731 1530 731 1530 839 1424 c 0,13,14
 980 1281 980 1281 980 1046 c 2,15,-1
 980 50 l 1,16,-1
 914 19 l 1,17,-1
 914 1137 l 1,18,-1
 850 1137 l 1,19,-1
 850 -12 l 1,20,-1
 790 -40 l 1,21,-1
 780 -40 l 1,0,-1
EndSplineSet
Validated: 1
EndChar

StartChar: periodcentered
Encoding: 183 183 121
Width: 600
GlyphClass: 2
Flags: W
HStem: 631 245<216.097 383.903>
VStem: 180 240<668.129 838.871>
LayerCount: 2
Fore
SplineSet
180 753.5 m 132,-1,1
 180 804 180 804 215 840 c 132,-1,2
 250 876 250 876 300 876 c 132,-1,3
 350 876 350 876 385 840 c 132,-1,4
 420 804 420 804 420 753.5 c 132,-1,5
 420 703 420 703 385 667 c 132,-1,6
 350 631 350 631 300 631 c 132,-1,7
 250 631 250 631 215 667 c 132,-1,0
 180 703 180 703 180 753.5 c 132,-1,1
EndSplineSet
Validated: 1
EndChar

StartChar: cedilla
Encoding: 184 184 122
Width: 609
GlyphClass: 2
Flags: W
HStem: -286 564
VStem: 284 175<-116.616 108.943>
LayerCount: 2
Fore
SplineSet
214 278 m 1,0,1
 459 149 459 149 459 -42 c 0,2,3
 459 -179 459 -179 350 -286 c 1,4,-1
 340 -286 l 1,5,-1
 150 -196 l 1,6,7
 284 -109 284 -109 284 12 c 0,8,9
 284 113 284 113 171 228 c 1,10,-1
 214 278 l 1,0,1
EndSplineSet
Validated: 1
EndChar

StartChar: uni00B9
Encoding: 185 185 123
Width: 672
GlyphClass: 2
Flags: W
HStem: 1530 20G<263.357 322>
VStem: 272 150<764 1376>
LayerCount: 2
Fore
SplineSet
272 710 m 1,0,-1
 272 1376 l 1,1,-1
 150 1268 l 1,2,-1
 150 1438 l 1,3,-1
 288 1550 l 1,4,5
 356 1550 356 1550 389 1518 c 128,-1,6
 422 1486 422 1486 422 1432 c 2,7,-1
 422 764 l 1,8,-1
 308 710 l 1,9,-1
 272 710 l 1,0,-1
EndSplineSet
Validated: 1
EndChar

StartChar: ordmasculine
Encoding: 186 186 124
Width: 955
GlyphClass: 2
Flags: W
HStem: 664 182<231 724> 920 125<413.144 543.3> 1405 125<412.067 543.599>
VStem: 247 141<1082.71 1368.93> 569 140<1082.76 1367.11>
LayerCount: 2
Fore
SplineSet
388 1225 m 0,0,1
 388 1137 388 1137 406 1100 c 0,2,3
 434 1045 434 1045 478 1045 c 128,-1,4
 522 1045 522 1045 550 1100 c 0,5,6
 569 1138 569 1138 569 1225 c 0,7,8
 569 1311 569 1311 550 1350 c 0,9,10
 523 1405 523 1405 478 1405 c 0,11,12
 432 1405 432 1405 406 1351 c 0,13,14
 388 1314 388 1314 388 1225 c 0,0,1
247 1225 m 0,15,16
 247 1333 247 1333 286 1404 c 0,17,18
 355 1530 355 1530 478 1530 c 0,19,20
 602 1530 602 1530 670 1404 c 0,21,22
 709 1332 709 1332 709 1225 c 0,23,24
 709 1117 709 1117 670 1046 c 0,25,26
 601 920 601 920 478 920 c 0,27,28
 357 920 357 920 287 1044 c 0,29,30
 247 1113 247 1113 247 1225 c 0,15,16
150 664 m 1,31,-1
 150 674 l 1,32,-1
 231 846 l 1,33,-1
 805 846 l 1,34,-1
 805 836 l 1,35,-1
 724 664 l 1,36,-1
 150 664 l 1,31,-1
EndSplineSet
Validated: 1
EndChar

StartChar: guillemotright
Encoding: 187 187 125
Width: 1208
GlyphClass: 2
Flags: W
DStem2: 384 1284 200 1202 0.506484 -0.862249<0 451.016> 200 386 384 304 0.509561 0.860435<23.2035 475.231> 769 1284 585 1202 0.506484 -0.862249<0 451.016> 585 386 769 304 0.509561 0.860435<23.2035 475.231>
LayerCount: 2
Fore
SplineSet
384 304 m 1,0,-1
 374 304 l 1,1,-1
 200 386 l 1,2,-1
 442 795 l 1,3,-1
 200 1202 l 1,4,-1
 374 1284 l 1,5,-1
 384 1284 l 1,6,-1
 673 792 l 1,7,-1
 384 304 l 1,0,-1
769 304 m 1,8,-1
 759 304 l 1,9,-1
 585 386 l 1,10,-1
 827 795 l 1,11,-1
 585 1202 l 1,12,-1
 759 1284 l 1,13,-1
 769 1284 l 1,14,-1
 1058 792 l 1,15,-1
 769 304 l 1,8,-1
EndSplineSet
Validated: 1
EndChar

StartChar: onequarter
Encoding: 188 188 126
Width: 1470
GlyphClass: 2
Flags: W
HStem: -40 21G<310.529 371.317 1044 1122.22> 159 135<864 1044 1194 1233> 1530 20G<263.357 322 910.683 971.471>
VStem: 272 150<764 1376> 1044 150<14 159 294 556>
DStem2: 211 28 362 -40 0.422266 0.906472<2.12205 1679.04> 731 340 864 294 0.575846 0.817559<38.9798 356.832>
LayerCount: 2
Fore
SplineSet
272 710 m 1,0,-1
 272 1376 l 1,1,-1
 150 1268 l 1,2,-1
 150 1438 l 1,3,-1
 288 1550 l 1,4,5
 356 1550 356 1550 389 1518 c 128,-1,6
 422 1486 422 1486 422 1432 c 2,7,-1
 422 764 l 1,8,-1
 308 710 l 1,9,-1
 272 710 l 1,0,-1
1044 -40 m 1,10,-1
 1044 159 l 1,11,-1
 823 159 l 2,12,13
 702 159 702 159 702 252 c 0,14,15
 702 298 702 298 731 340 c 2,16,-1
 1055 800 l 1,17,18
 1126 800 1126 800 1160 767.5 c 128,-1,19
 1194 735 1194 735 1194 682 c 2,20,-1
 1194 294 l 1,21,-1
 1280 294 l 1,22,-1
 1280 258 l 1,23,-1
 1233 159 l 1,24,-1
 1194 159 l 1,25,-1
 1194 14 l 1,26,-1
 1080 -40 l 1,27,-1
 1044 -40 l 1,10,-1
1044 294 m 1,28,-1
 1044 556 l 1,29,-1
 864 294 l 1,30,-1
 1044 294 l 1,28,-1
352 -40 m 1,31,-1
 211 28 l 1,32,-1
 920 1550 l 1,33,-1
 930 1550 l 1,34,-1
 1071 1482 l 1,35,-1
 362 -40 l 1,36,-1
 352 -40 l 1,31,-1
EndSplineSet
Validated: 1
EndChar

StartChar: onehalf
Encoding: 189 189 127
Width: 1553
GlyphClass: 2
Flags: W
HStem: -40 21G<310.529 371.317> 0 135<933.235 1219.55> 665 135<964.813 1151.4> 1530 20G<263.357 322 910.683 971.471>
VStem: 272 150<764 1376> 793 140<94 210.163> 1175 152<464.777 634.172>
DStem2: 211 28 362 -40 0.422266 0.906472<2.12205 1679.04>
LayerCount: 2
Fore
SplineSet
940 0 m 2,0,1
 867 0 867 0 830 32 c 128,-1,2
 793 64 793 64 793 124 c 0,3,4
 793 305 793 305 1045 414 c 0,5,6
 1175 470 1175 470 1175 540 c 0,7,8
 1175 594 1175 594 1150 626 c 0,9,10
 1117 665 1117 665 1056 665 c 0,11,12
 980 665 980 665 931 571 c 1,13,-1
 905 571 l 1,14,-1
 795 623 l 1,15,16
 894 800 894 800 1056 800 c 0,17,18
 1189 800 1189 800 1260 719 c 0,19,20
 1327 643 1327 643 1327 534 c 0,21,22
 1327 392 1327 392 1121 295 c 0,23,24
 1015 245 1015 245 975 208 c 0,25,26
 933 169 933 169 933 144 c 0,27,28
 933 135 933 135 940 135 c 2,29,-1
 1170 135 l 2,30,31
 1210 135 1210 135 1224 194 c 1,32,-1
 1254 194 l 1,33,-1
 1353 147 l 1,34,35
 1316 0 1316 0 1170 0 c 2,36,-1
 940 0 l 2,0,1
272 710 m 1,37,-1
 272 1376 l 1,38,-1
 150 1268 l 1,39,-1
 150 1438 l 1,40,-1
 288 1550 l 1,41,42
 356 1550 356 1550 389 1518 c 128,-1,43
 422 1486 422 1486 422 1432 c 2,44,-1
 422 764 l 1,45,-1
 308 710 l 1,46,-1
 272 710 l 1,37,-1
352 -40 m 1,47,-1
 211 28 l 1,48,-1
 920 1550 l 1,49,-1
 930 1550 l 1,50,-1
 1071 1482 l 1,51,-1
 362 -40 l 1,52,-1
 352 -40 l 1,47,-1
EndSplineSet
Validated: 1
EndChar

StartChar: threequarters
Encoding: 190 190 128
Width: 1666
GlyphClass: 2
Flags: W
HStem: -40 21G<506.529 567.317 1240 1318.22> 159 135<1060 1240 1390 1429> 712 133<324.308 512.803> 1375 135<273 468> 1530 20G<1106.68 1167.47>
VStem: 545 150<881.455 1054.55> 1240 150<14 159 294 556>
DStem2: 407 28 558 -40 0.422266 0.906472<2.12205 1679.04> 927 340 1060 294 0.575846 0.817559<38.9798 356.832>
LayerCount: 2
Fore
SplineSet
1240 -40 m 1,0,-1
 1240 159 l 1,1,-1
 1019 159 l 2,2,3
 898 159 898 159 898 252 c 0,4,5
 898 298 898 298 927 340 c 2,6,-1
 1251 800 l 1,7,8
 1322 800 1322 800 1356 767.5 c 128,-1,9
 1390 735 1390 735 1390 682 c 2,10,-1
 1390 294 l 1,11,-1
 1476 294 l 1,12,-1
 1476 258 l 1,13,-1
 1429 159 l 1,14,-1
 1390 159 l 1,15,-1
 1390 14 l 1,16,-1
 1276 -40 l 1,17,-1
 1240 -40 l 1,0,-1
1240 294 m 1,18,-1
 1240 556 l 1,19,-1
 1060 294 l 1,20,-1
 1240 294 l 1,18,-1
150 900 m 1,21,-1
 260 953 l 1,22,-1
 286 953 l 1,23,24
 332 845 332 845 418 845 c 0,25,26
 476 845 476 845 513 887 c 0,27,28
 545 924 545 924 545 980 c 0,29,30
 545 1020 545 1020 518 1049 c 0,31,32
 489 1080 489 1080 406 1080 c 1,33,-1
 325 1158 l 1,34,-1
 468 1375 l 1,35,-1
 226 1375 l 1,36,-1
 226 1411 l 1,37,-1
 273 1510 l 1,38,-1
 521 1510 l 2,39,40
 635 1510 635 1510 635 1416 c 0,41,42
 635 1369 635 1369 586 1300 c 1,43,-1
 515 1204 l 1,44,45
 570 1192 570 1192 617 1151 c 0,46,47
 695 1083 695 1083 695 981 c 0,48,49
 695 864 695 864 621 790 c 0,50,51
 543 712 543 712 414 712 c 0,52,53
 244 712 244 712 150 900 c 1,21,-1
548 -40 m 1,54,-1
 407 28 l 1,55,-1
 1116 1550 l 1,56,-1
 1126 1550 l 1,57,-1
 1267 1482 l 1,58,-1
 558 -40 l 1,59,-1
 548 -40 l 1,54,-1
EndSplineSet
Validated: 1
EndChar

StartChar: questiondown
Encoding: 191 191 129
Width: 1228
GlyphClass: 2
Flags: W
HStem: -20 170<477.207 792.1> 1285 245<571.097 738.903>
VStem: 150 198<277.135 612.683> 535 240<1322.13 1492.87> 569 203<936.479 1056>
LayerCount: 2
Fore
SplineSet
1108 288 m 1,0,1
 940 -20 940 -20 642 -20 c 0,2,3
 403 -20 403 -20 272 125 c 0,4,5
 150 261 150 261 150 462 c 0,6,7
 150 758 150 758 495 917 c 0,8,9
 569 950 569 950 569 1056 c 1,10,-1
 762 1149 l 1,11,-1
 772 1149 l 1,12,13
 772 879 772 879 597 788 c 0,14,15
 348 659 348 659 348 461 c 0,16,17
 348 323 348 323 415 246 c 0,18,19
 499 150 499 150 642 150 c 24,20,21
 825 150 825 150 936 366 c 1,22,-1
 946 366 l 1,23,-1
 1108 288 l 1,0,1
775 1407.5 m 128,-1,25
 775 1357 775 1357 740 1321 c 128,-1,26
 705 1285 705 1285 655 1285 c 128,-1,27
 605 1285 605 1285 570 1321 c 128,-1,28
 535 1357 535 1357 535 1407.5 c 128,-1,29
 535 1458 535 1458 570 1494 c 128,-1,30
 605 1530 605 1530 655 1530 c 128,-1,31
 705 1530 705 1530 740 1494 c 128,-1,24
 775 1458 775 1458 775 1407.5 c 128,-1,25
EndSplineSet
Validated: 1
EndChar

StartChar: Delta
Encoding: 916 916 130
Width: 1138
GlyphClass: 2
Flags: W
HStem: 0 170<243 892> 1530 20G<596.805 655.565>
DStem2: 123 435 243 170 0.29947 0.954106<-214.776 878.365> 649 1550 571 1215 0.311879 -0.950122<293.964 1382.84>
LayerCount: 2
Fore
SplineSet
243 0 m 2,0,1
 50 0 50 0 50 134 c 0,2,3
 50 228 50 228 123 435 c 1,4,-1
 466 1468 l 1,5,-1
 639 1550 l 1,6,-1
 649 1550 l 1,7,-1
 1015 435 l 1,8,9
 1088 230 1088 230 1088 134 c 0,10,11
 1088 0 1088 0 895 0 c 2,12,-1
 243 0 l 2,0,1
243 170 m 9,13,-1
 892 170 l 17,14,-1
 571 1215 l 1,15,-1
 243 170 l 9,13,-1
EndSplineSet
Validated: 1
EndChar

StartChar: Pi
Encoding: 928 928 131
Width: 1390
GlyphClass: 2
Flags: W
HStem: -40 21G<200 252.222 990 1042.22> 1340 170<405.322 984.678>
VStem: 200 200<50 1334.24> 990 200<50 1334.24>
LayerCount: 2
Fore
SplineSet
200 -40 m 1,0,-1
 200 1296 l 2,1,2
 200 1510 200 1510 450 1510 c 2,3,-1
 940 1510 l 2,4,5
 1190 1510 1190 1510 1190 1296 c 2,6,-1
 1190 50 l 1,7,-1
 1000 -40 l 1,8,-1
 990 -40 l 1,9,-1
 990 1296 l 2,10,11
 990 1340 990 1340 940 1340 c 2,12,-1
 450 1340 l 2,13,14
 400 1340 400 1340 400 1296 c 2,15,-1
 400 50 l 1,16,-1
 210 -40 l 1,17,-1
 200 -40 l 1,0,-1
EndSplineSet
Validated: 1
EndChar

StartChar: Sigma
Encoding: 931 931 132
Width: 1168
GlyphClass: 2
Flags: W
HStem: 0 170<343 921.135> 1340 170<374 867>
DStem2: 374 1340 293 1148 0.616346 -0.787476<3.2034 575.76> 585 774 817 774 0.617361 0.78668<-621.581 0>
LayerCount: 2
Fore
SplineSet
343 0 m 2,0,1
 150 0 150 0 150 134 c 0,2,3
 150 218 150 218 262 362 c 1,4,-1
 585 774 l 1,5,-1
 293 1148 l 1,6,7
 181 1292 181 1292 181 1376 c 0,8,9
 181 1510 181 1510 374 1510 c 2,10,-1
 942 1510 l 17,11,-1
 942 1500 l 1,12,-1
 867 1340 l 9,13,-1
 374 1340 l 17,14,-1
 817 774 l 1,15,-1
 343 170 l 9,16,-1
 810 170 l 2,17,18
 928 170 928 170 958 287 c 1,19,20
 968 287 l 1,21,-1
 1118 216 l 1,22,23
 1058 0 1058 0 810 0 c 2,24,-1
 343 0 l 2,0,1
EndSplineSet
Validated: 1
EndChar

StartChar: Omega
Encoding: 937 937 133
Width: 1474
GlyphClass: 2
Flags: W
HStem: 0 170<302.077 468 1006 1171.92> 1364 166<575.205 898.805>
VStem: 172 200<618.55 1126.5> 468 162<170 296.491> 844 162<170 296.491> 1102 200<618.55 1123.91>
LayerCount: 2
Fore
SplineSet
630 0 m 25,0,-1
 408 0 l 2,1,2
 160 0 160 0 100 216 c 1,3,-1
 250 287 l 1,4,-1
 260 287 l 1,5,6
 292 170 292 170 408 170 c 2,7,-1
 468 170 l 17,8,-1
 468 267 l 17,9,10
 172 445 172 445 172 898 c 0,11,12
 172 1118 172 1118 298 1297 c 0,13,14
 462 1530 462 1530 737 1530 c 0,15,16
 1010 1530 1010 1530 1176 1297 c 0,17,18
 1302 1120 1302 1120 1302 898 c 0,19,20
 1302 445 1302 445 1006 267 c 9,21,-1
 1006 170 l 9,22,-1
 1066 170 l 2,23,24
 1182 170 1182 170 1214 287 c 1,25,-1
 1224 287 l 1,26,-1
 1374 216 l 1,27,28
 1314 0 1314 0 1066 0 c 2,29,-1
 844 0 l 25,30,-1
 844 368 l 17,31,32
 1102 499 1102 499 1102 898 c 0,33,34
 1102 1075 1102 1075 1011 1211 c 0,35,36
 909 1364 909 1364 739 1364 c 0,37,38
 565 1364 565 1364 463 1211 c 0,39,40
 372 1075 372 1075 372 898 c 0,41,42
 372 499 372 499 630 368 c 9,43,-1
 630 0 l 25,0,-1
EndSplineSet
Validated: 1
EndChar

StartChar: mu
Encoding: 956 956 134
Width: 1203
GlyphClass: 2
Flags: W
HStem: -450 21G<180 232.222> -20 170<486.354 715.927> 1120 20G<425 531.067 970.778 1023>
VStem: 180 200<-360 54 277.907 821.167> 823 200<277.907 1050>
LayerCount: 2
Fore
SplineSet
180 -450 m 1,0,-1
 180 550 l 2,1,2
 180 738 180 738 252 889 c 24,3,4
 339 1072 339 1072 511 1140 c 1,5,-1
 521 1140 l 1,6,-1
 596 991 l 1,7,8
 475 948 475 948 422 818 c 0,9,10
 380 714 380 714 380 550 c 0,11,12
 380 365 380 365 422 282 c 0,13,14
 488 150 488 150 602 150 c 128,-1,15
 716 150 716 150 782 282 c 0,16,17
 823 365 823 365 823 550 c 2,18,-1
 823 1050 l 1,19,-1
 1013 1140 l 1,20,-1
 1023 1140 l 1,21,-1
 1023 550 l 2,22,23
 1023 341 1023 341 952 211 c 0,24,25
 826 -20 826 -20 602 -20 c 0,26,27
 475 -20 475 -20 380 54 c 1,28,-1
 380 -360 l 1,29,-1
 190 -450 l 1,30,-1
 180 -450 l 1,0,-1
EndSplineSet
Validated: 1
EndChar

StartChar: pi
Encoding: 960 960 135
Width: 1173
GlyphClass: 2
Flags: W
HStem: -40 21G<200 252.222 773 825.222> 930 170<405.322 767.678>
VStem: 200 200<50 924.244> 773 200<50 924.244>
LayerCount: 2
Fore
SplineSet
200 -40 m 1,0,-1
 200 886 l 2,1,2
 200 1100 200 1100 450 1100 c 2,3,-1
 723 1100 l 2,4,5
 973 1100 973 1100 973 886 c 2,6,-1
 973 50 l 1,7,-1
 783 -40 l 1,8,-1
 773 -40 l 1,9,-1
 773 886 l 2,10,11
 773 930 773 930 723 930 c 2,12,-1
 450 930 l 2,13,14
 400 930 400 930 400 886 c 2,15,-1
 400 50 l 1,16,-1
 210 -40 l 1,17,-1
 200 -40 l 1,0,-1
EndSplineSet
Validated: 1
EndChar

StartChar: uni2010
Encoding: 8208 8208 136
Width: 1214
GlyphClass: 2
Flags: W
HStem: 664 182<306 908>
LayerCount: 2
Fore
SplineSet
225 664 m 1,0,-1
 225 674 l 1,1,-1
 306 846 l 1,2,-1
 989 846 l 1,3,-1
 989 836 l 1,4,-1
 908 664 l 1,5,-1
 225 664 l 1,0,-1
EndSplineSet
Validated: 3073
EndChar

StartChar: uni2011
Encoding: 8209 8209 137
Width: 1214
GlyphClass: 2
Flags: W
HStem: 664 182<306 908>
LayerCount: 2
Fore
SplineSet
225 664 m 1,0,-1
 225 674 l 1,1,-1
 306 846 l 1,2,-1
 989 846 l 1,3,-1
 989 836 l 1,4,-1
 908 664 l 1,5,-1
 225 664 l 1,0,-1
EndSplineSet
Validated: 3073
EndChar

StartChar: figuredash
Encoding: 8210 8210 138
Width: 1214
GlyphClass: 2
Flags: W
HStem: 664 182<231 983>
LayerCount: 2
Fore
SplineSet
150 664 m 1,0,-1
 150 674 l 1,1,-1
 231 846 l 1,2,-1
 1064 846 l 1,3,-1
 1064 836 l 1,4,-1
 983 664 l 1,5,-1
 150 664 l 1,0,-1
EndSplineSet
Validated: 3073
EndChar

StartChar: endash
Encoding: 8211 8211 139
Width: 1214
GlyphClass: 2
Flags: W
HStem: 664 182<231 983>
LayerCount: 2
Fore
SplineSet
150 664 m 1,0,-1
 150 674 l 1,1,-1
 231 846 l 1,2,-1
 1064 846 l 1,3,-1
 1064 836 l 1,4,-1
 983 664 l 1,5,-1
 150 664 l 1,0,-1
EndSplineSet
Validated: 3073
EndChar

StartChar: emdash
Encoding: 8212 8212 140
Width: 1214
GlyphClass: 2
Flags: W
HStem: 664 182<106 1108>
LayerCount: 2
Fore
SplineSet
25 664 m 1,0,-1
 25 674 l 1,1,-1
 106 846 l 1,2,-1
 1189 846 l 1,3,-1
 1189 836 l 1,4,-1
 1108 664 l 1,5,-1
 25 664 l 1,0,-1
EndSplineSet
Validated: 3073
EndChar

StartChar: afii00208
Encoding: 8213 8213 141
Width: 1214
GlyphClass: 2
Flags: W
HStem: 664 182<106 1108>
LayerCount: 2
Fore
SplineSet
25 664 m 1,0,-1
 25 674 l 1,1,-1
 106 846 l 1,2,-1
 1189 846 l 1,3,-1
 1189 836 l 1,4,-1
 1108 664 l 1,5,-1
 25 664 l 1,0,-1
EndSplineSet
Validated: 3073
EndChar

StartChar: underscoredbl
Encoding: 8215 8215 142
Width: 1214
GlyphClass: 2
Flags: W
HStem: -410 182<231 983> -182 182<231 983>
LayerCount: 2
Fore
SplineSet
150 -182 m 1,0,-1
 150 -172 l 1,1,-1
 231 0 l 1,2,-1
 1064 0 l 1,3,-1
 1064 -10 l 1,4,-1
 983 -182 l 1,5,-1
 150 -182 l 1,0,-1
150 -410 m 1,6,-1
 150 -400 l 1,7,-1
 231 -228 l 1,8,-1
 1064 -228 l 1,9,-1
 1064 -238 l 1,10,-1
 983 -410 l 1,11,-1
 150 -410 l 1,6,-1
EndSplineSet
Validated: 3073
EndChar

StartChar: quoteleft
Encoding: 8216 8216 143
Width: 609
GlyphClass: 2
Flags: W
HStem: 986 564
VStem: 150 175<1155.38 1380.94>
LayerCount: 2
Fore
SplineSet
395 1550 m 1,0,-1
 438 1500 l 1,1,2
 325 1385 325 1385 325 1284 c 0,3,4
 325 1163 325 1163 459 1076 c 1,5,-1
 269 986 l 1,6,-1
 259 986 l 1,7,8
 150 1093 150 1093 150 1230 c 0,9,10
 150 1421 150 1421 395 1550 c 1,0,-1
EndSplineSet
Validated: 1
EndChar

StartChar: quoteright
Encoding: 8217 8217 144
Width: 609
GlyphClass: 2
Flags: W
HStem: 986 564
VStem: 284 175<1155.06 1380.62>
LayerCount: 2
Fore
SplineSet
340 1550 m 1,0,-1
 350 1550 l 1,1,2
 459 1443 459 1443 459 1306 c 0,3,4
 459 1115 459 1115 214 986 c 1,5,-1
 171 1036 l 1,6,7
 284 1151 284 1151 284 1252 c 0,8,9
 284 1373 284 1373 150 1460 c 1,10,-1
 340 1550 l 1,0,-1
EndSplineSet
Validated: 1
EndChar

StartChar: quotesinglbase
Encoding: 8218 8218 145
Width: 609
GlyphClass: 2
Flags: W
HStem: -286 564
VStem: 284 175<-116.943 108.616>
LayerCount: 2
Fore
SplineSet
340 278 m 1,0,-1
 350 278 l 1,1,2
 459 171 459 171 459 34 c 0,3,4
 459 -157 459 -157 214 -286 c 1,5,-1
 171 -236 l 1,6,7
 284 -121 284 -121 284 -20 c 0,8,9
 284 101 284 101 150 188 c 1,10,-1
 340 278 l 1,0,-1
EndSplineSet
Validated: 1
EndChar

StartChar: quotereversed
Encoding: 8219 8219 146
Width: 609
GlyphClass: 2
Flags: W
HStem: 986 564
VStem: 150 175<1155.06 1380.62>
LayerCount: 2
Fore
SplineSet
259 1550 m 1,0,-1
 269 1550 l 1,1,-1
 459 1460 l 1,2,3
 325 1373 325 1373 325 1252 c 0,4,5
 325 1151 325 1151 438 1036 c 1,6,-1
 395 986 l 1,7,8
 150 1115 150 1115 150 1306 c 0,9,10
 150 1443 150 1443 259 1550 c 1,0,-1
EndSplineSet
Validated: 1
EndChar

StartChar: quotedblleft
Encoding: 8220 8220 147
Width: 924
GlyphClass: 2
Flags: W
HStem: 986 564
VStem: 150 175<1155.38 1380.94> 465 175<1155.38 1380.94>
LayerCount: 2
Fore
SplineSet
395 1550 m 1,0,-1
 438 1500 l 1,1,2
 325 1385 325 1385 325 1284 c 0,3,4
 325 1163 325 1163 459 1076 c 1,5,-1
 269 986 l 1,6,-1
 259 986 l 1,7,8
 150 1093 150 1093 150 1230 c 0,9,10
 150 1421 150 1421 395 1550 c 1,0,-1
710 1550 m 1,11,-1
 753 1500 l 1,12,13
 640 1385 640 1385 640 1284 c 0,14,15
 640 1163 640 1163 774 1076 c 1,16,-1
 584 986 l 1,17,-1
 574 986 l 1,18,19
 465 1093 465 1093 465 1230 c 0,20,21
 465 1421 465 1421 710 1550 c 1,11,-1
EndSplineSet
Validated: 1
EndChar

StartChar: quotedblright
Encoding: 8221 8221 148
Width: 924
GlyphClass: 2
Flags: W
HStem: 986 564
VStem: 284 175<1155.06 1380.62> 599 175<1155.06 1380.62>
LayerCount: 2
Fore
SplineSet
655 1550 m 1,0,-1
 665 1550 l 1,1,2
 774 1443 774 1443 774 1306 c 0,3,4
 774 1115 774 1115 529 986 c 1,5,-1
 486 1036 l 1,6,7
 599 1151 599 1151 599 1252 c 0,8,9
 599 1373 599 1373 465 1460 c 1,10,-1
 655 1550 l 1,0,-1
340 1550 m 1,11,-1
 350 1550 l 1,12,13
 459 1443 459 1443 459 1306 c 0,14,15
 459 1115 459 1115 214 986 c 1,16,-1
 171 1036 l 1,17,18
 284 1151 284 1151 284 1252 c 0,19,20
 284 1373 284 1373 150 1460 c 1,21,-1
 340 1550 l 1,11,-1
EndSplineSet
Validated: 1
EndChar

StartChar: quotedblbase
Encoding: 8222 8222 149
Width: 924
GlyphClass: 2
Flags: W
HStem: -286 564
VStem: 284 175<-116.943 108.616> 599 175<-116.943 108.616>
LayerCount: 2
Fore
SplineSet
655 278 m 1,0,-1
 665 278 l 1,1,2
 774 171 774 171 774 34 c 0,3,4
 774 -157 774 -157 529 -286 c 1,5,-1
 486 -236 l 1,6,7
 599 -121 599 -121 599 -20 c 0,8,9
 599 101 599 101 465 188 c 1,10,-1
 655 278 l 1,0,-1
340 278 m 1,11,-1
 350 278 l 1,12,13
 459 171 459 171 459 34 c 0,14,15
 459 -157 459 -157 214 -286 c 1,16,-1
 171 -236 l 1,17,18
 284 -121 284 -121 284 -20 c 0,19,20
 284 101 284 101 150 188 c 1,21,-1
 340 278 l 1,11,-1
EndSplineSet
Validated: 1
EndChar

StartChar: uni201F
Encoding: 8223 8223 150
Width: 924
GlyphClass: 2
Flags: W
HStem: 986 564
VStem: 150 175<1155.06 1380.62> 465 175<1155.06 1380.62>
LayerCount: 2
Fore
SplineSet
259 1550 m 1,0,1
 269 1550 l 1,2,-1
 459 1460 l 1,3,4
 325 1373 325 1373 325 1252 c 0,5,6
 325 1151 325 1151 438 1036 c 1,7,-1
 395 986 l 1,8,9
 150 1115 150 1115 150 1306 c 0,10,11
 150 1443 150 1443 259 1550 c 1,0,1
574 1550 m 1,12,-1
 584 1550 l 1,13,-1
 774 1460 l 1,14,15
 640 1373 640 1373 640 1252 c 0,16,17
 640 1151 640 1151 753 1036 c 1,18,-1
 710 986 l 1,19,20
 465 1115 465 1115 465 1306 c 0,21,22
 465 1443 465 1443 574 1550 c 1,12,-1
EndSplineSet
Validated: 1
EndChar

StartChar: dagger
Encoding: 8224 8224 151
Width: 1214
GlyphClass: 2
Flags: W
HStem: -40 21G<507 559.222> 996 182<231 507 707 983> 1530 20G<654.778 707>
VStem: 507 200<50 996 1178 1460>
LayerCount: 2
Fore
SplineSet
517 -40 m 1,0,-1
 507 -40 l 1,1,-1
 507 996 l 1,2,-1
 150 996 l 1,3,-1
 150 1006 l 1,4,-1
 231 1178 l 1,5,-1
 507 1178 l 1,6,-1
 507 1460 l 1,7,-1
 697 1550 l 1,8,-1
 707 1550 l 1,9,-1
 707 1178 l 1,10,-1
 1064 1178 l 1,11,-1
 1064 1168 l 1,12,-1
 983 996 l 1,13,-1
 707 996 l 1,14,-1
 707 50 l 1,15,-1
 517 -40 l 1,0,-1
EndSplineSet
Validated: 3073
EndChar

StartChar: daggerdbl
Encoding: 8225 8225 152
Width: 1214
GlyphClass: 2
Flags: W
HStem: -40 21G<507 559.222> 332 182<231 507 707 983> 996 182<231 507 707 983> 1530 20G<654.778 707>
VStem: 507 200<50 332 514 996 1178 1460>
LayerCount: 2
Fore
SplineSet
517 -40 m 1,0,-1
 507 -40 l 1,1,-1
 507 332 l 1,2,-1
 150 332 l 1,3,-1
 150 342 l 1,4,-1
 231 514 l 1,5,-1
 507 514 l 1,6,-1
 507 996 l 1,7,-1
 150 996 l 1,8,-1
 150 1006 l 1,9,-1
 231 1178 l 1,10,-1
 507 1178 l 1,11,-1
 507 1460 l 1,12,-1
 697 1550 l 1,13,-1
 707 1550 l 1,14,-1
 707 1178 l 1,15,-1
 1064 1178 l 1,16,-1
 1064 1168 l 1,17,-1
 983 996 l 1,18,-1
 707 996 l 1,19,-1
 707 514 l 1,20,-1
 1064 514 l 1,21,-1
 1064 504 l 1,22,-1
 983 332 l 1,23,-1
 707 332 l 1,24,-1
 707 50 l 1,25,-1
 517 -40 l 1,0,-1
EndSplineSet
Validated: 3073
EndChar

StartChar: bullet
Encoding: 8226 8226 153
Width: 1038
GlyphClass: 2
Flags: W
HStem: 354 800<340.069 697.479>
VStem: 150 738<560.219 948.238>
LayerCount: 2
Fore
SplineSet
150 757 m 0,0,1
 150 928 150 928 268 1054 c 0,2,3
 362 1154 362 1154 519 1154 c 0,4,5
 675 1154 675 1154 770 1054 c 0,6,7
 888 928 888 928 888 754 c 128,-1,8
 888 580 888 580 770 454 c 0,9,10
 676 354 676 354 519 354 c 128,-1,11
 362 354 362 354 268 454 c 0,12,13
 150 580 150 580 150 757 c 0,0,1
EndSplineSet
Validated: 1
EndChar

StartChar: uni2023
Encoding: 8227 8227 154
Width: 928
GlyphClass: 2
Flags: W
HStem: 1121 20G<200 233.493>
VStem: 200 628
LayerCount: 2
Fore
SplineSet
200 362 m 1,0,-1
 200 1141 l 1,1,-1
 828 766 l 1,2,-1
 200 362 l 1,0,-1
EndSplineSet
Validated: 3073
EndChar

StartChar: onedotenleader
Encoding: 8228 8228 155
Width: 600
GlyphClass: 2
Flags: W
HStem: -20 245<216.097 383.903>
VStem: 180 240<17.1285 187.871>
LayerCount: 2
Fore
SplineSet
180 102.5 m 128,-1,1
 180 153 180 153 215 189 c 128,-1,2
 250 225 250 225 300 225 c 128,-1,3
 350 225 350 225 385 189 c 128,-1,4
 420 153 420 153 420 102.5 c 128,-1,5
 420 52 420 52 385 16 c 128,-1,6
 350 -20 350 -20 300 -20 c 128,-1,7
 250 -20 250 -20 215 16 c 128,-1,0
 180 52 180 52 180 102.5 c 128,-1,1
EndSplineSet
Validated: 1
EndChar

StartChar: twodotenleader
Encoding: 8229 8229 156
Width: 936
GlyphClass: 2
Flags: W
HStem: -20 245<216.097 383.903 552.097 719.903>
VStem: 180 240<17.1285 187.871> 516 240<17.1285 187.871>
LayerCount: 2
Fore
SplineSet
516 102.5 m 128,-1,1
 516 153 516 153 551 189 c 128,-1,2
 586 225 586 225 636 225 c 128,-1,3
 686 225 686 225 721 189 c 128,-1,4
 756 153 756 153 756 102.5 c 128,-1,5
 756 52 756 52 721 16 c 128,-1,6
 686 -20 686 -20 636 -20 c 128,-1,7
 586 -20 586 -20 551 16 c 128,-1,0
 516 52 516 52 516 102.5 c 128,-1,1
180 102.5 m 128,-1,9
 180 153 180 153 215 189 c 128,-1,10
 250 225 250 225 300 225 c 128,-1,11
 350 225 350 225 385 189 c 128,-1,12
 420 153 420 153 420 102.5 c 128,-1,13
 420 52 420 52 385 16 c 128,-1,14
 350 -20 350 -20 300 -20 c 128,-1,15
 250 -20 250 -20 215 16 c 128,-1,8
 180 52 180 52 180 102.5 c 128,-1,9
EndSplineSet
Validated: 1
EndChar

StartChar: ellipsis
Encoding: 8230 8230 157
Width: 1272
GlyphClass: 2
Flags: W
HStem: -20 245<216.097 383.903 552.097 719.903 888.097 1055.9>
VStem: 180 240<17.1285 187.871> 516 240<17.1285 187.871> 852 240<17.1285 187.871>
CounterMasks: 1 70
LayerCount: 2
Fore
SplineSet
852 102.5 m 128,-1,1
 852 153 852 153 887 189 c 128,-1,2
 922 225 922 225 972 225 c 128,-1,3
 1022 225 1022 225 1057 189 c 128,-1,4
 1092 153 1092 153 1092 102.5 c 128,-1,5
 1092 52 1092 52 1057 16 c 128,-1,6
 1022 -20 1022 -20 972 -20 c 128,-1,7
 922 -20 922 -20 887 16 c 128,-1,0
 852 52 852 52 852 102.5 c 128,-1,1
516 102.5 m 128,-1,9
 516 153 516 153 551 189 c 128,-1,10
 586 225 586 225 636 225 c 128,-1,11
 686 225 686 225 721 189 c 128,-1,12
 756 153 756 153 756 102.5 c 128,-1,13
 756 52 756 52 721 16 c 128,-1,14
 686 -20 686 -20 636 -20 c 128,-1,15
 586 -20 586 -20 551 16 c 128,-1,8
 516 52 516 52 516 102.5 c 128,-1,9
180 102.5 m 128,-1,17
 180 153 180 153 215 189 c 128,-1,18
 250 225 250 225 300 225 c 128,-1,19
 350 225 350 225 385 189 c 128,-1,20
 420 153 420 153 420 102.5 c 128,-1,21
 420 52 420 52 385 16 c 128,-1,22
 350 -20 350 -20 300 -20 c 128,-1,23
 250 -20 250 -20 215 16 c 128,-1,16
 180 52 180 52 180 102.5 c 128,-1,17
EndSplineSet
Validated: 1
EndChar

StartChar: uni2027
Encoding: 8231 8231 158
Width: 600
GlyphClass: 2
Flags: W
HStem: 631 245<216.097 383.903>
VStem: 180 240<668.129 838.871>
LayerCount: 2
Fore
SplineSet
180 753.5 m 132,-1,1
 180 804 180 804 215 840 c 132,-1,2
 250 876 250 876 300 876 c 132,-1,3
 350 876 350 876 385 840 c 132,-1,4
 420 804 420 804 420 753.5 c 132,-1,5
 420 703 420 703 385 667 c 132,-1,6
 350 631 350 631 300 631 c 132,-1,7
 250 631 250 631 215 667 c 132,-1,0
 180 703 180 703 180 753.5 c 132,-1,1
EndSplineSet
Validated: 1
EndChar

StartChar: perthousand
Encoding: 8240 8240 159
Width: 2902
GlyphClass: 2
Flags: W
HStem: -40 21G<700.529 761.317> -20 147<1426.81 1641.92 2276.81 2491.92> 633 147<1426.74 1641.83 2276.74 2491.83> 730 147<412.81 627.922> 1383 147<412.738 627.832> 1530 20G<1300.68 1361.47>
VStem: 150 196<948.787 1311.57> 691 197<945.151 1312.17> 1164 196<198.896 561.568> 1705 197<195.736 562.907> 2014 196<198.896 561.568> 2555 197<195.736 562.907>
DStem2: 601 28 752 -40 0.422266 0.906472<2.12205 1679.04>
LayerCount: 2
Fore
SplineSet
2555 380 m 0,0,1
 2555 509 2555 509 2499 580 c 0,2,3
 2457 633 2457 633 2383 633 c 0,4,5
 2313 633 2313 633 2268 580 c 0,6,7
 2210 512 2210 512 2210 380 c 0,8,9
 2210 247 2210 247 2268 180 c 0,10,11
 2314 127 2314 127 2383 127 c 0,12,13
 2455 127 2455 127 2499 180 c 0,14,15
 2555 248 2555 248 2555 380 c 0,0,1
2014 383 m 0,16,17
 2014 554 2014 554 2132 680 c 0,18,19
 2226 780 2226 780 2383 780 c 0,20,21
 2539 780 2539 780 2634 680 c 0,22,23
 2752 557 2752 557 2752 380 c 0,24,25
 2752 208 2752 208 2634 80 c 0,26,27
 2540 -20 2540 -20 2383 -20 c 128,-1,28
 2226 -20 2226 -20 2132 80 c 0,29,30
 2014 206 2014 206 2014 383 c 0,16,17
691 1130 m 0,31,32
 691 1259 691 1259 635 1330 c 0,33,34
 593 1383 593 1383 519 1383 c 0,35,36
 449 1383 449 1383 404 1330 c 0,37,38
 346 1262 346 1262 346 1130 c 0,39,40
 346 996 346 996 404 930 c 0,41,42
 450 877 450 877 519 877 c 0,43,44
 591 877 591 877 635 930 c 0,45,46
 691 997 691 997 691 1130 c 0,31,32
150 1133 m 0,47,48
 150 1304 150 1304 268 1430 c 0,49,50
 362 1530 362 1530 519 1530 c 0,51,52
 675 1530 675 1530 770 1430 c 0,53,54
 888 1304 888 1304 888 1130 c 128,-1,55
 888 956 888 956 770 830 c 0,56,57
 676 730 676 730 519 730 c 128,-1,58
 362 730 362 730 268 830 c 0,59,60
 150 956 150 956 150 1133 c 0,47,48
1705 380 m 0,61,62
 1705 509 1705 509 1649 580 c 0,63,64
 1607 633 1607 633 1533 633 c 0,65,66
 1463 633 1463 633 1418 580 c 0,67,68
 1360 512 1360 512 1360 380 c 0,69,70
 1360 247 1360 247 1418 180 c 0,71,72
 1464 127 1464 127 1533 127 c 0,73,74
 1605 127 1605 127 1649 180 c 0,75,76
 1705 248 1705 248 1705 380 c 0,61,62
1164 383 m 0,77,78
 1164 554 1164 554 1282 680 c 0,79,80
 1376 780 1376 780 1533 780 c 0,81,82
 1689 780 1689 780 1784 680 c 0,83,84
 1902 557 1902 557 1902 380 c 0,85,86
 1902 208 1902 208 1784 80 c 0,87,88
 1690 -20 1690 -20 1533 -20 c 128,-1,89
 1376 -20 1376 -20 1282 80 c 0,90,91
 1164 206 1164 206 1164 383 c 0,77,78
742 -40 m 1,92,-1
 601 28 l 1,93,-1
 1310 1550 l 1,94,-1
 1320 1550 l 1,95,-1
 1461 1482 l 1,96,-1
 752 -40 l 1,97,-1
 742 -40 l 1,92,-1
EndSplineSet
Validated: 1
EndChar

StartChar: minute
Encoding: 8242 8242 160
Width: 680
GlyphClass: 2
Flags: W
HStem: 1059 491
VStem: 150 380
LayerCount: 2
Fore
SplineSet
344 1550 m 1,0,-1
 354 1550 l 1,1,-1
 530 1466 l 1,2,-1
 277 1059 l 1,3,-1
 267 1059 l 1,4,-1
 150 1114 l 1,5,-1
 344 1550 l 1,0,-1
EndSplineSet
Validated: 3073
EndChar

StartChar: second
Encoding: 8243 8243 161
Width: 998
GlyphClass: 2
Flags: W
HStem: 1059 491
LayerCount: 2
Fore
SplineSet
662 1550 m 1,0,-1
 672 1550 l 1,1,-1
 848 1466 l 1,2,-1
 595 1059 l 1,3,-1
 585 1059 l 1,4,-1
 468 1114 l 1,5,-1
 662 1550 l 1,0,-1
344 1550 m 1,6,-1
 354 1550 l 1,7,-1
 530 1466 l 1,8,-1
 277 1059 l 1,9,-1
 267 1059 l 1,10,-1
 150 1114 l 1,11,-1
 344 1550 l 1,6,-1
EndSplineSet
Validated: 3073
EndChar

StartChar: uni2034
Encoding: 8244 8244 162
Width: 1316
GlyphClass: 2
Flags: W
HStem: 1059 491
LayerCount: 2
Fore
SplineSet
980 1550 m 1,0,-1
 990 1550 l 1,1,-1
 1166 1466 l 1,2,-1
 913 1059 l 1,3,-1
 903 1059 l 1,4,-1
 786 1114 l 1,5,-1
 980 1550 l 1,0,-1
662 1550 m 1,6,-1
 672 1550 l 1,7,-1
 848 1466 l 1,8,-1
 595 1059 l 1,9,-1
 585 1059 l 1,10,-1
 468 1114 l 1,11,-1
 662 1550 l 1,6,-1
344 1550 m 1,12,-1
 354 1550 l 1,13,-1
 530 1466 l 1,14,-1
 277 1059 l 1,15,-1
 267 1059 l 1,16,-1
 150 1114 l 1,17,-1
 344 1550 l 1,12,-1
EndSplineSet
Validated: 3073
EndChar

StartChar: uni2035
Encoding: 8245 8245 163
Width: 680
GlyphClass: 2
Flags: W
HStem: 1059 491
VStem: 150 380
LayerCount: 2
Fore
SplineSet
326 1550 m 1,0,-1
 336 1550 l 1,1,-1
 530 1114 l 1,2,-1
 413 1059 l 1,3,-1
 403 1059 l 1,4,-1
 150 1466 l 1,5,-1
 326 1550 l 1,0,-1
EndSplineSet
Validated: 3073
EndChar

StartChar: uni2036
Encoding: 8246 8246 164
Width: 998
GlyphClass: 2
Flags: W
HStem: 1059 491
LayerCount: 2
Fore
SplineSet
326 1550 m 1,0,-1
 336 1550 l 1,1,-1
 530 1114 l 1,2,-1
 413 1059 l 1,3,-1
 403 1059 l 1,4,-1
 150 1466 l 1,5,-1
 326 1550 l 1,0,-1
644 1550 m 1,6,-1
 654 1550 l 1,7,-1
 848 1114 l 1,8,-1
 731 1059 l 1,9,-1
 721 1059 l 1,10,-1
 468 1466 l 1,11,-1
 644 1550 l 1,6,-1
EndSplineSet
Validated: 3073
EndChar

StartChar: uni2037
Encoding: 8247 8247 165
Width: 1316
GlyphClass: 2
Flags: W
HStem: 1059 491
LayerCount: 2
Fore
SplineSet
336 1550 m 1,0,-1
 530 1114 l 1,1,-1
 413 1059 l 1,2,-1
 403 1059 l 1,3,-1
 150 1466 l 1,4,-1
 326 1550 l 1,5,-1
 336 1550 l 1,0,-1
644 1550 m 1,6,-1
 654 1550 l 1,7,-1
 848 1114 l 1,8,-1
 731 1059 l 1,9,-1
 721 1059 l 1,10,-1
 468 1466 l 1,11,-1
 644 1550 l 1,6,-1
962 1550 m 1,12,-1
 972 1550 l 1,13,-1
 1166 1114 l 1,14,-1
 1049 1059 l 1,15,-1
 1039 1059 l 1,16,-1
 786 1466 l 1,17,-1
 962 1550 l 1,12,-1
EndSplineSet
Validated: 3073
EndChar

StartChar: guilsinglleft
Encoding: 8249 8249 166
Width: 823
GlyphClass: 2
Flags: W
VStem: 150 473
DStem2: 150 792 381 795 0.506484 0.862249<119.585 570.601> 381 795 150 792 0.509561 -0.860435<0 452.028>
LayerCount: 2
Fore
SplineSet
439 304 m 1,0,-1
 150 792 l 1,1,-1
 439 1284 l 1,2,-1
 449 1284 l 1,3,-1
 623 1202 l 1,4,-1
 381 795 l 1,5,-1
 623 386 l 1,6,-1
 449 304 l 1,7,-1
 439 304 l 1,0,-1
EndSplineSet
Validated: 1
EndChar

StartChar: guilsinglright
Encoding: 8250 8250 167
Width: 823
GlyphClass: 2
Flags: W
VStem: 200 473
DStem2: 384 1284 200 1202 0.506484 -0.862249<0 451.016> 200 386 384 304 0.509561 0.860435<23.2035 475.231>
LayerCount: 2
Fore
SplineSet
384 304 m 1,0,-1
 374 304 l 1,1,-1
 200 386 l 1,2,-1
 442 795 l 1,3,-1
 200 1202 l 1,4,-1
 374 1284 l 1,5,-1
 384 1284 l 1,6,-1
 673 792 l 1,7,-1
 384 304 l 1,0,-1
EndSplineSet
Validated: 1
EndChar

StartChar: uni2043
Encoding: 8259 8259 168
Width: 1183
GlyphClass: 2
Flags: W
VStem: 500 182<387 605 921 1139>
DStem2: 311 1030 150 913 0.865946 -0.500138<0 218.179 533.824 752.003> 150 613 311 496 0.865946 0.500138<80.9012 299.08 614.726 832.904>
LayerCount: 2
Fore
SplineSet
682 1220 m 1,0,-1
 682 921 l 1,1,-1
 871 1030 l 1,2,-1
 1028 921 l 1,3,-1
 1033 913 l 1,4,-1
 773 763 l 1,5,-1
 1033 613 l 1,6,-1
 1028 605 l 1,7,-1
 871 496 l 1,8,-1
 682 605 l 1,9,-1
 682 387 l 1,10,-1
 510 306 l 1,11,-1
 500 306 l 1,12,-1
 500 605 l 1,13,-1
 311 496 l 1,14,-1
 155 605 l 1,15,-1
 150 613 l 1,16,-1
 409 763 l 1,17,-1
 150 913 l 1,18,-1
 155 921 l 1,19,-1
 311 1030 l 1,20,-1
 500 921 l 1,21,-1
 500 1139 l 1,22,-1
 672 1220 l 1,23,-1
 682 1220 l 1,0,-1
EndSplineSet
Validated: 3073
EndChar

StartChar: fraction
Encoding: 8260 8260 169
Width: 974
GlyphClass: 2
Flags: W
DStem2: 10 -72 161 -140 0.422626 0.906304<2.18787 1899.6>
LayerCount: 2
Fore
SplineSet
151 -140 m 1,0,-1
 10 -72 l 1,1,-1
 812 1650 l 1,2,-1
 822 1650 l 1,3,-1
 964 1582 l 1,4,-1
 161 -140 l 1,5,-1
 151 -140 l 1,0,-1
EndSplineSet
Validated: 3073
EndChar

StartChar: Euro
Encoding: 8364 8364 170
Width: 1582
GlyphClass: 2
Flags: W
HStem: -20 170<748.343 1048.6> 507 182<231 337 557 983> 828 182<231 338 559 983> 1360 170<746.271 1049.04>
VStem: 336 200<689 828>
LayerCount: 2
Fore
SplineSet
1064 689 m 1,0,-1
 1064 679 l 1,1,-1
 983 507 l 1,2,-1
 557 507 l 1,3,4
 574 424 574 424 604 366 c 0,5,6
 716 150 716 150 898 150 c 0,7,8
 1083 150 1083 150 1192 366 c 1,9,-1
 1422 474 l 1,10,-1
 1432 474 l 1,11,12
 1413 378 1413 378 1364 288 c 0,13,14
 1196 -20 1196 -20 898 -20 c 0,15,16
 601 -20 601 -20 432 288 c 0,17,18
 381 381 381 381 357 507 c 1,19,-1
 150 507 l 1,20,-1
 150 517 l 1,21,-1
 231 689 l 1,22,-1
 337 689 l 1,23,24
 336 721 336 721 336 755 c 0,25,26
 336 792 336 792 338 828 c 1,27,-1
 150 828 l 1,28,-1
 150 838 l 1,29,-1
 231 1010 l 1,30,-1
 359 1010 l 1,31,32
 383 1131 383 1131 432 1222 c 0,33,34
 598 1530 598 1530 898 1530 c 0,35,36
 1197 1530 1197 1530 1364 1222 c 1,37,-1
 1202 1144 l 1,38,-1
 1192 1144 l 1,39,40
 1084 1360 1084 1360 898 1360 c 0,41,42
 710 1360 710 1360 604 1144 c 0,43,44
 576 1087 576 1087 559 1010 c 1,45,-1
 1064 1010 l 1,46,-1
 1064 1000 l 1,47,-1
 983 828 l 1,48,-1
 538 828 l 1,49,50
 536 793 536 793 536 755 c 0,51,52
 536 721 536 721 537 689 c 1,53,-1
 1064 689 l 1,0,-1
EndSplineSet
Validated: 1
EndChar

StartChar: afii61248
Encoding: 8453 8453 171
Width: 1726
GlyphClass: 2
Flags: W
HStem: -40 21G<532.529 593.317> -20 136<1178.54 1361.87> 670 134<1178.24 1361.76> 706 136<364.543 547.226> 1396 134<364.432 548.85> 1530 20G<1132.68 1193.47>
VStem: 150 150<912.764 1323.91> 964 150<186.764 597.908> 1426 150<185.49 597.908>
DStem2: 433 28 584 -40 0.422266 0.906472<2.12205 1679.04>
LayerCount: 2
Fore
SplineSet
1270 804 m 128,-1,1
 1435 804 1435 804 1525 638 c 0,2,3
 1576 545 1576 545 1576 393 c 0,4,5
 1576 243 1576 243 1525 148 c 0,6,7
 1434 -20 1434 -20 1270 -20 c 128,-1,8
 1106 -20 1106 -20 1015 148 c 0,9,10
 964 243 964 243 964 393 c 0,11,12
 964 545 964 545 1015 638 c 0,13,0
 1105 804 1105 804 1270 804 c 128,-1,1
1270 670 m 128,-1,15
 1193 670 1193 670 1145 576 c 0,16,17
 1114 514 1114 514 1114 393 c 0,18,19
 1114 271 1114 271 1145 210 c 0,20,21
 1193 116 1193 116 1272 116 c 0,22,23
 1348 116 1348 116 1395 210 c 0,24,25
 1426 271 1426 271 1426 393 c 0,26,27
 1426 514 1426 514 1395 576 c 0,28,14
 1347 670 1347 670 1270 670 c 128,-1,15
750 996 m 1,29,30
 739 927 739 927 711 870 c 0,31,32
 630 706 630 706 456 706 c 0,33,34
 292 706 292 706 201 874 c 0,35,36
 150 969 150 969 150 1119 c 0,37,38
 150 1271 150 1271 201 1364 c 0,39,40
 291 1530 291 1530 456 1530 c 0,41,42
 631 1530 631 1530 723 1341 c 1,43,-1
 614 1288 l 1,44,-1
 588 1288 l 1,45,46
 541 1396 541 1396 460 1396 c 128,-1,47
 379 1396 379 1396 331 1302 c 0,48,49
 300 1240 300 1240 300 1119 c 0,50,51
 300 997 300 997 331 936 c 0,52,53
 379 842 379 842 458 842 c 0,54,55
 532 842 532 842 581 936 c 1,56,-1
 709 996 l 1,57,-1
 750 996 l 1,29,30
574 -40 m 1,58,-1
 433 28 l 1,59,-1
 1142 1550 l 1,60,-1
 1152 1550 l 1,61,-1
 1293 1482 l 1,62,-1
 584 -40 l 1,63,-1
 574 -40 l 1,58,-1
EndSplineSet
Validated: 1
EndChar

StartChar: afii61289
Encoding: 8467 8467 172
Width: 1108
GlyphClass: 2
Flags: W
HStem: -20 136<558.838 669.961> 0 21G<150 363.84> 1511 20G<711 795.5>
VStem: 332 208<672 805.805> 729 179<1092.03 1387.01>
LayerCount: 2
Fore
SplineSet
540 672 m 1,0,1
 600 796 600 796 656 982 c 0,2,3
 729 1224 729 1224 729 1389 c 1,4,5
 677 1305 677 1305 614 1098 c 0,6,7
 540 857 540 857 540 672 c 1,0,1
150 0 m 1,8,9
 250 146 250 146 340 296 c 1,10,11
 332 366 332 366 332 444 c 0,12,13
 332 592 332 592 361 733 c 0,14,15
 481 1333 481 1333 576 1443 c 0,16,17
 652 1531 652 1531 770 1531 c 0,18,19
 821 1531 821 1531 860 1498 c 1,20,21
 908 1459 908 1459 908 1338 c 0,22,23
 908 1246 908 1246 878 1092 c 0,24,25
 808 742 808 742 522 272 c 1,26,27
 555 116 555 116 611 116 c 0,28,29
 630 116 630 116 653 140 c 0,30,31
 684 172 684 172 716 228 c 1,32,-1
 892 228 l 1,33,34
 815 100 815 100 750.5 40 c 128,-1,35
 686 -20 686 -20 602 -20 c 0,36,37
 474 -20 474 -20 403 81 c 1,38,-1
 351 0 l 1,39,-1
 150 0 l 1,8,9
EndSplineSet
Validated: 3073
EndChar

StartChar: trademark
Encoding: 8482 8482 173
Width: 1926
GlyphClass: 2
Flags: W
HStem: 1395 135<282.746 369 519 686 859.149 1057.46 1318.43 1518.64>
VStem: 369 150<759 1395> 653 150<934.467 1335.51> 1115 150<759 1333.03> 1577 150<922.608 1332.26>
LayerCount: 2
Fore
SplineSet
897 705 m 1,0,1
 777 745 777 745 704 882 c 0,2,3
 653 978 653 978 653 1128 c 128,-1,4
 653 1278 653 1278 704 1373 c 0,5,6
 795 1540 795 1540 959 1540 c 0,7,8
 1101 1540 1101 1540 1190 1412 c 1,9,10
 1278 1540 1278 1540 1421 1540 c 0,11,12
 1588 1540 1588 1540 1676 1373 c 0,13,14
 1727 1276 1727 1276 1727 1128 c 0,15,16
 1727 977 1727 977 1676 882 c 0,17,18
 1604 747 1604 747 1482 705 c 1,19,-1
 1457 705 l 1,20,-1
 1401 816 l 1,21,22
 1501 854 1501 854 1545 944 c 0,23,24
 1577 1009 1577 1009 1577 1128 c 128,-1,25
 1577 1247 1577 1247 1545 1311 c 0,26,27
 1498 1405 1498 1405 1421 1405 c 0,28,29
 1337 1405 1337 1405 1296 1311 c 0,30,31
 1265 1240 1265 1240 1265 1128 c 2,32,-1
 1265 759 l 1,33,-1
 1150 705 l 1,34,-1
 1115 705 l 1,35,-1
 1115 1128 l 2,36,37
 1115 1250 1115 1250 1083 1311 c 0,38,39
 1034 1405 1034 1405 959 1405 c 0,40,41
 880 1405 880 1405 834 1311 c 0,42,43
 803 1248 803 1248 803 1128 c 0,44,45
 803 998 803 998 834 944 c 0,46,47
 880 866 880 866 978 816 c 1,48,-1
 922 705 l 1,49,-1
 897 705 l 1,0,1
369 705 m 1,50,-1
 369 1395 l 1,51,-1
 334 1395 l 2,52,53
 290 1395 290 1395 279 1336 c 9,54,-1
 249 1336 l 25,55,-1
 150 1383 l 17,56,57
 187 1530 187 1530 334 1530 c 2,58,-1
 733 1530 l 1,59,-1
 733 1494 l 1,60,-1
 686 1395 l 1,61,-1
 519 1395 l 1,62,-1
 519 759 l 1,63,-1
 404 705 l 1,64,-1
 369 705 l 1,50,-1
EndSplineSet
Validated: 1
EndChar

StartChar: uni2126
Encoding: 8486 8486 174
Width: 1474
GlyphClass: 2
Flags: W
HStem: 0 170<302.077 468 1006 1171.92> 1364 166<575.205 898.805>
VStem: 172 200<618.55 1126.5> 468 162<170 296.491> 844 162<170 296.491> 1102 200<618.55 1123.91>
LayerCount: 2
Fore
SplineSet
630 0 m 25,0,-1
 408 0 l 2,1,2
 160 0 160 0 100 216 c 1,3,-1
 250 287 l 1,4,-1
 260 287 l 1,5,6
 292 170 292 170 408 170 c 2,7,-1
 468 170 l 17,8,-1
 468 267 l 17,9,10
 172 445 172 445 172 898 c 0,11,12
 172 1118 172 1118 298 1297 c 0,13,14
 462 1530 462 1530 737 1530 c 0,15,16
 1010 1530 1010 1530 1176 1297 c 0,17,18
 1302 1120 1302 1120 1302 898 c 0,19,20
 1302 445 1302 445 1006 267 c 9,21,-1
 1006 170 l 9,22,-1
 1066 170 l 2,23,24
 1182 170 1182 170 1214 287 c 1,25,-1
 1224 287 l 1,26,-1
 1374 216 l 1,27,28
 1314 0 1314 0 1066 0 c 2,29,-1
 844 0 l 25,30,-1
 844 368 l 17,31,32
 1102 499 1102 499 1102 898 c 0,33,34
 1102 1075 1102 1075 1011 1211 c 0,35,36
 909 1364 909 1364 739 1364 c 0,37,38
 565 1364 565 1364 463 1211 c 0,39,40
 372 1075 372 1075 372 898 c 0,41,42
 372 499 372 499 630 368 c 9,43,-1
 630 0 l 25,0,-1
EndSplineSet
Validated: 1
EndChar

StartChar: estimated
Encoding: 8494 8494 175
Width: 1358
GlyphClass: 2
Flags: W
HStem: -15 73<501.557 855.461> 550 74<381 977> 1042 73<502.165 850.247>
VStem: 150 231<307.452 550 624 793.838> 977 231<624 789.607>
LayerCount: 2
Fore
SplineSet
381 550 m 1,0,-1
 381 179 l 1,1,2
 501 58 501 58 679 58 c 0,3,4
 933 58 933 58 1074 304 c 1,5,-1
 1146 261 l 1,6,7
 1026 88 1026 88 914 36.5 c 128,-1,8
 802 -15 802 -15 679 -15 c 0,9,10
 442 -15 442 -15 296 145 c 128,-1,11
 150 305 150 305 150 550 c 0,12,13
 150 797 150 797 297 956 c 128,-1,14
 444 1115 444 1115 679 1115 c 0,15,16
 893 1115 893 1115 1045 973 c 128,-1,17
 1197 831 1197 831 1208 550 c 1,18,-1
 381 550 l 1,0,-1
977 624 m 1,19,-1
 977 921 l 1,20,21
 849 1042 849 1042 677 1042 c 0,22,23
 502 1042 502 1042 381 920 c 1,24,-1
 381 624 l 1,25,-1
 977 624 l 1,19,-1
EndSplineSet
Validated: 3073
EndChar

StartChar: partialdiff
Encoding: 8706 8706 176
Width: 1267
GlyphClass: 2
Flags: W
HStem: 0 92<400 587.576> 883 84<654.972 885.467> 1427 83<623.242 789.693>
VStem: 150 212<147.417 518.018> 888 179<603.29 878.484 965 1264.05>
LayerCount: 2
Fore
SplineSet
458 0 m 0,0,1
 321 0 321 0 235.5 91 c 128,-1,2
 150 182 150 182 150 347 c 0,3,4
 150 556 150 556 303 734 c 0,5,6
 503 967 503 967 781 967 c 24,7,8
 816 967 816 967 886 965 c 1,9,10
 886 1113 886 1113 869 1201 c 0,11,12
 847 1313 847 1313 805 1369 c 0,13,14
 761 1427 761 1427 711 1427 c 0,15,16
 644 1427 644 1427 593 1347 c 0,17,18
 555 1287 555 1287 519 1157 c 1,19,-1
 384 1217 l 1,20,21
 453 1371 453 1371 552 1442 c 0,22,23
 647 1510 647 1510 744 1510 c 0,24,25
 876 1510 876 1510 971 1371 c 0,26,27
 1067 1231 1067 1231 1067 951 c 0,28,29
 1067 670 1067 670 980 438 c 0,30,31
 894 214 894 214 747 107 c 128,-1,32
 600 0 600 0 458 0 c 0,0,1
488 92 m 0,33,34
 562 92 562 92 636 189 c 0,35,36
 697 268 697 268 766 393 c 0,37,38
 856 555 856 555 888 867 c 1,39,40
 848 883 848 883 774 883 c 0,41,42
 667 883 667 883 557 755 c 0,43,44
 485 672 485 672 436 581 c 0,45,46
 362 444 362 444 362 333 c 0,47,48
 362 233 362 233 381 175 c 0,49,50
 409 92 409 92 488 92 c 0,33,34
EndSplineSet
Validated: 3073
EndChar

StartChar: uni2206
Encoding: 8710 8710 177
Width: 1138
GlyphClass: 2
Flags: W
HStem: 0 170<243 892> 1530 20G<596.805 655.565>
DStem2: 123 435 243 170 0.29947 0.954106<-214.776 878.365> 649 1550 571 1215 0.311879 -0.950122<293.964 1382.84>
LayerCount: 2
Fore
SplineSet
243 0 m 2,0,1
 50 0 50 0 50 134 c 0,2,3
 50 228 50 228 123 435 c 1,4,-1
 466 1468 l 1,5,-1
 639 1550 l 1,6,-1
 649 1550 l 1,7,-1
 1015 435 l 1,8,9
 1088 230 1088 230 1088 134 c 0,10,11
 1088 0 1088 0 895 0 c 2,12,-1
 243 0 l 2,0,1
243 170 m 9,13,-1
 892 170 l 17,14,-1
 571 1215 l 1,15,-1
 243 170 l 9,13,-1
EndSplineSet
Validated: 1
EndChar

StartChar: product
Encoding: 8719 8719 178
Width: 1390
GlyphClass: 2
Flags: W
HStem: -450 21G<200 252.222 990 1042.22> 1340 170<405.322 984.678>
VStem: 200 200<-360 1334.24> 990 200<-360 1334.24>
LayerCount: 2
Fore
SplineSet
200 -450 m 1,0,-1
 200 1296 l 2,1,2
 200 1510 200 1510 450 1510 c 2,3,-1
 940 1510 l 2,4,5
 1190 1510 1190 1510 1190 1296 c 2,6,-1
 1190 -360 l 1,7,-1
 1000 -450 l 1,8,-1
 990 -450 l 1,9,-1
 990 1296 l 2,10,11
 990 1340 990 1340 940 1340 c 2,12,-1
 450 1340 l 2,13,14
 400 1340 400 1340 400 1296 c 2,15,-1
 400 -360 l 1,16,-1
 210 -450 l 1,17,-1
 200 -450 l 1,0,-1
EndSplineSet
Validated: 1
EndChar

StartChar: summation
Encoding: 8721 8721 179
Width: 1168
GlyphClass: 2
Flags: W
HStem: -410 170<343 921.135> 1340 170<375 868>
DStem2: 233 -41 343 -240 0.487254 0.87326<-118.755 728.267> 375 1340 267 1146 0.496388 -0.868101<2.41596 750.605>
LayerCount: 2
Fore
SplineSet
343 -410 m 2,0,1
 150 -410 150 -410 150 -277 c 0,2,3
 150 -180 150 -180 233 -41 c 1,4,-1
 586 596 l 1,5,-1
 267 1146 l 1,6,7
 182 1290 182 1290 182 1376 c 0,8,9
 182 1510 182 1510 375 1510 c 2,10,-1
 943 1510 l 17,11,-1
 943 1500 l 1,12,-1
 868 1340 l 9,13,-1
 375 1340 l 17,14,-1
 805 588 l 1,15,-1
 343 -240 l 9,16,-1
 810 -240 l 2,17,18
 928 -240 928 -240 958 -123 c 1,19,20
 968 -123 l 1,21,-1
 1118 -194 l 1,22,23
 1058 -410 1058 -410 810 -410 c 2,24,-1
 343 -410 l 2,0,1
EndSplineSet
Validated: 1
EndChar

StartChar: minus
Encoding: 8722 8722 180
Width: 1214
GlyphClass: 2
Flags: W
HStem: 664 182<231 983>
LayerCount: 2
Fore
SplineSet
150 664 m 1,0,-1
 150 674 l 1,1,-1
 231 846 l 1,2,-1
 1064 846 l 1,3,-1
 1064 836 l 1,4,-1
 983 664 l 1,5,-1
 150 664 l 1,0,-1
EndSplineSet
Validated: 3073
EndChar

StartChar: uni2215
Encoding: 8725 8725 181
Width: 974
GlyphClass: 2
Flags: W
DStem2: 10 -72 161 -140 0.422626 0.906304<2.18787 1899.6>
LayerCount: 2
Fore
SplineSet
151 -140 m 1,0,-1
 10 -72 l 1,1,-1
 812 1650 l 1,2,-1
 822 1650 l 1,3,-1
 964 1582 l 1,4,-1
 161 -140 l 1,5,-1
 151 -140 l 1,0,-1
EndSplineSet
Validated: 3073
EndChar

StartChar: asteriskmath
Encoding: 8727 8727 182
Width: 1183
GlyphClass: 2
Flags: W
VStem: 500 182<387 605 921 1139>
DStem2: 311 1030 150 913 0.865946 -0.500138<0 218.179 533.824 752.003> 150 613 311 496 0.865946 0.500138<80.9012 299.08 614.726 832.904>
LayerCount: 2
Fore
SplineSet
682 1220 m 1,0,-1
 682 921 l 1,1,-1
 871 1030 l 1,2,-1
 1028 921 l 1,3,-1
 1033 913 l 1,4,-1
 773 763 l 1,5,-1
 1033 613 l 1,6,-1
 1028 605 l 1,7,-1
 871 496 l 1,8,-1
 682 605 l 1,9,-1
 682 387 l 1,10,-1
 510 306 l 1,11,-1
 500 306 l 1,12,-1
 500 605 l 1,13,-1
 311 496 l 1,14,-1
 155 605 l 1,15,-1
 150 613 l 1,16,-1
 409 763 l 1,17,-1
 150 913 l 1,18,-1
 155 921 l 1,19,-1
 311 1030 l 1,20,-1
 500 921 l 1,21,-1
 500 1139 l 1,22,-1
 672 1220 l 1,23,-1
 682 1220 l 1,0,-1
EndSplineSet
Validated: 3073
EndChar

StartChar: uni2218
Encoding: 8728 8728 183
Width: 1038
GlyphClass: 2
Flags: W
HStem: 354 147<412.81 627.922> 1007 147<412.738 627.832>
VStem: 150 196<572.787 935.568> 691 197<569.151 936.169>
LayerCount: 2
Fore
SplineSet
691 754 m 0,0,1
 691 883 691 883 635 954 c 0,2,3
 593 1007 593 1007 519 1007 c 0,4,5
 449 1007 449 1007 404 954 c 0,6,7
 346 886 346 886 346 754 c 0,8,9
 346 620 346 620 404 554 c 0,10,11
 450 501 450 501 519 501 c 0,12,13
 591 501 591 501 635 554 c 0,14,15
 691 621 691 621 691 754 c 0,0,1
150 757 m 0,16,17
 150 928 150 928 268 1054 c 0,18,19
 362 1154 362 1154 519 1154 c 0,20,21
 675 1154 675 1154 770 1054 c 0,22,23
 888 928 888 928 888 754 c 128,-1,24
 888 580 888 580 770 454 c 0,25,26
 676 354 676 354 519 354 c 128,-1,27
 362 354 362 354 268 454 c 0,28,29
 150 580 150 580 150 757 c 0,16,17
EndSplineSet
Validated: 1
EndChar

StartChar: uni2219
Encoding: 8729 8729 184
Width: 600
GlyphClass: 2
Flags: W
HStem: 631 245<216.097 383.903>
VStem: 180 240<668.129 838.871>
LayerCount: 2
Fore
SplineSet
180 753.5 m 132,-1,1
 180 804 180 804 215 840 c 132,-1,2
 250 876 250 876 300 876 c 132,-1,3
 350 876 350 876 385 840 c 132,-1,4
 420 804 420 804 420 753.5 c 132,-1,5
 420 703 420 703 385 667 c 132,-1,6
 350 631 350 631 300 631 c 132,-1,7
 250 631 250 631 215 667 c 132,-1,0
 180 703 180 703 180 753.5 c 132,-1,1
EndSplineSet
Validated: 1
EndChar

StartChar: radical
Encoding: 8730 8730 185
Width: 1452
GlyphClass: 2
Flags: W
HStem: -40 21G<508.235 567.195> 569 182<181 309> 1328 182<1178 1321>
DStem2: 458 751 309 569 0.320424 -0.947274<124.661 501.794> 605 271 698 42 0.349686 0.936867<0 1190.64>
LayerCount: 2
Fore
SplineSet
525 -40 m 1,0,-1
 515 -40 l 1,1,-1
 309 569 l 1,2,-1
 100 569 l 1,3,-1
 100 579 l 1,4,-1
 181 751 l 1,5,-1
 458 751 l 1,6,-1
 605 271 l 1,7,-1
 1057 1510 l 1,8,-1
 1402 1510 l 1,9,-1
 1402 1500 l 1,10,-1
 1321 1328 l 1,11,-1
 1178 1328 l 1,12,-1
 698 42 l 1,13,-1
 525 -40 l 1,0,-1
EndSplineSet
Validated: 1
EndChar

StartChar: uni221B
Encoding: 8731 8731 186
Width: 1452
GlyphClass: 2
Flags: W
HStem: -40 21G<508.235 567.195> 569 182<181 309> 791 121<401.96 577.78> 1328 182<1178 1321> 1388 122<360 536>
VStem: 605 135<942.679 1101.36>
DStem2: 458 751 309 569 0.320424 -0.947274<124.661 501.794> 605 271 698 42 0.349686 0.936867<0 1190.64>
LayerCount: 2
Fore
SplineSet
249 961 m 1,0,-1
 348 1009 l 1,1,-1
 372 1009 l 1,2,3
 412 912 412 912 490 912 c 0,4,5
 543 912 543 912 576 949 c 0,6,7
 605 982 605 982 605 1033 c 0,8,9
 605 1068 605 1068 580 1095 c 0,10,11
 554 1123 554 1123 480 1123 c 1,12,-1
 407 1193 l 1,13,-1
 536 1388 l 1,14,-1
 318 1388 l 1,15,-1
 318 1421 l 1,16,-1
 360 1510 l 1,17,-1
 583 1510 l 2,18,19
 686 1510 686 1510 686 1425 c 0,20,21
 686 1383 686 1383 642 1321 c 1,22,-1
 578 1235 l 1,23,24
 628 1224 628 1224 670 1187 c 0,25,26
 740 1126 740 1126 740 1034 c 0,27,28
 740 928 740 928 673 862 c 0,29,30
 600 791 600 791 485 791 c 0,31,32
 335 791 335 791 249 961 c 1,0,-1
525 -40 m 1,33,-1
 515 -40 l 1,34,-1
 309 569 l 1,35,-1
 100 569 l 1,36,-1
 100 579 l 1,37,-1
 181 751 l 1,38,-1
 458 751 l 1,39,-1
 605 271 l 1,40,-1
 1057 1510 l 1,41,-1
 1402 1510 l 1,42,-1
 1402 1500 l 1,43,-1
 1321 1328 l 1,44,-1
 1178 1328 l 1,45,-1
 698 42 l 1,46,-1
 525 -40 l 1,33,-1
EndSplineSet
Validated: 1
EndChar

StartChar: infinity
Encoding: 8734 8734 187
Width: 1579
GlyphClass: 2
Flags: W
HStem: 354 147<412.81 626.521 953.12 1168.92> 1007 147<412.738 626.665 953.048 1168.83>
VStem: 150 196<572.787 935.568> 691 196<571.781 935.344> 1232 197<569.151 936.169>
LayerCount: 2
Fore
SplineSet
1232 754 m 0,0,1
 1232 883 1232 883 1176 954 c 0,2,3
 1134 1007 1134 1007 1060 1007 c 0,4,5
 990 1007 990 1007 945 954 c 0,6,7
 887 886 887 886 887 754 c 0,8,9
 887 620 887 620 945 554 c 0,10,11
 991 501 991 501 1060 501 c 0,12,13
 1132 501 1132 501 1176 554 c 0,14,15
 1232 621 1232 621 1232 754 c 0,0,1
150 757 m 0,16,17
 150 928 150 928 268 1054 c 0,18,19
 362 1154 362 1154 519 1154 c 0,20,21
 679 1154 679 1154 770 1054 c 0,22,23
 780 1043 780 1043 789 1032 c 1,24,25
 799 1043 799 1043 809 1054 c 0,26,27
 900 1154 900 1154 1060 1154 c 0,28,29
 1216 1154 1216 1154 1311 1054 c 0,30,31
 1429 928 1429 928 1429 754 c 128,-1,32
 1429 580 1429 580 1311 454 c 0,33,34
 1217 354 1217 354 1060 354 c 0,35,36
 900 354 900 354 809 454 c 0,37,38
 799 465 799 465 790 476 c 1,39,40
 780 465 780 465 770 454 c 0,41,42
 679 354 679 354 519 354 c 0,43,44
 362 354 362 354 268 454 c 0,45,46
 150 580 150 580 150 757 c 0,16,17
691 754 m 0,47,48
 691 883 691 883 635 954 c 0,49,50
 593 1007 593 1007 519 1007 c 0,51,52
 449 1007 449 1007 404 954 c 0,53,54
 346 886 346 886 346 754 c 0,55,56
 346 620 346 620 404 554 c 0,57,58
 450 501 450 501 519 501 c 0,59,60
 591 501 591 501 635 554 c 0,61,62
 691 621 691 621 691 754 c 0,47,48
EndSplineSet
Validated: 1
EndChar

StartChar: approxequal
Encoding: 8776 8776 188
Width: 1138
GlyphClass: 2
Flags: W
HStem: 397 177<648.531 800.75> 581 177<337.25 489.469> 748 177<648.531 800.75> 932 177<337.25 489.469>
VStem: 150 178<478 571.507 829 922.507> 810 178<583.493 677 934.493 1028>
LayerCount: 2
Fore
SplineSet
150 397 m 1,0,1
 150 758 150 758 387 758 c 0,2,3
 521 758 521 758 610 657 c 0,4,5
 683 574 683 574 738 574 c 0,6,7
 810 574 810 574 810 677 c 1,8,-1
 978 758 l 1,9,-1
 988 758 l 1,10,11
 988 397 988 397 751 397 c 0,12,13
 617 397 617 397 528 498 c 0,14,15
 455 581 455 581 400 581 c 0,16,17
 328 581 328 581 328 478 c 1,18,-1
 160 397 l 1,19,-1
 150 397 l 1,0,1
150 748 m 1,20,21
 150 1109 150 1109 387 1109 c 0,22,23
 521 1109 521 1109 610 1008 c 0,24,25
 683 925 683 925 738 925 c 0,26,27
 810 925 810 925 810 1028 c 1,28,-1
 978 1109 l 1,29,-1
 988 1109 l 1,30,31
 988 748 988 748 751 748 c 0,32,33
 617 748 617 748 528 849 c 0,34,35
 455 932 455 932 400 932 c 0,36,37
 328 932 328 932 328 829 c 1,38,-1
 160 748 l 1,39,-1
 150 748 l 1,20,21
EndSplineSet
Validated: 1
EndChar

StartChar: notequal
Encoding: 8800 8800 189
Width: 1214
GlyphClass: 2
Flags: W
HStem: 482 182<231 389 656 983> 846 182<231 558 825 983>
DStem2: 289 268 440 200 0.42198 0.906605<2.06988 236.212 513.882 637.53 915.201 1149.34>
LayerCount: 2
Fore
SplineSet
430 200 m 1,0,-1
 289 268 l 1,1,-1
 389 482 l 1,2,-1
 150 482 l 1,3,-1
 150 492 l 1,4,-1
 231 664 l 1,5,-1
 473 664 l 1,6,-1
 558 846 l 1,7,-1
 150 846 l 1,8,-1
 150 856 l 1,9,-1
 231 1028 l 1,10,-1
 643 1028 l 1,11,-1
 774 1310 l 1,12,-1
 784 1310 l 1,13,-1
 925 1242 l 1,14,-1
 825 1028 l 1,15,-1
 1064 1028 l 1,16,-1
 1064 1018 l 1,17,-1
 983 846 l 1,18,-1
 741 846 l 1,19,-1
 656 664 l 1,20,-1
 1064 664 l 1,21,-1
 1064 654 l 1,22,-1
 983 482 l 1,23,-1
 571 482 l 1,24,-1
 440 200 l 1,25,-1
 430 200 l 1,0,-1
EndSplineSet
Validated: 3073
EndChar

StartChar: equivalence
Encoding: 8801 8801 190
Width: 1214
GlyphClass: 2
Flags: W
HStem: 300 182<231 983> 664 182<231 983> 1028 182<231 983>
CounterMasks: 1 e0
LayerCount: 2
Fore
SplineSet
150 300 m 1,0,-1
 150 310 l 1,1,-1
 231 482 l 1,2,-1
 1064 482 l 1,3,-1
 1064 472 l 1,4,-1
 983 300 l 1,5,-1
 150 300 l 1,0,-1
150 1028 m 1,6,-1
 150 1038 l 1,7,-1
 231 1210 l 1,8,-1
 1064 1210 l 1,9,-1
 1064 1200 l 1,10,-1
 983 1028 l 1,11,-1
 150 1028 l 1,6,-1
150 664 m 1,12,-1
 150 674 l 1,13,-1
 231 846 l 1,14,-1
 1064 846 l 1,15,-1
 1064 836 l 1,16,-1
 983 664 l 1,17,-1
 150 664 l 1,12,-1
EndSplineSet
Validated: 3073
EndChar

StartChar: lessequal
Encoding: 8804 8804 191
Width: 1338
GlyphClass: 2
Flags: W
HStem: 191 182<231 1057>
DStem2: 464 875 150 801 0.919983 -0.391958<0 724.931> 232 984 464 875 0.920009 0.391897<170.725 895.643>
LayerCount: 2
Fore
SplineSet
150 801 m 1,0,-1
 150 811 l 1,1,-1
 232 984 l 1,2,-1
 1056 1335 l 1,3,-1
 1138 1162 l 1,4,-1
 1138 1152 l 1,5,-1
 464 875 l 1,6,-1
 1138 598 l 1,7,-1
 1138 588 l 1,8,-1
 1056 415 l 1,9,-1
 150 801 l 1,0,-1
150 191 m 1,10,-1
 150 201 l 1,11,-1
 231 373 l 1,12,-1
 1138 373 l 1,13,-1
 1138 363 l 1,14,-1
 1057 191 l 1,15,-1
 150 191 l 1,10,-1
EndSplineSet
Validated: 1
EndChar

StartChar: greaterequal
Encoding: 8805 8805 192
Width: 1338
GlyphClass: 2
Flags: W
HStem: 191 182<281 1107>
DStem2: 282 1352 200 1169 0.919983 -0.391958<0 724.931> 200 615 282 432 0.920009 0.391897<3.72358 728.642>
LayerCount: 2
Fore
SplineSet
1188 966 m 1,0,-1
 1188 956 l 1,1,-1
 1106 783 l 1,2,-1
 282 432 l 1,3,-1
 200 605 l 1,4,-1
 200 615 l 1,5,-1
 874 892 l 1,6,-1
 200 1169 l 1,7,-1
 200 1179 l 1,8,-1
 282 1352 l 1,9,-1
 1188 966 l 1,0,-1
200 191 m 1,10,-1
 200 201 l 1,11,-1
 281 373 l 1,12,-1
 1188 373 l 1,13,-1
 1188 363 l 1,14,-1
 1107 191 l 1,15,-1
 200 191 l 1,10,-1
EndSplineSet
Validated: 1
EndChar

StartChar: lozenge
Encoding: 9674 9674 193
Width: 1174
GlyphClass: 2
Flags: W
HStem: 0 21G<574.344 599.605>
DStem2: 601 287 587 0 0.533177 0.846004<0 503.311>
LayerCount: 2
Fore
SplineSet
601 287 m 1,0,-1
 850 725 l 1,1,-1
 579 1200 l 1,2,-1
 328 754 l 1,3,-1
 601 287 l 1,0,-1
587 0 m 1,4,-1
 120 738 l 1,5,-1
 587 1510 l 1,6,-1
 1054 741 l 1,7,-1
 587 0 l 1,4,-1
EndSplineSet
Validated: 1
EndChar

StartChar: Oslash
Encoding: 216 216 194
Width: 1424
Flags: W
HStem: -40 21G<359.4 420.348> -20 170<562.453 862.791> 1360 170<561.404 864.266> 1530 20G<1003.65 1063.78>
VStem: 150 200<420.937 1088.3> 1074 200<421.924 1088.84>
DStem2: 297 10 411 -40 0.421596 0.906784<2.72271 104.275 344.955 1356.98 1596.76 1698.31>
LayerCount: 2
Fore
SplineSet
411 -40 m 1,0,-1
 401 -40 l 1,1,-1
 297 10 l 1,2,-1
 355 135 l 1,3,4
 295 198 295 198 246 288 c 0,5,6
 150 464 150 464 150 755 c 128,-1,7
 150 1046 150 1046 246 1222 c 0,8,9
 414 1530 414 1530 712 1530 c 0,10,11
 857 1530 857 1530 970 1458 c 1,12,-1
 1013 1550 l 1,13,-1
 1023 1550 l 1,14,-1
 1127 1499 l 1,15,-1
 1069 1375 l 1,16,17
 1129 1312 1129 1312 1178 1222 c 0,18,19
 1274 1045 1274 1045 1274 755 c 128,-1,20
 1274 465 1274 465 1178 288 c 0,21,22
 1011 -20 1011 -20 712 -20 c 0,23,24
 568 -20 568 -20 454 52 c 1,25,-1
 411 -40 l 1,0,-1
350 755 m 0,26,27
 350 496 350 496 418 366 c 0,28,29
 430 343 430 343 442 323 c 1,30,-1
 894 1294 l 1,31,32
 815 1360 815 1360 712 1360 c 0,33,34
 527 1360 527 1360 418 1144 c 0,35,36
 350 1009 350 1009 350 755 c 0,26,27
982 1188 m 1,37,-1
 531 217 l 1,38,39
 610 150 610 150 712 150 c 0,40,41
 897 150 897 150 1006 366 c 0,42,43
 1074 501 1074 501 1074 755 c 0,44,45
 1074 1014 1074 1014 1006 1144 c 0,46,47
 994 1167 994 1167 982 1188 c 1,37,-1
EndSplineSet
Validated: 1
EndChar

StartChar: oslash
Encoding: 248 248 195
Width: 1143
Flags: W
HStem: -40 21G<313.4 374.231> -20 170<470.349 684.732> 950 170<456.892 671.501> 1120 20G<766.625 827.176>
VStem: 150 200<299.145 824.094> 793 200<277.272 801.558>
DStem2: 251 10 365 -40 0.421347 0.906899<2.68859 74.2775 316.319 932.794 1175.32 1246>
LayerCount: 2
Fore
SplineSet
365 -40 m 1,0,-1
 355 -40 l 1,1,-1
 251 10 l 1,2,-1
 296 106 l 1,3,4
 256 151 256 151 222 211 c 0,5,6
 150 338 150 338 150 550 c 0,7,8
 150 757 150 757 222 889 c 0,9,10
 348 1120 348 1120 571 1120 c 0,11,12
 668 1120 668 1120 746 1076 c 1,13,-1
 776 1140 l 1,14,-1
 786 1140 l 1,15,-1
 891 1089 l 1,16,-1
 847 995 l 1,17,18
 887 950 887 950 920 889 c 0,19,20
 993 754 993 754 993 550 c 0,21,22
 993 342 993 342 921 211 c 0,23,24
 794 -20 794 -20 571 -20 c 0,25,26
 474 -20 474 -20 395 25 c 1,27,-1
 365 -40 l 1,0,-1
673 918 m 1,28,29
 628 950 628 950 571 950 c 0,30,31
 456 950 456 950 390 817 c 0,32,33
 350 736 350 736 350 550 c 0,34,35
 350 380 350 380 384 297 c 1,36,-1
 673 918 l 1,28,29
758 803 m 1,37,-1
 469 183 l 1,38,39
 514 150 514 150 571 150 c 0,40,41
 685 150 685 150 751 282 c 0,42,43
 793 365 793 365 793 550 c 0,44,45
 793 719 793 719 758 803 c 1,37,-1
EndSplineSet
Validated: 1
EndChar

StartChar: multiply
Encoding: 215 215 196
Width: 1075
Flags: W
HStem: 425 660
VStem: 409 257<626.5 883.5>
DStem2: 336 1085 150 1014 0.707107 -0.707107<0 284.257 466.69 751.654> 150 496 336 425 0.707107 0.707107<81.3173 365.574 548.008 832.972>
LayerCount: 2
Fore
SplineSet
150 1014 m 1,0,-1
 157 1021 l 1,1,-1
 336 1085 l 1,2,-1
 537 884 l 1,3,-1
 739 1085 l 1,4,-1
 918 1021 l 1,5,-1
 925 1014 l 1,6,-1
 666 755 l 1,7,-1
 925 496 l 1,8,-1
 918 489 l 1,9,-1
 739 425 l 1,10,-1
 537 626 l 1,11,-1
 336 425 l 1,12,-1
 157 489 l 1,13,-1
 150 496 l 1,14,-1
 409 755 l 1,15,-1
 150 1014 l 1,0,-1
EndSplineSet
Validated: 3073
EndChar

StartChar: divide
Encoding: 247 247 197
Width: 1214
Flags: W
HStem: 305 245<524.097 691.903> 664 182<231 983> 965 245<524.097 691.903>
VStem: 488 240<342.129 512.871 1002.13 1172.87>
LayerCount: 2
Fore
SplineSet
488 1087.5 m 128,-1,1
 488 1138 488 1138 523 1174 c 128,-1,2
 558 1210 558 1210 608 1210 c 128,-1,3
 658 1210 658 1210 693 1174 c 128,-1,4
 728 1138 728 1138 728 1087.5 c 128,-1,5
 728 1037 728 1037 693 1001 c 128,-1,6
 658 965 658 965 608 965 c 128,-1,7
 558 965 558 965 523 1001 c 128,-1,0
 488 1037 488 1037 488 1087.5 c 128,-1,1
488 427.5 m 128,-1,9
 488 478 488 478 523 514 c 128,-1,10
 558 550 558 550 608 550 c 128,-1,11
 658 550 658 550 693 514 c 128,-1,12
 728 478 728 478 728 427.5 c 128,-1,13
 728 377 728 377 693 341 c 128,-1,14
 658 305 658 305 608 305 c 128,-1,15
 558 305 558 305 523 341 c 128,-1,8
 488 377 488 377 488 427.5 c 128,-1,9
150 664 m 1,16,-1
 150 674 l 1,17,-1
 231 846 l 1,18,-1
 1064 846 l 1,19,-1
 1064 836 l 1,20,-1
 983 664 l 1,21,-1
 150 664 l 1,16,-1
EndSplineSet
Validated: 1
EndChar

StartChar: uni1E02
Encoding: 7682 7682 198
Width: 1397
Flags: W
HStem: 0 170<385.322 913.307> 756 170<389 878> 1360 170<591.404 882.722> 1680 245<610.097 777.903>
VStem: 180 200<175.756 756 926 1087.41> 574 240<1717.13 1887.87> 957 199<1001.99 1285.32> 1047 200<296.691 627.096>
LayerCount: 2
Fore
SplineSet
430 0 m 2,0,1
 180 0 180 0 180 214 c 2,2,-1
 180 755 l 2,3,4
 180 1046 180 1046 276 1222 c 0,5,6
 444 1530 444 1530 742 1530 c 0,7,8
 910 1530 910 1530 1023 1438 c 0,9,10
 1156 1329 1156 1329 1156 1141 c 0,11,12
 1156 969 1156 969 1004 855 c 1,13,14
 1053 834 1053 834 1101 792 c 0,15,16
 1247 659 1247 659 1247 462 c 0,17,18
 1247 264 1247 264 1119 137 c 0,19,20
 981 0 981 0 742 0 c 2,21,-1
 430 0 l 2,0,1
742 756 m 2,22,-1
 380 756 l 1,23,-1
 380 755 l 1,24,-1
 380 214 l 2,25,26
 380 170 380 170 430 170 c 2,27,-1
 742 170 l 2,28,29
 888 170 888 170 980 268 c 0,30,31
 1047 339 1047 339 1047 456 c 0,32,33
 1047 579 1047 579 982 654 c 0,34,35
 894 756 894 756 742 756 c 2,22,-1
389 926 m 1,36,-1
 742 926 l 2,37,38
 842 926 842 926 903 991 c 0,39,40
 957 1050 957 1050 957 1146 c 0,41,42
 957 1241 957 1241 899.5 1300.5 c 128,-1,43
 842 1360 842 1360 742 1360 c 0,44,45
 557 1360 557 1360 448 1144 c 0,46,47
 405 1059 405 1059 389 926 c 1,36,-1
574 1802.5 m 128,-1,49
 574 1853 574 1853 609 1889 c 128,-1,50
 644 1925 644 1925 694 1925 c 128,-1,51
 744 1925 744 1925 779 1889 c 128,-1,52
 814 1853 814 1853 814 1802.5 c 128,-1,53
 814 1752 814 1752 779 1716 c 128,-1,54
 744 1680 744 1680 694 1680 c 128,-1,55
 644 1680 644 1680 609 1716 c 128,-1,48
 574 1752 574 1752 574 1802.5 c 128,-1,49
EndSplineSet
Validated: 1
EndChar

StartChar: uni1E03
Encoding: 7683 7683 199
Width: 1173
Flags: W
HStem: -20 170<488.376 714.489> 949 171<484.579 714.892> 1285 245<595.097 762.903> 1530 20G<327.778 380>
VStem: 180 200<277.907 824.183 1016 1460> 559 240<1322.13 1492.87> 823 200<277.272 822.354>
LayerCount: 2
Fore
SplineSet
380 550 m 0,0,1
 380 362 380 362 421 282 c 0,2,3
 489 150 489 150 601 150 c 0,4,5
 714 150 714 150 781 282 c 0,6,7
 823 365 823 365 823 550 c 128,-1,8
 823 735 823 735 781 818 c 0,9,10
 715 949 715 949 601 949 c 0,11,12
 486 949 486 949 420 816 c 0,13,14
 380 735 380 735 380 550 c 0,0,1
380 1016 m 1,15,16
 479 1120 479 1120 601 1120 c 0,17,18
 825 1120 825 1120 950 889 c 0,19,20
 1023 756 1023 756 1023 550 c 0,21,22
 1023 342 1023 342 951 211 c 0,23,24
 824 -20 824 -20 601 -20 c 0,25,26
 381 -20 381 -20 252 211 c 0,27,28
 180 340 180 340 180 550 c 2,29,-1
 180 1460 l 1,30,-1
 370 1550 l 1,31,-1
 380 1550 l 1,32,-1
 380 1016 l 1,15,16
559 1407.5 m 128,-1,34
 559 1458 559 1458 594 1494 c 128,-1,35
 629 1530 629 1530 679 1530 c 128,-1,36
 729 1530 729 1530 764 1494 c 128,-1,37
 799 1458 799 1458 799 1407.5 c 128,-1,38
 799 1357 799 1357 764 1321 c 128,-1,39
 729 1285 729 1285 679 1285 c 128,-1,40
 629 1285 629 1285 594 1321 c 128,-1,33
 559 1357 559 1357 559 1407.5 c 128,-1,34
EndSplineSet
Validated: 1
EndChar

StartChar: uni1E0A
Encoding: 7690 7690 200
Width: 1454
Flags: W
HStem: 0 170<385.322 889.93> 1360 170<591.404 893.039> 1680 245<631.097 798.903>
VStem: 180 200<175.756 1087.41> 595 240<1717.13 1887.87> 1104 200<456.665 1088.15>
LayerCount: 2
Fore
SplineSet
430 0 m 2,0,1
 180 0 180 0 180 214 c 2,2,-1
 180 755 l 2,3,4
 180 1046 180 1046 276 1222 c 0,5,6
 444 1530 444 1530 742 1530 c 0,7,8
 1041 1530 1041 1530 1208 1222 c 0,9,10
 1304 1046 1304 1046 1304 755 c 0,11,12
 1304 504 1304 504 1206 314 c 0,13,14
 1044 0 1044 0 742 0 c 10,15,-1
 430 0 l 2,0,1
742 170 m 18,16,17
 929 170 929 170 1034 392 c 0,18,19
 1104 540 1104 540 1104 755 c 0,20,21
 1104 1008 1104 1008 1036 1144 c 0,22,23
 928 1360 928 1360 742 1360 c 0,24,25
 557 1360 557 1360 448 1144 c 0,26,27
 380 1010 380 1010 380 755 c 2,28,-1
 380 214 l 2,29,30
 380 170 380 170 430 170 c 10,31,-1
 742 170 l 18,16,17
595 1802.5 m 128,-1,33
 595 1853 595 1853 630 1889 c 128,-1,34
 665 1925 665 1925 715 1925 c 128,-1,35
 765 1925 765 1925 800 1889 c 128,-1,36
 835 1853 835 1853 835 1802.5 c 128,-1,37
 835 1752 835 1752 800 1716 c 128,-1,38
 765 1680 765 1680 715 1680 c 128,-1,39
 665 1680 665 1680 630 1716 c 128,-1,32
 595 1752 595 1752 595 1802.5 c 128,-1,33
EndSplineSet
Validated: 1
EndChar

StartChar: uni1E0B
Encoding: 7691 7691 201
Width: 1173
Flags: W
HStem: -20 170<458.376 684.489> 949 171<457.108 687.396> 1285 245<382.097 549.903> 1530 20G<940.778 993>
VStem: 150 200<276.913 821.744> 346 240<1322.13 1492.87> 793 200<277.907 822.062 1015 1460>
LayerCount: 2
Fore
SplineSet
150 550 m 0,0,1
 150 758 150 758 222 889 c 0,2,3
 347 1120 347 1120 571 1120 c 0,4,5
 701 1120 701 1120 793 1015 c 1,6,-1
 793 1460 l 1,7,-1
 983 1550 l 1,8,-1
 993 1550 l 1,9,-1
 993 550 l 2,10,11
 993 342 993 342 921 211 c 0,12,13
 794 -20 794 -20 571 -20 c 0,14,15
 351 -20 351 -20 222 211 c 0,16,17
 150 340 150 340 150 550 c 0,0,1
350 550 m 0,18,19
 350 362 350 362 391 282 c 0,20,21
 459 150 459 150 571 150 c 0,22,23
 684 150 684 150 751 282 c 0,24,25
 793 365 793 365 793 550 c 128,-1,26
 793 735 793 735 751 818 c 0,27,28
 685 949 685 949 571 949 c 128,-1,29
 457 949 457 949 391 816 c 0,30,31
 350 733 350 733 350 550 c 0,18,19
346 1407.5 m 128,-1,33
 346 1458 346 1458 381 1494 c 128,-1,34
 416 1530 416 1530 466 1530 c 128,-1,35
 516 1530 516 1530 551 1494 c 128,-1,36
 586 1458 586 1458 586 1407.5 c 128,-1,37
 586 1357 586 1357 551 1321 c 128,-1,38
 516 1285 516 1285 466 1285 c 128,-1,39
 416 1285 416 1285 381 1321 c 128,-1,32
 346 1357 346 1357 346 1407.5 c 128,-1,33
EndSplineSet
Validated: 1
EndChar

StartChar: uni1E1E
Encoding: 7710 7710 202
Width: 1110
Flags: W
HStem: -40 21G<180 232.222> 670 170<382 875> 1360 170<592.86 935> 1680 245<506.097 673.903>
VStem: 180 200<50 670 840 1087.11> 470 240<1717.13 1887.87>
LayerCount: 2
Fore
SplineSet
180 -40 m 9,0,-1
 180 755 l 2,1,2
 180 1047 180 1047 276 1222 c 0,3,4
 444 1530 444 1530 742 1530 c 2,5,-1
 1010 1530 l 1,6,-1
 1010 1520 l 1,7,-1
 935 1360 l 1,8,-1
 742 1360 l 2,9,10
 556 1360 556 1360 448 1144 c 0,11,12
 392 1032 392 1032 382 840 c 1,13,-1
 950 840 l 1,14,-1
 950 830 l 1,15,-1
 875 670 l 1,16,-1
 380 670 l 1,17,-1
 380 50 l 17,18,19
 190 -40 l 1,20,-1
 180 -40 l 9,0,-1
470 1802.5 m 128,-1,22
 470 1853 470 1853 505 1889 c 128,-1,23
 540 1925 540 1925 590 1925 c 128,-1,24
 640 1925 640 1925 675 1889 c 128,-1,25
 710 1853 710 1853 710 1802.5 c 128,-1,26
 710 1752 710 1752 675 1716 c 128,-1,27
 640 1680 640 1680 590 1680 c 128,-1,28
 540 1680 540 1680 505 1716 c 128,-1,21
 470 1752 470 1752 470 1802.5 c 128,-1,22
EndSplineSet
Validated: 1
EndChar

StartChar: uni1E1F
Encoding: 7711 7711 203
Width: 836
Flags: W
HStem: -40 21G<180 232.222> 830 170<380 661> 1360 170<489.375 660> 1680 245<376.097 543.903>
VStem: 180 200<50 830 1000 1232.09> 340 240<1717.13 1887.87>
LayerCount: 2
Fore
SplineSet
180 -40 m 1,0,-1
 180 960 l 2,1,2
 180 1168 180 1168 252 1299 c 0,3,4
 378 1530 378 1530 601 1530 c 2,5,-1
 736 1530 l 1,6,-1
 736 1520 l 1,7,-1
 660 1360 l 1,8,-1
 601 1360 l 2,9,10
 488 1360 488 1360 421 1228 c 0,11,12
 385 1157 385 1157 380 1000 c 1,13,-1
 736 1000 l 1,14,-1
 736 990 l 1,15,-1
 661 830 l 1,16,-1
 380 830 l 1,17,-1
 380 50 l 1,18,-1
 190 -40 l 1,19,-1
 180 -40 l 1,0,-1
340 1802.5 m 128,-1,21
 340 1853 340 1853 375 1889 c 128,-1,22
 410 1925 410 1925 460 1925 c 128,-1,23
 510 1925 510 1925 545 1889 c 128,-1,24
 580 1853 580 1853 580 1802.5 c 128,-1,25
 580 1752 580 1752 545 1716 c 128,-1,26
 510 1680 510 1680 460 1680 c 128,-1,27
 410 1680 410 1680 375 1716 c 128,-1,20
 340 1752 340 1752 340 1802.5 c 128,-1,21
EndSplineSet
Validated: 1
EndChar

StartChar: uni1E40
Encoding: 7744 7744 204
Width: 2348
Flags: W
HStem: -40 21G<489.5 618.067 1074 1126.22 1729.93 1858.5> 1360 170<560.961 861.427 1486.33 1786.79> 1680 245<1122.1 1289.9>
VStem: 150 200<422.522 1088.08> 1074 200<50 1089.19> 1086 240<1717.13 1887.87> 1998 200<422.674 1088.08>
LayerCount: 2
Fore
SplineSet
1074 -40 m 1,0,-1
 1074 755 l 2,1,2
 1074 1009 1074 1009 1006 1144 c 0,3,4
 896 1360 896 1360 712 1360 c 0,5,6
 526 1360 526 1360 418 1144 c 0,7,8
 350 1009 350 1009 350 755 c 0,9,10
 350 499 350 499 418 366 c 0,11,12
 507 192 507 192 683 109 c 1,13,-1
 608 -40 l 1,14,-1
 598 -40 l 1,15,16
 381 34 381 34 246 288 c 0,17,18
 150 469 150 469 150 755 c 0,19,20
 150 1045 150 1045 246 1222 c 0,21,22
 413 1530 413 1530 712 1530 c 0,23,24
 1006 1530 1006 1530 1174 1229 c 1,25,26
 1342 1530 1342 1530 1636 1530 c 0,27,28
 1935 1530 1935 1530 2102 1222 c 0,29,30
 2198 1045 2198 1045 2198 755 c 0,31,32
 2198 469 2198 469 2102 288 c 0,33,34
 1967 34 1967 34 1750 -40 c 1,35,-1
 1740 -40 l 1,36,-1
 1665 109 l 1,37,38
 1842 193 1842 193 1930 366 c 0,39,40
 1998 500 1998 500 1998 755 c 0,41,42
 1998 1009 1998 1009 1930 1144 c 0,43,44
 1821 1360 1821 1360 1636 1360 c 128,-1,45
 1451 1360 1451 1360 1342 1144 c 0,46,47
 1274 1009 1274 1009 1274 755 c 2,48,-1
 1274 50 l 1,49,-1
 1084 -40 l 1,50,-1
 1074 -40 l 1,0,-1
1086 1802.5 m 128,-1,52
 1086 1853 1086 1853 1121 1889 c 128,-1,53
 1156 1925 1156 1925 1206 1925 c 128,-1,54
 1256 1925 1256 1925 1291 1889 c 128,-1,55
 1326 1853 1326 1853 1326 1802.5 c 128,-1,56
 1326 1752 1326 1752 1291 1716 c 128,-1,57
 1256 1680 1256 1680 1206 1680 c 128,-1,58
 1156 1680 1156 1680 1121 1716 c 128,-1,51
 1086 1752 1086 1752 1086 1802.5 c 128,-1,52
EndSplineSet
Validated: 1
EndChar

StartChar: uni1E41
Encoding: 7745 7745 205
Width: 1786
Flags: W
HStem: -40 21G<395 501.067 793 845.222 1284.93 1391> 950 170<458.316 688.8 1100.43 1327.93> 1285 245<806.097 973.903>
VStem: 150 200<278.396 822.37> 770 240<1322.13 1492.87> 793 200<50 822.093> 1436 200<277.712 822.37>
LayerCount: 2
Fore
SplineSet
793 -40 m 1,0,-1
 793 550 l 2,1,2
 793 733 793 733 752 818 c 0,3,4
 688 950 688 950 572 950 c 0,5,6
 459 950 459 950 392 818 c 0,7,8
 350 733 350 733 350 550 c 0,9,10
 350 386 350 386 392 282 c 0,11,12
 445 152 445 152 566 109 c 1,13,-1
 491 -40 l 1,14,-1
 481 -40 l 1,15,16
 309 28 309 28 222 211 c 0,17,18
 150 362 150 362 150 550 c 0,19,20
 150 756 150 756 222 889 c 0,21,22
 348 1120 348 1120 572 1120 c 0,23,24
 771 1120 771 1120 893 936 c 1,25,26
 1015 1120 1015 1120 1214 1120 c 0,27,28
 1438 1120 1438 1120 1564 889 c 0,29,30
 1636 756 1636 756 1636 550 c 0,31,32
 1636 358 1636 358 1564 211 c 1,33,34
 1477 28 1477 28 1305 -40 c 1,35,-1
 1295 -40 l 1,36,-1
 1220 109 l 1,37,38
 1341 152 1341 152 1394 282 c 0,39,40
 1436 386 1436 386 1436 550 c 0,41,42
 1436 733 1436 733 1394 818 c 0,43,44
 1328 950 1328 950 1214 950 c 128,-1,45
 1100 950 1100 950 1034 818 c 0,46,47
 993 735 993 735 993 550 c 2,48,-1
 993 50 l 1,49,-1
 803 -40 l 1,50,-1
 793 -40 l 1,0,-1
770 1407.5 m 128,-1,52
 770 1458 770 1458 805 1494 c 128,-1,53
 840 1530 840 1530 890 1530 c 128,-1,54
 940 1530 940 1530 975 1494 c 128,-1,55
 1010 1458 1010 1458 1010 1407.5 c 128,-1,56
 1010 1357 1010 1357 975 1321 c 128,-1,57
 940 1285 940 1285 890 1285 c 128,-1,58
 840 1285 840 1285 805 1321 c 128,-1,51
 770 1357 770 1357 770 1407.5 c 128,-1,52
EndSplineSet
Validated: 1
EndChar

StartChar: uni1E56
Encoding: 7766 7766 206
Width: 1374
Flags: W
HStem: -40 21G<180 232.222> 500 170<380 897.829> 1360 170<591.652 896.168> 1680 245<631.097 798.903>
VStem: 180 200<50 500 670 1087.41> 595 240<1717.13 1887.87> 1054 200<832.509 1195.03>
LayerCount: 2
Fore
SplineSet
180 -40 m 1,0,-1
 180 755 l 2,1,2
 180 1046 180 1046 276 1222 c 0,3,4
 444 1530 444 1530 742 1530 c 0,5,6
 991 1530 991 1530 1135 1346 c 24,7,8
 1254 1194 1254 1194 1254 1005 c 0,9,10
 1254 833 1254 833 1133 684 c 0,11,12
 983 500 983 500 692 500 c 2,13,-1
 380 500 l 1,14,-1
 380 50 l 1,15,-1
 190 -40 l 1,16,-1
 180 -40 l 1,0,-1
380 670 m 1,17,-1
 692 670 l 2,18,19
 880 670 880 670 961 762 c 0,20,21
 1054 868 1054 868 1054 1005 c 0,22,23
 1054 1167 1054 1167 958 1267 c 0,24,25
 868 1360 868 1360 742 1360 c 0,26,27
 558 1360 558 1360 448 1144 c 0,28,29
 380 1010 380 1010 380 755 c 2,30,-1
 380 670 l 1,17,-1
595 1802.5 m 128,-1,32
 595 1853 595 1853 630 1889 c 128,-1,33
 665 1925 665 1925 715 1925 c 128,-1,34
 765 1925 765 1925 800 1889 c 128,-1,35
 835 1853 835 1853 835 1802.5 c 128,-1,36
 835 1752 835 1752 800 1716 c 128,-1,37
 765 1680 765 1680 715 1680 c 128,-1,38
 665 1680 665 1680 630 1716 c 128,-1,31
 595 1752 595 1752 595 1802.5 c 128,-1,32
EndSplineSet
Validated: 1
EndChar

StartChar: uni1E57
Encoding: 7767 7767 207
Width: 1163
Flags: W
HStem: -450 21G<170 222.222> -20 170<477.353 705.927> 950 170<477.857 708.405> 1285 245<536.097 703.903>
VStem: 170 200<-360 85 277.907 821.124> 500 240<1322.13 1492.87> 814 199<277.272 820.765>
LayerCount: 2
Fore
SplineSet
371 550 m 128,-1,1
 371 364 371 364 412 282 c 0,2,3
 478 150 478 150 592 150 c 128,-1,4
 706 150 706 150 772 282 c 0,5,6
 814 365 814 365 814 550 c 128,-1,7
 814 735 814 735 772 818 c 0,8,9
 707 950 707 950 592 950 c 128,-1,10
 477 950 477 950 411 817 c 0,11,0
 371 736 371 736 371 550 c 128,-1,1
170 -450 m 1,12,-1
 170 550 l 2,13,14
 170 758 170 758 242 889 c 0,15,16
 369 1120 369 1120 592 1120 c 0,17,18
 812 1120 812 1120 941 889 c 0,19,20
 1013 760 1013 760 1013 550 c 0,21,22
 1013 342 1013 342 942 211 c 0,23,24
 816 -20 816 -20 592 -20 c 0,25,26
 462 -20 462 -20 370 85 c 1,27,-1
 370 -360 l 1,28,-1
 180 -450 l 1,29,-1
 170 -450 l 1,12,-1
500 1407.5 m 128,-1,31
 500 1458 500 1458 535 1494 c 128,-1,32
 570 1530 570 1530 620 1530 c 128,-1,33
 670 1530 670 1530 705 1494 c 128,-1,34
 740 1458 740 1458 740 1407.5 c 128,-1,35
 740 1357 740 1357 705 1321 c 128,-1,36
 670 1285 670 1285 620 1285 c 128,-1,37
 570 1285 570 1285 535 1321 c 128,-1,30
 500 1357 500 1357 500 1407.5 c 128,-1,31
EndSplineSet
Validated: 1
EndChar

StartChar: uni1E6A
Encoding: 7786 7786 208
Width: 1066
Flags: W
HStem: -40 21G<433 485.222> 1340 170<201.389 434 634 986> 1680 245<442.097 609.903>
VStem: 406 240<1717.13 1887.87> 433 200<50 1340>
LayerCount: 2
Fore
SplineSet
433 -40 m 1,0,-1
 434 1340 l 25,1,-1
 313 1340 l 18,2,3
 194 1340 194 1340 165 1223 c 1,4,-1
 155 1223 l 1,5,-1
 5 1294 l 1,6,7
 64 1510 64 1510 313 1510 c 2,8,-1
 1061 1510 l 17,9,-1
 1061 1500 l 1,10,-1
 986 1340 l 1,11,-1
 634 1340 l 1,12,-1
 633 50 l 1,13,-1
 443 -40 l 1,14,-1
 433 -40 l 1,0,-1
406 1802.5 m 128,-1,16
 406 1853 406 1853 441 1889 c 128,-1,17
 476 1925 476 1925 526 1925 c 128,-1,18
 576 1925 576 1925 611 1889 c 128,-1,19
 646 1853 646 1853 646 1802.5 c 128,-1,20
 646 1752 646 1752 611 1716 c 128,-1,21
 576 1680 576 1680 526 1680 c 128,-1,22
 476 1680 476 1680 441 1716 c 128,-1,15
 406 1752 406 1752 406 1802.5 c 128,-1,16
EndSplineSet
Validated: 1
EndChar

StartChar: uni1E6B
Encoding: 7787 7787 209
Width: 754
Flags: W
HStem: -40 21G<277 329.222> 930 170<95 277 477 659> 1530 20G<424.778 477> 1680 245<298.097 465.903>
VStem: 262 240<1717.13 1887.87> 277 200<50 930 1100 1460>
LayerCount: 2
Fore
SplineSet
277 -40 m 1,0,-1
 277 930 l 1,1,-1
 20 930 l 1,2,-1
 20 940 l 1,3,-1
 95 1100 l 1,4,-1
 277 1100 l 1,5,-1
 277 1460 l 1,6,-1
 467 1550 l 1,7,-1
 477 1550 l 1,8,-1
 477 1100 l 1,9,-1
 734 1100 l 1,10,-1
 734 1090 l 1,11,-1
 659 930 l 1,12,-1
 477 930 l 1,13,-1
 477 50 l 1,14,-1
 287 -40 l 1,15,-1
 277 -40 l 1,0,-1
262 1802.5 m 128,-1,17
 262 1853 262 1853 297 1889 c 128,-1,18
 332 1925 332 1925 382 1925 c 128,-1,19
 432 1925 432 1925 467 1889 c 128,-1,20
 502 1853 502 1853 502 1802.5 c 128,-1,21
 502 1752 502 1752 467 1716 c 128,-1,22
 432 1680 432 1680 382 1680 c 128,-1,23
 332 1680 332 1680 297 1716 c 128,-1,16
 262 1752 262 1752 262 1802.5 c 128,-1,17
EndSplineSet
Validated: 1
EndChar

StartChar: uni1E60
Encoding: 7776 7776 210
Width: 1210
Flags: W
HStem: -20 170<434.961 733.932> 1360 170<480.281 729.613> 1680 245<512.097 679.903>
VStem: 201 200<1029.83 1281.62> 476 240<1717.13 1887.87> 888 202<305.964 621.994>
LayerCount: 2
Fore
SplineSet
120 288 m 1,0,1
 282 366 l 1,2,-1
 292 366 l 1,3,4
 400 150 400 150 586 150 c 0,5,6
 714 150 714 150 815 265 c 0,7,8
 888 349 888 349 888 478 c 0,9,10
 888 578 888 578 824 646 c 0,11,12
 750 725 750 725 604 756 c 0,13,14
 452 787 452 787 339 868 c 0,15,16
 201 968 201 968 201 1132 c 0,17,18
 201 1312 201 1312 330 1428 c 0,19,20
 442 1530 442 1530 616 1530 c 16,21,22
 840 1530 840 1530 964 1302 c 1,23,-1
 806 1227 l 1,24,-1
 796 1227 l 1,25,26
 729 1360 729 1360 616 1360 c 16,27,28
 520 1359 520 1359 461 1299 c 0,29,30
 401 1238 401 1238 401 1147 c 0,31,32
 401 1067 401 1067 454 1021 c 0,33,34
 521 963 521 963 661 935 c 0,35,36
 848 899 848 899 969 779 c 0,37,38
 1090 658 1090 658 1090 472 c 0,39,40
 1090 282 1090 282 946 132 c 0,41,42
 803 -20 803 -20 586 -20 c 0,43,44
 287 -20 287 -20 120 288 c 1,0,1
476 1802.5 m 128,-1,46
 476 1853 476 1853 511 1889 c 128,-1,47
 546 1925 546 1925 596 1925 c 128,-1,48
 646 1925 646 1925 681 1889 c 128,-1,49
 716 1853 716 1853 716 1802.5 c 128,-1,50
 716 1752 716 1752 681 1716 c 128,-1,51
 646 1680 646 1680 596 1680 c 128,-1,52
 546 1680 546 1680 511 1716 c 128,-1,45
 476 1752 476 1752 476 1802.5 c 128,-1,46
EndSplineSet
Validated: 1
EndChar

StartChar: uni1E61
Encoding: 7777 7777 211
Width: 1003
Flags: W
HStem: -20 170<354.143 609.506> 950 170<393.857 584.776> 1285 245<400.097 567.903>
VStem: 164 191<736.836 918.788> 364 240<1322.13 1492.87> 687 196<227.805 459.732>
LayerCount: 2
Fore
SplineSet
120 208 m 1,0,1
 278 282 l 1,2,-1
 288 282 l 1,3,4
 354 150 354 150 468 150 c 0,5,6
 578 150 578 150 638 222 c 0,7,8
 687 281 687 281 687 351 c 0,9,10
 687 424 687 424 635 467 c 0,11,12
 581 511 581 511 479 527 c 0,13,14
 349 548 349 548 272 603 c 0,15,16
 164 680 164 680 164 825 c 0,17,18
 164 964 164 964 291 1055 c 0,19,20
 383 1120 383 1120 498 1120 c 0,21,22
 695 1120 695 1120 784 930 c 1,23,-1
 626 856 l 1,24,-1
 616 856 l 1,25,26
 571 950 571 950 498 950 c 0,27,28
 439 950 439 950 401 920 c 0,29,30
 355 884 355 884 355 821 c 0,31,32
 355 760 355 760 405 733 c 0,33,34
 456 705 456 705 561 684 c 0,35,36
 691 658 691 658 772 595 c 0,37,38
 883 509 883 509 883 340 c 0,39,40
 883 209 883 209 768 92 c 0,41,42
 659 -20 659 -20 468 -20 c 0,43,44
 244 -20 244 -20 120 208 c 1,0,1
364 1407.5 m 128,-1,46
 364 1458 364 1458 399 1494 c 128,-1,47
 434 1530 434 1530 484 1530 c 128,-1,48
 534 1530 534 1530 569 1494 c 128,-1,49
 604 1458 604 1458 604 1407.5 c 128,-1,50
 604 1357 604 1357 569 1321 c 128,-1,51
 534 1285 534 1285 484 1285 c 128,-1,52
 434 1285 434 1285 399 1321 c 128,-1,45
 364 1357 364 1357 364 1407.5 c 128,-1,46
EndSplineSet
Validated: 1
EndChar

StartChar: Wgrave
Encoding: 7808 7808 212
Width: 2348
Flags: W
HStem: -20 170<560.961 861.675 1486.33 1786.79> 1530 20G<489.5 618.067 1221.78 1274 1729.93 1858.5>
VStem: 150 200<421.924 1087.33> 1074 200<420.809 1460> 1998 200<421.924 1087.48>
CounterMasks: 1 38
LayerCount: 2
Fore
SplineSet
1274 1550 m 1,0,-1
 1274 755 l 2,1,2
 1274 501 1274 501 1342 366 c 0,3,4
 1451 150 1451 150 1636 150 c 128,-1,5
 1821 150 1821 150 1930 366 c 0,6,7
 1998 501 1998 501 1998 755 c 0,8,9
 1998 1011 1998 1011 1930 1144 c 0,10,11
 1841 1318 1841 1318 1665 1401 c 1,12,-1
 1740 1550 l 1,13,-1
 1750 1550 l 1,14,15
 1967 1476 1967 1476 2102 1222 c 0,16,17
 2198 1041 2198 1041 2198 755 c 0,18,19
 2198 465 2198 465 2102 288 c 0,20,21
 1935 -20 1935 -20 1636 -20 c 0,22,23
 1342 -20 1342 -20 1174 281 c 1,24,25
 1006 -20 1006 -20 712 -20 c 0,26,27
 413 -20 413 -20 246 288 c 0,28,29
 150 465 150 465 150 755 c 0,30,31
 150 1041 150 1041 246 1222 c 0,32,33
 381 1476 381 1476 598 1550 c 1,34,-1
 608 1550 l 1,35,-1
 683 1401 l 1,36,37
 506 1317 506 1317 418 1144 c 0,38,39
 350 1010 350 1010 350 755 c 0,40,41
 350 501 350 501 418 366 c 0,42,43
 526 150 526 150 712 150 c 0,44,45
 897 150 897 150 1006 366 c 0,46,47
 1074 501 1074 501 1074 755 c 2,48,-1
 1074 1460 l 1,49,-1
 1264 1550 l 1,50,-1
 1274 1550 l 1,0,-1
1051 1966 m 1,51,-1
 1061 1966 l 1,52,-1
 1223 1621 l 1,53,-1
 1106 1566 l 1,54,-1
 1096 1566 l 1,55,-1
 875 1882 l 1,56,-1
 1051 1966 l 1,51,-1
EndSplineSet
Validated: 1
EndChar

StartChar: wgrave
Encoding: 7809 7809 213
Width: 1786
Flags: W
HStem: -20 170<457.877 685.57 1097.2 1327.93> 1120 20G<395 501.067 940.778 993 1284.93 1391>
VStem: 150 200<277.63 821.604> 793 200<277.907 1050> 1436 200<277.63 821.604>
CounterMasks: 1 38
LayerCount: 2
Fore
SplineSet
993 1140 m 1,0,-1
 993 550 l 2,1,2
 993 367 993 367 1034 282 c 0,3,4
 1098 150 1098 150 1214 150 c 0,5,6
 1328 150 1328 150 1394 282 c 0,7,8
 1436 367 1436 367 1436 550 c 0,9,10
 1436 714 1436 714 1394 818 c 0,11,12
 1341 948 1341 948 1220 991 c 1,13,-1
 1295 1140 l 1,14,-1
 1305 1140 l 1,15,16
 1477 1072 1477 1072 1564 889 c 0,17,18
 1636 738 1636 738 1636 550 c 0,19,20
 1636 344 1636 344 1564 211 c 0,21,22
 1438 -20 1438 -20 1214 -20 c 0,23,24
 1015 -20 1015 -20 893 164 c 1,25,26
 771 -20 771 -20 572 -20 c 0,27,28
 347 -20 347 -20 222 211 c 0,29,30
 150 344 150 344 150 550 c 0,31,32
 150 738 150 738 222 889 c 24,33,34
 309 1072 309 1072 481 1140 c 1,35,-1
 491 1140 l 1,36,-1
 566 991 l 1,37,38
 445 948 445 948 392 818 c 0,39,40
 350 714 350 714 350 550 c 0,41,42
 350 367 350 367 392 282 c 0,43,44
 458 150 458 150 572 150 c 128,-1,45
 686 150 686 150 752 282 c 0,46,47
 793 365 793 365 793 550 c 2,48,-1
 793 1050 l 1,49,-1
 983 1140 l 1,50,-1
 993 1140 l 1,0,-1
829 1566 m 1,51,-1
 839 1566 l 1,52,-1
 1001 1221 l 1,53,-1
 884 1166 l 1,54,-1
 874 1166 l 1,55,-1
 653 1482 l 1,56,-1
 829 1566 l 1,51,-1
EndSplineSet
Validated: 1
EndChar

StartChar: Wacute
Encoding: 7810 7810 214
Width: 2348
Flags: W
HStem: -20 170<560.961 861.675 1486.33 1786.79> 1530 20G<489.5 618.067 1221.78 1274 1729.93 1858.5>
VStem: 150 200<421.924 1087.33> 1074 200<420.809 1460> 1998 200<421.924 1087.48>
CounterMasks: 1 38
LayerCount: 2
Fore
SplineSet
1274 1550 m 1,0,-1
 1274 755 l 2,1,2
 1274 501 1274 501 1342 366 c 0,3,4
 1451 150 1451 150 1636 150 c 128,-1,5
 1821 150 1821 150 1930 366 c 0,6,7
 1998 501 1998 501 1998 755 c 0,8,9
 1998 1011 1998 1011 1930 1144 c 0,10,11
 1841 1318 1841 1318 1665 1401 c 1,12,-1
 1740 1550 l 1,13,-1
 1750 1550 l 1,14,15
 1967 1476 1967 1476 2102 1222 c 0,16,17
 2198 1041 2198 1041 2198 755 c 0,18,19
 2198 465 2198 465 2102 288 c 0,20,21
 1935 -20 1935 -20 1636 -20 c 0,22,23
 1342 -20 1342 -20 1174 281 c 1,24,25
 1006 -20 1006 -20 712 -20 c 0,26,27
 413 -20 413 -20 246 288 c 0,28,29
 150 465 150 465 150 755 c 0,30,31
 150 1041 150 1041 246 1222 c 0,32,33
 381 1476 381 1476 598 1550 c 1,34,-1
 608 1550 l 1,35,-1
 683 1401 l 1,36,37
 506 1317 506 1317 418 1144 c 0,38,39
 350 1010 350 1010 350 755 c 0,40,41
 350 501 350 501 418 366 c 0,42,43
 526 150 526 150 712 150 c 0,44,45
 897 150 897 150 1006 366 c 0,46,47
 1074 501 1074 501 1074 755 c 2,48,-1
 1074 1460 l 1,49,-1
 1264 1550 l 1,50,-1
 1274 1550 l 1,0,-1
1253 1966 m 1,51,-1
 1263 1966 l 1,52,-1
 1439 1882 l 1,53,-1
 1218 1566 l 1,54,-1
 1208 1566 l 1,55,-1
 1091 1621 l 1,56,-1
 1253 1966 l 1,51,-1
EndSplineSet
Validated: 1
EndChar

StartChar: wacute
Encoding: 7811 7811 215
Width: 1786
Flags: W
HStem: -20 170<457.877 685.57 1097.2 1327.93> 1120 20G<395 501.067 940.778 993 1284.93 1391>
VStem: 150 200<277.63 821.604> 793 200<277.907 1050> 1436 200<277.63 821.604>
CounterMasks: 1 38
LayerCount: 2
Fore
SplineSet
993 1140 m 1,0,-1
 993 550 l 2,1,2
 993 367 993 367 1034 282 c 0,3,4
 1098 150 1098 150 1214 150 c 0,5,6
 1328 150 1328 150 1394 282 c 0,7,8
 1436 367 1436 367 1436 550 c 0,9,10
 1436 714 1436 714 1394 818 c 0,11,12
 1341 948 1341 948 1220 991 c 1,13,-1
 1295 1140 l 1,14,-1
 1305 1140 l 1,15,16
 1477 1072 1477 1072 1564 889 c 0,17,18
 1636 738 1636 738 1636 550 c 0,19,20
 1636 344 1636 344 1564 211 c 0,21,22
 1438 -20 1438 -20 1214 -20 c 0,23,24
 1015 -20 1015 -20 893 164 c 1,25,26
 771 -20 771 -20 572 -20 c 0,27,28
 347 -20 347 -20 222 211 c 0,29,30
 150 344 150 344 150 550 c 0,31,32
 150 738 150 738 222 889 c 24,33,34
 309 1072 309 1072 481 1140 c 1,35,-1
 491 1140 l 1,36,-1
 566 991 l 1,37,38
 445 948 445 948 392 818 c 0,39,40
 350 714 350 714 350 550 c 0,41,42
 350 367 350 367 392 282 c 0,43,44
 458 150 458 150 572 150 c 128,-1,45
 686 150 686 150 752 282 c 0,46,47
 793 365 793 365 793 550 c 2,48,-1
 793 1050 l 1,49,-1
 983 1140 l 1,50,-1
 993 1140 l 1,0,-1
917 1566 m 1,51,-1
 927 1566 l 1,52,-1
 1103 1482 l 1,53,-1
 882 1166 l 1,54,-1
 872 1166 l 1,55,-1
 755 1221 l 1,56,-1
 917 1566 l 1,51,-1
EndSplineSet
Validated: 1
EndChar

StartChar: Wdieresis
Encoding: 7812 7812 216
Width: 2348
Flags: W
HStem: -20 170<560.961 861.675 1486.33 1786.79> 1530 20G<489.5 618.067 1221.78 1274 1729.93 1858.5> 1680 245<964.097 1131.9 1264.1 1431.9>
VStem: 150 200<421.924 1087.33> 928 240<1717.13 1887.87> 1074 200<420.809 1460> 1228 240<1717.13 1887.87> 1998 200<421.924 1087.48>
LayerCount: 2
Fore
SplineSet
1274 1550 m 1,0,-1
 1274 755 l 2,1,2
 1274 501 1274 501 1342 366 c 0,3,4
 1451 150 1451 150 1636 150 c 128,-1,5
 1821 150 1821 150 1930 366 c 0,6,7
 1998 501 1998 501 1998 755 c 0,8,9
 1998 1011 1998 1011 1930 1144 c 0,10,11
 1841 1318 1841 1318 1665 1401 c 1,12,-1
 1740 1550 l 1,13,-1
 1750 1550 l 1,14,15
 1967 1476 1967 1476 2102 1222 c 0,16,17
 2198 1041 2198 1041 2198 755 c 0,18,19
 2198 465 2198 465 2102 288 c 0,20,21
 1935 -20 1935 -20 1636 -20 c 0,22,23
 1342 -20 1342 -20 1174 281 c 1,24,25
 1006 -20 1006 -20 712 -20 c 0,26,27
 413 -20 413 -20 246 288 c 0,28,29
 150 465 150 465 150 755 c 0,30,31
 150 1041 150 1041 246 1222 c 0,32,33
 381 1476 381 1476 598 1550 c 1,34,-1
 608 1550 l 1,35,-1
 683 1401 l 1,36,37
 506 1317 506 1317 418 1144 c 0,38,39
 350 1010 350 1010 350 755 c 0,40,41
 350 501 350 501 418 366 c 0,42,43
 526 150 526 150 712 150 c 0,44,45
 897 150 897 150 1006 366 c 0,46,47
 1074 501 1074 501 1074 755 c 2,48,-1
 1074 1460 l 1,49,-1
 1264 1550 l 1,50,-1
 1274 1550 l 1,0,-1
1228 1802.5 m 128,-1,52
 1228 1853 1228 1853 1263 1889 c 128,-1,53
 1298 1925 1298 1925 1348 1925 c 128,-1,54
 1398 1925 1398 1925 1433 1889 c 128,-1,55
 1468 1853 1468 1853 1468 1802.5 c 128,-1,56
 1468 1752 1468 1752 1433 1716 c 128,-1,57
 1398 1680 1398 1680 1348 1680 c 128,-1,58
 1298 1680 1298 1680 1263 1716 c 128,-1,51
 1228 1752 1228 1752 1228 1802.5 c 128,-1,52
928 1802.5 m 128,-1,60
 928 1853 928 1853 963 1889 c 128,-1,61
 998 1925 998 1925 1048 1925 c 128,-1,62
 1098 1925 1098 1925 1133 1889 c 128,-1,63
 1168 1853 1168 1853 1168 1802.5 c 128,-1,64
 1168 1752 1168 1752 1133 1716 c 128,-1,65
 1098 1680 1098 1680 1048 1680 c 128,-1,66
 998 1680 998 1680 963 1716 c 128,-1,59
 928 1752 928 1752 928 1802.5 c 128,-1,60
EndSplineSet
Validated: 1
EndChar

StartChar: wdieresis
Encoding: 7813 7813 217
Width: 1786
Flags: W
HStem: -20 170<457.877 685.57 1097.2 1327.93> 1120 20G<395 501.067 940.778 993 1284.93 1391> 1285 245<638.097 805.903 938.097 1105.9>
VStem: 150 200<277.63 821.604> 602 240<1322.13 1492.87> 793 200<277.907 1050> 902 240<1322.13 1492.87> 1436 200<277.63 821.604>
LayerCount: 2
Fore
SplineSet
993 1140 m 1,0,-1
 993 550 l 2,1,2
 993 367 993 367 1034 282 c 0,3,4
 1098 150 1098 150 1214 150 c 0,5,6
 1328 150 1328 150 1394 282 c 0,7,8
 1436 367 1436 367 1436 550 c 0,9,10
 1436 714 1436 714 1394 818 c 0,11,12
 1341 948 1341 948 1220 991 c 1,13,-1
 1295 1140 l 1,14,-1
 1305 1140 l 1,15,16
 1477 1072 1477 1072 1564 889 c 0,17,18
 1636 738 1636 738 1636 550 c 0,19,20
 1636 344 1636 344 1564 211 c 0,21,22
 1438 -20 1438 -20 1214 -20 c 0,23,24
 1015 -20 1015 -20 893 164 c 1,25,26
 771 -20 771 -20 572 -20 c 0,27,28
 347 -20 347 -20 222 211 c 0,29,30
 150 344 150 344 150 550 c 0,31,32
 150 738 150 738 222 889 c 24,33,34
 309 1072 309 1072 481 1140 c 1,35,-1
 491 1140 l 1,36,-1
 566 991 l 1,37,38
 445 948 445 948 392 818 c 0,39,40
 350 714 350 714 350 550 c 0,41,42
 350 367 350 367 392 282 c 0,43,44
 458 150 458 150 572 150 c 128,-1,45
 686 150 686 150 752 282 c 0,46,47
 793 365 793 365 793 550 c 2,48,-1
 793 1050 l 1,49,-1
 983 1140 l 1,50,-1
 993 1140 l 1,0,-1
902 1407.5 m 128,-1,52
 902 1458 902 1458 937 1494 c 128,-1,53
 972 1530 972 1530 1022 1530 c 128,-1,54
 1072 1530 1072 1530 1107 1494 c 128,-1,55
 1142 1458 1142 1458 1142 1407.5 c 128,-1,56
 1142 1357 1142 1357 1107 1321 c 128,-1,57
 1072 1285 1072 1285 1022 1285 c 128,-1,58
 972 1285 972 1285 937 1321 c 128,-1,51
 902 1357 902 1357 902 1407.5 c 128,-1,52
602 1407.5 m 128,-1,60
 602 1458 602 1458 637 1494 c 128,-1,61
 672 1530 672 1530 722 1530 c 128,-1,62
 772 1530 772 1530 807 1494 c 128,-1,63
 842 1458 842 1458 842 1407.5 c 128,-1,64
 842 1357 842 1357 807 1321 c 128,-1,65
 772 1285 772 1285 722 1285 c 128,-1,66
 672 1285 672 1285 637 1321 c 128,-1,59
 602 1357 602 1357 602 1407.5 c 128,-1,60
EndSplineSet
Validated: 1
EndChar

StartChar: Ygrave
Encoding: 7922 7922 218
Width: 1372
Flags: W
HStem: -40 21G<972 1024.22> 384 170<498.225 815.292> 1530 20G<405 488.067 1119.78 1172>
VStem: 120 200<744.59 1173.45> 972 200<50 530 721.383 1460>
LayerCount: 2
Fore
SplineSet
972 -40 m 1,0,-1
 972 530 l 1,1,2
 846 384 846 384 657 384 c 0,3,4
 399 384 399 384 239 588 c 24,5,6
 120 740 120 740 120 954 c 0,7,8
 120 1184 120 1184 241 1342 c 0,9,10
 342 1474 342 1474 468 1550 c 1,11,-1
 478 1550 l 1,12,-1
 553 1401 l 1,13,14
 466 1342 466 1342 413 1264 c 0,15,16
 320 1127 320 1127 320 954 c 0,17,18
 320 776 320 776 418.5 665 c 128,-1,19
 517 554 517 554 657 554 c 0,20,21
 792 554 792 554 883 658 c 0,22,23
 972 760 972 760 972 894 c 2,24,-1
 972 1460 l 1,25,-1
 1162 1550 l 1,26,-1
 1172 1550 l 1,27,-1
 1172 50 l 1,28,-1
 982 -40 l 1,29,-1
 972 -40 l 1,0,-1
696 1966 m 1,30,-1
 706 1966 l 1,31,-1
 868 1621 l 1,32,-1
 751 1566 l 1,33,-1
 741 1566 l 1,34,-1
 520 1882 l 1,35,-1
 696 1966 l 1,30,-1
EndSplineSet
Validated: 1
EndChar

StartChar: ygrave
Encoding: 7923 7923 219
Width: 1173
Flags: W
HStem: -430 170<407 691.057> -20 170<457.608 686.635> 1120 20G<395 501.067 940.778 993>
VStem: 150 200<277.63 821.604> 793 200<-136.121 80 277.907 1050>
LayerCount: 2
Fore
SplineSet
993 1140 m 1,0,-1
 993 140 l 2,1,2
 993 -65 993 -65 922 -199 c 0,3,4
 798 -430 798 -430 572 -430 c 2,5,-1
 331 -430 l 1,6,-1
 331 -420 l 1,7,-1
 407 -260 l 1,8,-1
 572 -260 l 2,9,10
 698 -260 698 -260 752 -128 c 0,11,12
 789 -37 789 -37 789 80 c 1,13,14
 691 -20 691 -20 571 -20 c 0,15,16
 347 -20 347 -20 222 211 c 0,17,18
 150 344 150 344 150 550 c 0,19,20
 150 738 150 738 222 889 c 24,21,22
 309 1072 309 1072 481 1140 c 1,23,-1
 491 1140 l 1,24,-1
 566 991 l 1,25,26
 445 948 445 948 392 818 c 0,27,28
 350 714 350 714 350 550 c 0,29,30
 350 365 350 365 392 282 c 0,31,32
 458 150 458 150 572 150 c 128,-1,33
 686 150 686 150 752 282 c 0,34,35
 793 365 793 365 793 550 c 2,36,-1
 793 1050 l 1,37,-1
 983 1140 l 1,38,-1
 993 1140 l 1,0,-1
573 1566 m 1,39,-1
 583 1566 l 1,40,-1
 745 1221 l 1,41,-1
 628 1166 l 1,42,-1
 618 1166 l 1,43,-1
 397 1482 l 1,44,-1
 573 1566 l 1,39,-1
EndSplineSet
Validated: 1
EndChar

StartChar: Agrave
Encoding: 192 192 220
Width: 1454
Flags: W
HStem: -40 21G<180 232.222 835.933 964.5> 670 170<382 1102> 1360 170<591.404 893.039>
VStem: 180 200<50 670 840 1087.11> 1102 202<418.486 670 840 1091.17>
LayerCount: 2
Fore
SplineSet
180 -40 m 1,0,-1
 180 755 l 2,1,2
 180 1046 180 1046 276 1222 c 0,3,4
 444 1530 444 1530 742 1530 c 0,5,6
 1041 1530 1041 1530 1208 1222 c 0,7,8
 1304 1045 1304 1045 1304 755 c 0,9,10
 1304 469 1304 469 1208 288 c 0,11,12
 1073 34 1073 34 856 -40 c 1,13,-1
 846 -40 l 1,14,-1
 771 109 l 1,15,16
 949 193 949 193 1036 366 c 0,17,18
 1092 477 1092 477 1102 670 c 1,19,-1
 380 670 l 1,20,-1
 380 50 l 1,21,-1
 190 -40 l 1,22,-1
 180 -40 l 1,0,-1
382 840 m 1,23,-1
 1102 840 l 1,24,25
 1092 1032 1092 1032 1036 1144 c 0,26,27
 928 1360 928 1360 742 1360 c 0,28,29
 557 1360 557 1360 448 1144 c 0,30,31
 392 1032 392 1032 382 840 c 1,23,-1
626 1966 m 1,32,-1
 636 1966 l 1,33,-1
 798 1621 l 1,34,-1
 681 1566 l 1,35,-1
 671 1566 l 1,36,-1
 450 1882 l 1,37,-1
 626 1966 l 1,32,-1
EndSplineSet
Validated: 1
EndChar

StartChar: Aacute
Encoding: 193 193 221
Width: 1410
Flags: W
HStem: -40 21G<180 232.222 835.933 964.5> 670 170<382 1102> 1360 170<591.404 893.039>
VStem: 180 200<50 670 840 1087.11> 1102 202<418.486 670 840 1091.17>
LayerCount: 2
Fore
SplineSet
180 -40 m 1,0,-1
 180 755 l 2,1,2
 180 1046 180 1046 276 1222 c 0,3,4
 444 1530 444 1530 742 1530 c 0,5,6
 1041 1530 1041 1530 1208 1222 c 0,7,8
 1304 1045 1304 1045 1304 755 c 0,9,10
 1304 469 1304 469 1208 288 c 0,11,12
 1073 34 1073 34 856 -40 c 1,13,-1
 846 -40 l 1,14,-1
 771 109 l 1,15,16
 949 193 949 193 1036 366 c 0,17,18
 1092 477 1092 477 1102 670 c 1,19,-1
 380 670 l 1,20,-1
 380 50 l 1,21,-1
 190 -40 l 1,22,-1
 180 -40 l 1,0,-1
382 840 m 1,23,-1
 1102 840 l 1,24,25
 1092 1032 1092 1032 1036 1144 c 0,26,27
 928 1360 928 1360 742 1360 c 0,28,29
 557 1360 557 1360 448 1144 c 0,30,31
 392 1032 392 1032 382 840 c 1,23,-1
847 1966 m 1,32,-1
 857 1966 l 1,33,-1
 1033 1882 l 1,34,-1
 812 1566 l 1,35,-1
 802 1566 l 1,36,-1
 685 1621 l 1,37,-1
 847 1966 l 1,32,-1
EndSplineSet
Validated: 1
EndChar

StartChar: Acircumflex
Encoding: 194 194 222
Width: 1454
Flags: W
HStem: -40 21G<180 232.222 835.933 964.5> 670 170<382 1102> 1360 170<591.404 893.039>
VStem: 180 200<50 670 840 1087.11> 1102 202<418.486 670 840 1091.17>
LayerCount: 2
Fore
SplineSet
180 -40 m 1,0,-1
 180 755 l 2,1,2
 180 1046 180 1046 276 1222 c 0,3,4
 444 1530 444 1530 742 1530 c 0,5,6
 1041 1530 1041 1530 1208 1222 c 0,7,8
 1304 1045 1304 1045 1304 755 c 0,9,10
 1304 469 1304 469 1208 288 c 0,11,12
 1073 34 1073 34 856 -40 c 1,13,-1
 846 -40 l 1,14,-1
 771 109 l 1,15,16
 949 193 949 193 1036 366 c 0,17,18
 1092 477 1092 477 1102 670 c 1,19,-1
 380 670 l 1,20,-1
 380 50 l 1,21,-1
 190 -40 l 1,22,-1
 180 -40 l 1,0,-1
382 840 m 1,23,-1
 1102 840 l 1,24,25
 1092 1032 1092 1032 1036 1144 c 0,26,27
 928 1360 928 1360 742 1360 c 0,28,29
 557 1360 557 1360 448 1144 c 0,30,31
 392 1032 392 1032 382 840 c 1,23,-1
464 1621 m 1,32,-1
 617 1882 l 1,33,-1
 793 1966 l 1,34,-1
 803 1966 l 1,35,-1
 1016 1621 l 1,36,-1
 900 1566 l 1,37,-1
 890 1566 l 1,38,-1
 740 1774 l 1,39,-1
 592 1566 l 1,40,-1
 582 1566 l 1,41,-1
 464 1621 l 1,32,-1
EndSplineSet
Validated: 1
EndChar

StartChar: Atilde
Encoding: 195 195 223
Width: 1454
Flags: W
HStem: -40 21G<180 232.222 835.933 964.5> 670 170<382 1102> 1360 170<591.404 893.039> 1638 167<783.775 885.272> 1757 167<619.728 721.225>
VStem: 180 200<50 670 840 1087.11> 501 116<1685 1756.35> 888 116<1805.65 1877> 1102 202<418.486 670 840 1091.17>
LayerCount: 2
Fore
SplineSet
180 -40 m 1,0,-1
 180 755 l 2,1,2
 180 1046 180 1046 276 1222 c 0,3,4
 444 1530 444 1530 742 1530 c 0,5,6
 1041 1530 1041 1530 1208 1222 c 0,7,8
 1304 1045 1304 1045 1304 755 c 0,9,10
 1304 469 1304 469 1208 288 c 0,11,12
 1073 34 1073 34 856 -40 c 1,13,-1
 846 -40 l 1,14,-1
 771 109 l 1,15,16
 949 193 949 193 1036 366 c 0,17,18
 1092 477 1092 477 1102 670 c 1,19,-1
 380 670 l 1,20,-1
 380 50 l 1,21,-1
 190 -40 l 1,22,-1
 180 -40 l 1,0,-1
382 840 m 1,23,-1
 1102 840 l 1,24,25
 1092 1032 1092 1032 1036 1144 c 0,26,27
 928 1360 928 1360 742 1360 c 0,28,29
 557 1360 557 1360 448 1144 c 0,30,31
 392 1032 392 1032 382 840 c 1,23,-1
501 1638 m 1,32,33
 501 1924 501 1924 642 1924 c 0,34,35
 706 1924 706 1924 779 1854 c 0,36,37
 830 1805 830 1805 854 1805 c 0,38,39
 888 1805 888 1805 888 1877 c 1,40,-1
 998 1924 l 1,41,-1
 1004 1924 l 1,42,43
 1004 1638 1004 1638 863 1638 c 0,44,45
 799 1638 799 1638 726 1708 c 0,46,47
 675 1757 675 1757 651 1757 c 0,48,49
 617 1757 617 1757 617 1685 c 1,50,-1
 507 1638 l 1,51,-1
 501 1638 l 1,32,33
EndSplineSet
Validated: 1
EndChar

StartChar: Adieresis
Encoding: 196 196 224
Width: 1454
Flags: W
HStem: -40 21G<180 232.222 835.933 964.5> 670 170<382 1102> 1360 170<591.404 893.039> 1680 245<508.097 675.903 808.097 975.903>
VStem: 180 200<50 670 840 1087.11> 472 240<1717.13 1887.87> 772 240<1717.13 1887.87> 1102 202<418.486 670 840 1091.17>
LayerCount: 2
Fore
SplineSet
180 -40 m 1,0,-1
 180 755 l 2,1,2
 180 1046 180 1046 276 1222 c 0,3,4
 444 1530 444 1530 742 1530 c 0,5,6
 1041 1530 1041 1530 1208 1222 c 0,7,8
 1304 1045 1304 1045 1304 755 c 0,9,10
 1304 469 1304 469 1208 288 c 0,11,12
 1073 34 1073 34 856 -40 c 1,13,-1
 846 -40 l 1,14,-1
 771 109 l 1,15,16
 949 193 949 193 1036 366 c 0,17,18
 1092 477 1092 477 1102 670 c 1,19,-1
 380 670 l 1,20,-1
 380 50 l 1,21,-1
 190 -40 l 1,22,-1
 180 -40 l 1,0,-1
382 840 m 1,23,-1
 1102 840 l 1,24,25
 1092 1032 1092 1032 1036 1144 c 0,26,27
 928 1360 928 1360 742 1360 c 0,28,29
 557 1360 557 1360 448 1144 c 0,30,31
 392 1032 392 1032 382 840 c 1,23,-1
772 1802.5 m 128,-1,33
 772 1853 772 1853 807 1889 c 128,-1,34
 842 1925 842 1925 892 1925 c 128,-1,35
 942 1925 942 1925 977 1889 c 128,-1,36
 1012 1853 1012 1853 1012 1802.5 c 128,-1,37
 1012 1752 1012 1752 977 1716 c 128,-1,38
 942 1680 942 1680 892 1680 c 128,-1,39
 842 1680 842 1680 807 1716 c 128,-1,32
 772 1752 772 1752 772 1802.5 c 128,-1,33
472 1802.5 m 128,-1,41
 472 1853 472 1853 507 1889 c 128,-1,42
 542 1925 542 1925 592 1925 c 128,-1,43
 642 1925 642 1925 677 1889 c 128,-1,44
 712 1853 712 1853 712 1802.5 c 128,-1,45
 712 1752 712 1752 677 1716 c 128,-1,46
 642 1680 642 1680 592 1680 c 128,-1,47
 542 1680 542 1680 507 1716 c 128,-1,40
 472 1752 472 1752 472 1802.5 c 128,-1,41
EndSplineSet
Validated: 1
EndChar

StartChar: Aring
Encoding: 197 197 225
Width: 1454
Flags: W
HStem: -40 21G<180 232.222 835.933 964.5> 670 170<382 1102> 1360 170<591.404 893.039> 1588 104<675.161 793.263> 1862 104<675.215 792.294>
VStem: 180 200<50 670 840 1087.11> 538 123<1704.96 1848.01> 807 125<1705.96 1849.51> 1102 202<418.486 670 840 1091.17>
LayerCount: 2
Fore
SplineSet
180 -40 m 1,0,-1
 180 755 l 2,1,2
 180 1046 180 1046 276 1222 c 0,3,4
 444 1530 444 1530 742 1530 c 0,5,6
 1041 1530 1041 1530 1208 1222 c 0,7,8
 1304 1045 1304 1045 1304 755 c 0,9,10
 1304 469 1304 469 1208 288 c 0,11,12
 1073 34 1073 34 856 -40 c 1,13,-1
 846 -40 l 1,14,-1
 771 109 l 1,15,16
 949 193 949 193 1036 366 c 0,17,18
 1092 477 1092 477 1102 670 c 1,19,-1
 380 670 l 1,20,-1
 380 50 l 1,21,-1
 190 -40 l 1,22,-1
 180 -40 l 1,0,-1
382 840 m 1,23,-1
 1102 840 l 1,24,25
 1092 1032 1092 1032 1036 1144 c 0,26,27
 928 1360 928 1360 742 1360 c 0,28,29
 557 1360 557 1360 448 1144 c 0,30,31
 392 1032 392 1032 382 840 c 1,23,-1
735 1588 m 128,-1,33
 655 1588 655 1588 600 1637 c 0,34,35
 538 1692 538 1692 538 1777 c 0,36,37
 538 1860 538 1860 600 1917 c 0,38,39
 653 1966 653 1966 735 1966 c 0,40,41
 815 1966 815 1966 870 1917 c 0,42,43
 932 1862 932 1862 932 1777 c 128,-1,44
 932 1692 932 1692 870 1637 c 0,45,32
 815 1588 815 1588 735 1588 c 128,-1,33
735 1862 m 0,46,47
 701 1862 701 1862 681 1841 c 128,-1,48
 661 1820 661 1820 661 1777 c 0,49,50
 661 1731 661 1731 682 1712 c 0,51,52
 704 1692 704 1692 734 1692 c 0,53,54
 765 1692 765 1692 787 1714 c 0,55,56
 807 1733 807 1733 807 1777 c 0,57,58
 807 1822 807 1822 785 1843 c 0,59,60
 765 1862 765 1862 735 1862 c 0,46,47
EndSplineSet
Validated: 1
EndChar

StartChar: AE
Encoding: 198 198 226
Width: 2104
Flags: W
HStem: -40 21G<180 232.222> 0 170<1307.32 1857.13> 670 170<382 1102 1304 1797> 1360 170<591.404 892.082 1516.77 1857>
VStem: 180 200<50 670 840 1087.11> 1102 200<175.756 670>
LayerCount: 2
Fore
SplineSet
382 840 m 1,0,-1
 1102 840 l 1,1,2
 1092 1032 1092 1032 1036 1144 c 0,3,4
 928 1360 928 1360 742 1360 c 0,5,6
 557 1360 557 1360 448 1144 c 0,7,8
 392 1032 392 1032 382 840 c 1,0,-1
180 -40 m 1,9,-1
 180 755 l 2,10,11
 180 1046 180 1046 276 1222 c 0,12,13
 444 1530 444 1530 742 1530 c 0,14,15
 1037 1530 1037 1530 1203 1231 c 1,16,17
 1370 1530 1370 1530 1664 1530 c 2,18,-1
 1932 1530 l 1,19,-1
 1932 1520 l 1,20,-1
 1857 1360 l 1,21,-1
 1664 1360 l 2,22,23
 1478 1360 1478 1360 1370 1144 c 0,24,25
 1314 1032 1314 1032 1304 840 c 1,26,-1
 1872 840 l 1,27,-1
 1872 830 l 1,28,-1
 1797 670 l 1,29,-1
 1302 670 l 1,30,-1
 1302 214 l 2,31,32
 1302 170 1302 170 1352 170 c 2,33,-1
 1746 170 l 2,34,35
 1864 170 1864 170 1894 287 c 1,36,-1
 1904 287 l 1,37,-1
 2054 216 l 1,38,39
 1994 0 1994 0 1746 0 c 2,40,-1
 1352 0 l 2,41,42
 1102 0 1102 0 1102 214 c 2,43,-1
 1102 670 l 1,44,-1
 380 670 l 1,45,-1
 380 50 l 1,46,-1
 190 -40 l 1,47,-1
 180 -40 l 1,9,-1
EndSplineSet
Validated: 1
EndChar

StartChar: Amacron
Encoding: 256 256 227
Width: 1454
Flags: W
HStem: -40 21G<180 232.222 835.933 964.5> 670 170<382 1102> 1360 170<591.404 893.039> 1638 182<578 955>
VStem: 180 200<50 670 840 1087.11> 1102 202<418.486 670 840 1091.17>
LayerCount: 2
Fore
SplineSet
180 -40 m 1,0,-1
 180 755 l 2,1,2
 180 1046 180 1046 276 1222 c 0,3,4
 444 1530 444 1530 742 1530 c 0,5,6
 1041 1530 1041 1530 1208 1222 c 0,7,8
 1304 1045 1304 1045 1304 755 c 0,9,10
 1304 469 1304 469 1208 288 c 0,11,12
 1073 34 1073 34 856 -40 c 1,13,-1
 846 -40 l 1,14,-1
 771 109 l 1,15,16
 949 193 949 193 1036 366 c 0,17,18
 1092 477 1092 477 1102 670 c 1,19,-1
 380 670 l 1,20,-1
 380 50 l 1,21,-1
 190 -40 l 1,22,-1
 180 -40 l 1,0,-1
382 840 m 1,23,-1
 1102 840 l 1,24,25
 1092 1032 1092 1032 1036 1144 c 0,26,27
 928 1360 928 1360 742 1360 c 0,28,29
 557 1360 557 1360 448 1144 c 0,30,31
 392 1032 392 1032 382 840 c 1,23,-1
497 1638 m 1,32,-1
 497 1648 l 1,33,-1
 578 1820 l 1,34,-1
 1036 1820 l 1,35,-1
 1036 1810 l 1,36,-1
 955 1638 l 1,37,-1
 497 1638 l 1,32,-1
EndSplineSet
Validated: 1
EndChar

StartChar: Abreve
Encoding: 258 258 228
Width: 1454
Flags: W
HStem: -40 21G<180 232.222 835.933 964.5> 670 170<382 1102> 1360 170<591.404 893.039> 1638 175<638.656 848.399>
VStem: 180 200<50 670 840 1087.11> 1102 202<418.486 670 840 1091.17>
LayerCount: 2
Fore
SplineSet
180 -40 m 1,0,-1
 180 755 l 2,1,2
 180 1046 180 1046 276 1222 c 0,3,4
 444 1530 444 1530 742 1530 c 0,5,6
 1041 1530 1041 1530 1208 1222 c 0,7,8
 1304 1045 1304 1045 1304 755 c 0,9,10
 1304 469 1304 469 1208 288 c 0,11,12
 1073 34 1073 34 856 -40 c 1,13,-1
 846 -40 l 1,14,-1
 771 109 l 1,15,16
 949 193 949 193 1036 366 c 0,17,18
 1092 477 1092 477 1102 670 c 1,19,-1
 380 670 l 1,20,-1
 380 50 l 1,21,-1
 190 -40 l 1,22,-1
 180 -40 l 1,0,-1
382 840 m 1,23,-1
 1102 840 l 1,24,25
 1092 1032 1092 1032 1036 1144 c 0,26,27
 928 1360 928 1360 742 1360 c 0,28,29
 557 1360 557 1360 448 1144 c 0,30,31
 392 1032 392 1032 382 840 c 1,23,-1
498 1788 m 1,32,-1
 498 1798 l 1,33,-1
 572 1947 l 1,34,35
 644 1813 644 1813 744 1813 c 128,-1,36
 844 1813 844 1813 916 1947 c 1,37,-1
 992 1798 l 1,38,-1
 992 1788 l 1,39,40
 890 1638 890 1638 742 1638 c 0,41,42
 588 1638 588 1638 498 1788 c 1,32,-1
EndSplineSet
Validated: 1
EndChar

StartChar: Aogonek
Encoding: 260 260 229
Width: 1454
Flags: W
HStem: -450 21G<778.5 885.222> -40 21G<180 232.222> 670 170<382 1102> 1360 170<591.404 893.039>
VStem: 180 200<50 670 840 1087.11> 724 175<-280.616 -55.0859> 1102 202<418.527 670 840 1091.17>
LayerCount: 2
Fore
SplineSet
382 840 m 1,0,-1
 1102 840 l 1,1,2
 1092 1032 1092 1032 1036 1144 c 0,3,4
 928 1360 928 1360 742 1360 c 0,5,6
 557 1360 557 1360 448 1144 c 0,7,8
 392 1032 392 1032 382 840 c 1,0,-1
180 -40 m 1,9,-1
 180 755 l 2,10,11
 180 1046 180 1046 276 1222 c 0,12,13
 444 1530 444 1530 742 1530 c 0,14,15
 1041 1530 1041 1530 1208 1222 c 0,16,17
 1304 1045 1304 1045 1304 755 c 0,18,19
 1304 470 1304 470 1208 288 c 0,20,21
 1107 97 1107 97 959 8 c 1,22,23
 899 -52 899 -52 899 -152 c 0,24,25
 899 -273 899 -273 1033 -360 c 1,26,-1
 843 -450 l 1,27,-1
 833 -450 l 1,28,29
 724 -343 724 -343 724 -206 c 0,30,31
 724 -86 724 -86 821 10 c 1,32,-1
 771 109 l 1,33,34
 949 193 949 193 1036 366 c 0,35,36
 1092 477 1092 477 1102 670 c 1,37,-1
 380 670 l 1,38,-1
 380 50 l 1,39,-1
 190 -40 l 1,40,-1
 180 -40 l 1,9,-1
EndSplineSet
Validated: 1
EndChar

